<svg xmlns="http://www.w3.org/2000/svg" width="800" height="526" viewBox="0 0 800 526" fill="none"><path d="M624.736 139.433C625.201 140.169 625.395 140.867 625.356 141.526 625.317 142.185 625.007 142.844 624.465 143.464L625.666 145.402C625.705 145.441 625.705 145.519 625.705 145.596 625.705 145.674 625.666 145.713 625.589 145.751L623.03 147.341C622.992 147.38 622.914 147.38 622.836 147.38 622.759 147.38 622.72 147.341 622.681 147.263L621.635 145.558C621.131 145.829 620.704 146.062 620.278 146.255 620.239 146.294 620.162 146.294 620.123 146.255 620.045 146.217 620.007 146.178 619.968 146.139L618.921 143.968C618.882 143.891 618.882 143.852 618.921 143.774 618.96 143.697 618.999 143.658 619.076 143.658 619.27 143.58 619.425 143.542 619.619 143.464 619.813 143.387 620.045 143.27 620.317 143.154 620.588 143.038 620.859 142.883 621.092 142.766 621.325 142.611 621.518 142.456 621.674 142.301 621.79 142.146 621.867 141.952 621.867 141.836 621.867 141.681 621.867 141.565 621.829 141.487 621.79 141.371 621.79 141.293 621.751 141.255 621.712 141.177 621.635 141.1 621.557 141.061 621.48 140.983 621.363 140.906 621.208 140.828 621.053 140.751 620.821 140.712 620.549 140.712 620.278 140.712 619.968 140.789 619.658 140.867 619.27 140.983 618.882 141.061 618.456 141.061 618.03 141.061 617.603 141.022 617.177 140.906 616.75 140.789 616.324 140.596 615.936 140.247 615.51 139.937 615.161 139.549 614.89 139.045 614.463 138.386 614.308 137.688 614.347 137.029 614.424 136.37 614.696 135.711 615.2 135.091l-1.202-1.977C613.959 133.075 613.959 132.997 613.959 132.92 613.959 132.842 613.998 132.804 614.075 132.765L616.634 131.175C616.673 131.137 616.75 131.137 616.828 131.137 616.905 131.137 616.944 131.175 616.983 131.253L618.03 132.959C618.495 132.687 618.96 132.455 619.425 132.222 619.464 132.183 619.541 132.183 619.619 132.222 619.696 132.222 619.735 132.261 619.774 132.338L620.821 134.509C620.859 134.587 620.859 134.626 620.821 134.703 620.782 134.781 620.743 134.819 620.704 134.819 619.89 135.091 619.193 135.401 618.611 135.75 618.378 135.905 618.185 136.06 618.068 136.215 617.952 136.37 617.874 136.564 617.874 136.719S617.874 136.99 617.874 137.068C617.913 137.145 617.913 137.262 617.952 137.3 617.991 137.378 618.068 137.417 618.146 137.494 618.223 137.572 618.34 137.649 618.495 137.688 618.65 137.766 618.882 137.804 619.154 137.804 619.425 137.804 619.735 137.727 620.045 137.649 620.433 137.533 620.821 137.456 621.247 137.456 621.674 137.456 622.1 137.494 622.526 137.611 622.953 137.727 623.379 137.959 623.767 138.27 624.116 138.58 624.465 138.967 624.736 139.433z" fill="#2c2d2e"/><path d="M622.914 147.883C622.837 147.883 622.798 147.883 622.72 147.845 622.526 147.806 622.333 147.651 622.216 147.457L621.441 146.216C621.131 146.372 620.821 146.527 620.511 146.682 620.317 146.759 620.123 146.759 619.929 146.72 619.735 146.643 619.58 146.527 619.464 146.372 619.464 146.372 619.464 146.333 619.425 146.333L618.378 144.162C618.262 143.929 618.262 143.697 618.34 143.503 618.417 143.27 618.611 143.115 618.844 143.038 618.999 142.999 619.193 142.921 619.348 142.844 619.541 142.766 619.735 142.689 620.007 142.534 620.278 142.417 620.511 142.301 620.704 142.146 620.898 142.03 621.053 141.913 621.131 141.797 621.208 141.681 621.208 141.642 621.208 141.642 621.208 141.526 621.208 141.448 621.208 141.448 621.208 141.41 621.17 141.371 621.17 141.371S621.17 141.332 621.092 141.293C621.092 141.293 621.015 141.216 620.86 141.138 620.821 141.138 620.743 141.099 620.472 141.099 620.239 141.099 620.007 141.138 619.735 141.254 619.309 141.41 618.844 141.487 618.378 141.487 617.913 141.487 617.448 141.41 616.944 141.293 616.44 141.177 615.936 140.906 615.471 140.557 615.006 140.208 614.618 139.743 614.269 139.2 613.804 138.425 613.572 137.611 613.649 136.835 613.727 136.176 613.959 135.517 614.386 134.897L613.378 133.269C613.261 133.075 613.223 132.881 613.261 132.687 613.3 132.455 613.455 132.261 613.649 132.145L616.208 130.555C616.401 130.439 616.634 130.4 616.828 130.439 617.06 130.478 617.216 130.633 617.332 130.788L618.107 132.028C618.417 131.873 618.727 131.718 619.076 131.563 619.27 131.486 619.464 131.486 619.658 131.524 619.89 131.602 620.084 131.757 620.162 131.951L621.208 134.122C621.325 134.315 621.325 134.548 621.247 134.781 621.17 135.013 620.976 135.207 620.743 135.285 620.007 135.556 619.348 135.866 618.805 136.176 618.611 136.292 618.495 136.37 618.417 136.486 618.34 136.564 618.34 136.641 618.34 136.641 618.34 136.796 618.34 136.835 618.34 136.874 618.34 136.913 618.34 136.913 618.378 136.951 618.378 136.951 618.379 136.99 618.417 136.99 618.417 136.99 618.495 137.029 618.65 137.107 618.689 137.107 618.805 137.145 619.038 137.145 619.27 137.145 619.503 137.107 619.774 136.99 620.201 136.874 620.666 136.796 621.131 136.758 621.596 136.758 622.1 136.796 622.565 136.951 623.069 137.107 623.573 137.339 624.038 137.688 624.504 138.037 624.891 138.502 625.24 139.045 625.744 139.898 625.977 140.712 625.938 141.487 625.899 142.146 625.628 142.805 625.162 143.425L626.132 145.015C626.248 145.209 626.287 145.402 626.248 145.635 626.209 145.868 626.054 146.023 625.899 146.139L623.341 147.728C623.185 147.845 623.069 147.883 622.914 147.883zM621.635 144.898C621.829 144.898 622.022 145.015 622.139 145.17L623.03 146.604 625.007 145.402 624 143.774C623.883 143.542 623.883 143.27 624.077 143.076 624.542 142.534 624.814 142.03 624.852 141.487 624.891 140.944 624.697 140.363 624.31 139.743 624.038 139.316 623.767 138.967 623.418 138.696 623.069 138.425 622.72 138.231 622.371 138.153 621.984 138.037 621.635 137.998 621.286 137.998 620.937 137.998 620.588 138.076 620.239 138.153 619.852 138.27 619.503 138.347 619.154 138.347S618.495 138.308 618.262 138.192C618.068 138.076 617.875 137.998 617.758 137.882 617.642 137.766 617.526 137.649 617.448 137.533 617.371 137.417 617.293 137.262 617.293 137.107 617.254 136.951 617.254 136.796 617.254 136.603 617.254 136.331 617.371 136.06 617.564 135.789 617.758 135.556 617.991 135.362 618.301 135.168 618.805 134.858 619.425 134.587 620.123 134.315L619.386 132.804C619.038 132.959 618.65 133.152 618.301 133.346 618.03 133.501 617.681 133.424 617.526 133.152L616.634 131.718 614.657 132.92 615.704 134.626C615.82 134.819 615.82 135.091 615.665 135.285 615.238 135.827 615.006 136.37 614.928 136.913 614.89 137.455 615.006 137.998 615.394 138.58 615.665 139.006 615.975 139.355 616.324 139.626 616.673 139.898 617.022 140.091 617.371 140.169 617.758 140.285 618.107 140.324 618.495 140.324 618.844 140.324 619.193 140.285 619.503 140.169 619.89 140.053 620.239 139.975 620.588 139.975 620.937 139.975 621.247 140.014 621.48 140.13 621.674 140.247 621.829 140.324 621.945 140.44 622.061 140.557 622.178 140.673 622.255 140.789 622.333 140.906 622.371 141.061 622.41 141.216S622.449 141.526 622.449 141.72C622.449 141.991 622.333 142.262 622.139 142.534 621.945 142.766 621.712 142.96 621.402 143.154 621.17 143.309 620.898 143.425 620.588 143.58 620.278 143.697 620.045 143.813 619.852 143.891 619.774 143.929 619.697 143.929 619.658 143.968L620.394 145.519C620.704 145.364 621.053 145.17 621.402 144.976 621.441 144.937 621.557 144.898 621.635 144.898zm-1.202-10.699c0 .0389999999999873.0.0389999999999873.0.0.0.0389999999999873.0.0389999999999873.0.0z" fill="#2c2d2e"/><path d="M619.231 158.854C613.3 158.854 605.78 154.822 600.275 137.882 595.701 123.732 579.342 94.0765 558.098 92.5647 557.516 92.5259 557.013 92.0995 556.857 91.518 556.702 90.9365 556.974 90.355 557.478 90.0449 558.835 89.192 590.584 69.5766 598.802 67.4057 603.221 66.2428 608.106 68.0647 612.99 72.6779 617.526 76.9809 621.829 83.5323 625.473 91.6343 629.776 101.248 634.621 111.172 640.863 118.538 648.655 127.686 656.485 130.361 664.897 126.717 665.363 126.523 665.944 126.601 666.332 126.95 666.719 127.299 666.875 127.841 666.719 128.345 662.572 142.379 628.923 157.613 621.209 158.738 620.511 158.815 619.891 158.854 619.231 158.854zm-57.14-68.4215C572.79 92.7585 581.512 101.209 587.133 108.304 595.08 118.266 600.43 129.702 602.834 137.029 607.253 150.674 613.3 157.071 620.743 156.024 627.178 155.094 655.788 142.146 662.843 130.284 642.258 135.982 628.845 105.939 622.953 92.7585 616.053 77.291 606.633 68.181 599.5 70.0806 593.142 71.7475 570.542 85.2767 562.091 90.4325z" fill="#2c2d2e"/><path d="M592.561 86.2463C592.057 86.2463 591.592 85.975 591.359 85.5098 591.01 84.8508 591.281 84.0367 591.94 83.6878 591.979 83.649 597.639 80.7029 604.811 77.0976 605.47 76.7488 606.284 77.0201 606.633 77.6791 606.982 78.3381 606.71 79.1522 606.051 79.5011 598.918 83.1451 593.258 86.0525 593.22 86.0913 592.987 86.2076 592.754 86.2463 592.561 86.2463z" fill="#2c2d2e"/><path d="M591.475 95.0847C591.049 95.0847 590.661 94.8908 590.39 94.5419 589.963 93.9217 590.08 93.0689 590.7 92.6424 593.103 90.898 600.973 86.8663 609.036 83.2999 609.734 82.9898 610.509 83.2999 610.819 83.9977 611.129 84.6955 610.819 85.4708 610.121 85.7809 602.33 89.231 594.499 93.1852 592.289 94.8133 592.057 94.9684 591.747 95.0847 591.475 95.0847z" fill="#2c2d2e"/><path d="M601.709 103.42C601.244 103.42 600.818 103.187 600.546 102.761 600.159 102.14 600.353 101.288 600.973 100.9 601.05 100.861 608.261 96.4031 613.649 93.5732 614.308 93.2243 615.122 93.4957 615.471 94.1547 615.82 94.8137 615.549 95.6278 614.89 95.9767 609.617 98.7291 602.446 103.148 602.368 103.187 602.213 103.342 601.942 103.42 601.709 103.42z" fill="#2c2d2e"/><path d="M607.989 114.196C607.563 114.196 607.136 114.002 606.904 113.653 606.477 113.033 606.594 112.18 607.214 111.754 607.253 111.715 612.215 108.148 616.867 105.202 617.487 104.814 618.34 104.97 618.727 105.629 619.115 106.249 618.96 107.102 618.301 107.489 613.688 110.397 608.842 113.924 608.765 113.963 608.571 114.118 608.261 114.196 607.989 114.196z" fill="#2c2d2e"/><path d="M572.911 240.472C572.48 255.542 569.614 270.409 564.678 284.694 531.682 380.323 407.664 450.61 328.085 390.835 316.664 382.249 306.512 373.047 297.573 363.356c-29.26-31.79-45.218-68.745-48.755-105.789C245.944 227.452 251.292 197.313 264.354 169.877 269.528 158.974 275.955 148.482 283.591 138.604 388.43 2.40998 576.097 124.523 572.911 240.472z" fill="#d4f7dc"/><path d="M553.329 285.411C520.333 381.04 396.315 451.327 316.736 391.552 305.315 382.966 295.163 373.764 286.224 364.074 285.67 361.81 285.141 359.462 284.598 357.038 279.357 334.304 277.18 322.327 301.699 316.262 307.697 314.778 317.064 312.311 328.384 309.305 329.857 305.584 334.724 292.924 338.149 280.124 332.569 280.393 273.573 282.855 251.385 269.425 246.895 266.709 242.159 262.816 237.463 258.247c-19.711-19.06-39.395-49.655-42.218-54.316C192.26 199.023 191.34 194.894 191.159 186.897 190.461 188.082 180.834 179.182 181.345 175.354 182.217 169.101 198.678 153.427 208.85 150.386 210.642 149.836 217.421 157.976 216.277 158.412 222.915 158.115 236.408 158.979 239.944 161.862 241.503 163.124 246.846 166.439 252.966 170.601 262.875 177.288 274.783 186.182 275.979 192.112 277.938 201.726 279.369 201.357 282.395 201.103 285.458 200.842 288.194 201.858 288.542 205.418 288.897 209.016 289.913 211.672 295.779 209.66 301.652 207.687 305.88 208.009 307.94 212.804 309.993 217.561 326.515 214.824 332.797 213.842 339.08 212.86 371.36 209.764 375.497 211.361 373.991 189.507 376.63 154.018 376.63 154.018S348.911 149.9 348.557 145.633C348.371 143.225 367.91 131.42 380.697 123.985 380.875 123.876 389.296 123.424 393.405 120.815c0 0-3.80199999999996 21.21 21.023 25.205C414.428 146.02 415.415 149.861 417.136 149.796 418.308 149.748 419.866 148.531 419.994 144.77 420.05 143.068 419.815 140.826 419.154 137.951 419.154 137.951 419.307 137.924 419.612 137.871L419.65 137.864C423.513 137.227 427.208 136.973 430.338 137.094 434.699 137.275 437.907 138.287 438.872 140.204 440.368 143.129 438.675 147.165 429.567 150.216 427.92 161.485 430.086 170.708 433.534 170.616 437.338 170.54 438.537 169.071 440.104 167.458 441.671 165.846 444.241 172.204 437.595 178.524 432.397 183.449 425.288 186.229 418.853 183.42 419.215 194.022 419.689 205.943 420.365 216.765 423.044 216.335 466.678 234.471 478.277 238.224 485.792 240.686 501.01 246.679 513.541 256.881 536.002 251.649 542.909 252.21 548.449 269.461 549.61 272.721 551.301 278.328 553.329 285.411z" fill="#fff"/><path d="M381.62 143.187C380.758 142.983 380.247 142.089 380.457 141.265L381.457 137.312C381.66 136.45 382.555 135.939 383.379 136.149 384.241 136.352 384.752 137.246 384.542 138.07l-1 3.953C383.377 142.879 382.489 143.428 381.62 143.187z" fill="#2c2d2e"/><path d="M392.005 145.855C391.143 145.651 390.632 144.757 390.842 143.933l1-3.953C392.045 139.118 392.94 138.607 393.764 138.817 394.626 139.02 395.137 139.914 394.927 140.738l-1 3.953C393.724 145.554 392.867 146.058 392.005 145.855z" fill="#2c2d2e"/><path d="M375.801 212.646C375.763 212.652 375.724 212.659 375.648 212.673 374.909 212.723 374.261 212.168 374.21 211.429 372.858 192.027 374.819 161.655 375.257 155.163 372.946 154.781 367.72 153.925 362.478 152.758 349.369 149.819 347.414 147.643 347.239 145.745 347.132 144.465 346.978 142.682 369.256 129.216c10.673-6.474 21.527-12.586 21.635-12.644C391.538 116.222 392.362 116.432 392.749 117.073 393.099 117.72 392.889 118.544 392.249 118.932c-19.381 10.911-40.059 23.624-42.201 26.676C350.499 146.158 352.801 147.841 363.649 150.231 370.283 151.706 376.785 152.653 376.868 152.677 377.557 152.793 378.059 153.413 378.027 154.127 378.011 154.484 375.408 189.731 376.898 211.273 376.974 211.929 376.488 212.525 375.801 212.646z" fill="#2c2d2e"/><path d="M396.722 166.045C395.997 166.172 395.279 165.668 395.152 164.942 395.025 164.217 395.529 163.499 396.254 163.372 402.784 162.228 406.094 158.657 405.514 153.327 405.426 152.595 405.974 151.909 406.707 151.82 407.439 151.731 408.125 152.28 408.214 153.012 408.926 159.775 404.626 164.66 396.722 166.045z" fill="#2c2d2e"/><path d="M420.72 218.12C420.682 218.127 420.605 218.14 420.567 218.147 419.828 218.198 419.18 217.642 419.123 216.865 418.51 207.527 417.997 196.282 417.598 183.444 417.051 166.616 416.869 152.992 416.842 152.839 416.843 152.17 417.329 151.573 417.984 151.498 422.389 150.805 426.174 149.945 429.218 148.9 435.567 146.726 437.364 144.404 437.864 143.214 438.196 142.408 438.17 141.586 437.755 140.793 436.427 138.153 426.758 137.328 414.527 140.296 413.808 140.462 413.065 140.041 412.894 139.284 412.728 138.565 413.149 137.822 413.906 137.65 424.783 135.037 437.64 134.517 440.218 139.575 440.995 141.092 441.04 142.697 440.41 144.264 439.223 147.148 435.795 149.598 430.145 151.493 427.208 152.48 423.697 153.331 419.605 154.008 419.654 157.66 419.866 169.429 420.344 183.395 420.775 196.189 421.282 207.396 421.887 216.696 421.893 217.403 421.407 218 420.72 218.12z" fill="#2c2d2e"/><path d="M293.397 395.601 284.287 359.466C283.849 358.046 282.476 351.749 280.485 337.921 278.495 324.094 291.638 317.513 298.458 315.952l95.224-24.688C425.921 281.799 495.609 261.345 516.446 255.247 537.283 249.148 544.873 257.978 546.063 263.155 557.227 301.564 580.154 381.645 582.555 394.697 585.556 411.012 579.972 416.587 577.466 418.983 575.46 420.899 492.529 449.627 451.314 463.751 429.615 471.657 379.49 488.812 352.588 494.184 325.686 499.556 317.035 488.512 316.072 482.318l-8.565-27.784L306.251 450.459 295.933 448.569 292.039 441.859 287.768 422.081 285.534 401.676 288.582 397.085 293.397 395.601z" fill="#fff"/><path d="M418.13 146.71C417.481 146.824 416.821 146.427 416.593 145.798 416.351 145.093 416.765 144.312 417.477 144.109 422.734 142.44 428.814 141.651 429.088 141.642 429.821 141.553 430.5 142.064 430.596 142.834 430.685 143.566 430.136 144.253 429.404 144.342 429.327 144.355 423.317 145.093 418.289 146.721 418.244 146.69 418.206 146.696 418.13 146.71z" fill="#2c2d2e"/><path d="M410.843 117.013S419.512 111.008 427.909 117.606C437.692 125.377 430.584 136.697 430.446 137.036 425.072 136.915 419.262 137.893 419.262 137.893 421.466 147.11 417.902 149.229 416.22 149.288 414.5 149.353 414.536 145.962 414.536 145.962 389.711 141.967 393.513 120.757 393.513 120.757 389.404 123.366 380.983 123.818 380.805 123.928 381.084 109.789 402.984 107.646 410.843 117.013z" fill="#2c2d2e"/><path d="M416.766 150.608C416.575 150.642 416.423 150.669 416.225 150.664 415.518 150.67 414.885 150.426 414.409 149.959 413.651 149.226 413.367 148.055 413.252 147.17 405.439 145.705 399.625 142.394 396.013 137.281 392.306 132.066 391.844 126.283 391.951 123.077 388.235 124.554 383.44 125.04 381.625 125.239 381.396 125.28 381.199 125.275 381.122 125.288 380.785 125.387 380.421 125.332 380.114 125.15 379.679 124.911 379.439 124.442 379.435 123.97 379.584 118.08 383.179 113.436 389.33 111.257 397 108.536 406.128 110.321 411.096 115.315 413.8 113.897 421.441 110.788 428.754 116.591 438.172 124.072 433.396 134.551 431.687 137.605L431.624 137.695C431.392 138.168 430.891 138.453 430.381 138.463 426.748 138.391 422.889 138.831 420.846 139.071 421.684 143.411 421.31 146.664 419.708 148.755 418.97 149.711 417.874 150.414 416.766 150.608zM416.26 147.942C416.489 147.902 417.055 147.763 417.604 147.077 418.31 146.166 419.272 143.794 417.945 138.241 417.84 137.866 417.933 137.495 418.153 137.181 418.374 136.867 418.691 136.654 419.073 136.587 419.302 136.547 424.47 135.721 429.664 135.716 431.515 132.125 434.248 124.366 427.115 118.689 419.622 112.76 411.737 118.076 411.667 118.128 411.11 118.54 410.3 118.407 409.856 117.894 405.833 113.128 397.252 111.325 390.281 113.766 387.574 114.713 383.145 117.063 382.309 122.404 384.894 122.109 390 121.372 392.802 119.622 393.265 119.344 393.858 119.358 394.3 119.635 394.749 119.95 394.957 120.464 394.891 120.987 394.866 121.07 393.543 129.016 398.295 135.701 401.635 140.389 407.198 143.39 414.811 144.614 415.462 144.737 415.951 145.281 415.957 145.988 415.893 146.747 416.047 147.625 416.26 147.942z" fill="#2c2d2e"/><path d="M437.71 178.504C432.511 183.429 425.403 186.209 418.968 183.4 418.426 166.375 418.219 152.834 418.219 152.834 422.929 152.088 426.707 151.19 429.675 150.158 428.028 161.427 430.194 170.65 433.642 170.558 437.446 170.482 438.645 169.013 440.212 167.4 441.793 165.864 444.318 172.191 437.71 178.504z" fill="#2c2d2e"/><path d="M427.233 185.651C424.217 186.18 421.213 185.88 418.443 184.672 417.976 184.479 417.653 183.984 417.643 183.474 417.096 166.647 416.914 153.023 416.887 152.87 416.888 152.201 417.374 151.604 418.029 151.528 422.434 150.836 426.219 149.976 429.263 148.931 429.708 148.774 430.2 148.885 430.565 149.175 430.931 149.465 431.094 149.949 431.06 150.427 429.739 159.513 430.997 166.692 432.862 168.805 433.152 169.109 433.421 169.298 433.657 169.296 436.639 169.246 437.644 168.243 438.977 166.868L439.312 166.534C439.881 165.962 440.593 165.759 441.334 165.944 442.241 166.178 442.95 167.078 443.292 168.356 443.931 170.881 443.101 175.355 438.719 179.547 435.094 182.897 431.128 184.969 427.233 185.651zm-6.928-3.155C425.47 184.347 431.567 182.531 436.797 177.561 440.275 174.276 440.696 171.29 440.7 170.187 440.696 169.716 440.667 169.327 440.582 169.066 439.148 170.538 437.54 171.921 433.66 172.011 432.914 172.023 431.848 171.777 430.781 170.626 428.233 167.766 427.171 160.357 428.06 152.172 425.587 152.881 422.75 153.535 419.574 154.052 419.641 157.582 419.855 168.919 420.305 182.496z" fill="#2c2d2e"/><path d="M485.878 393.293C485.076 393.433 484.299 393.491 483.592 393.496 482.846 393.509 482.229 392.909 482.217 392.163 482.204 391.417 482.805 390.801 483.55 390.788 488.374 390.691 498.237 387.232 510.396 364.755c23.014-42.521 27.797-65.319 18.191-87.132-10.327-23.458-41.371-35.101-50.637-38.122C473.067 237.917 462.844 233.922 451.98 229.646 438.969 224.565 422.831 218.261 420.637 218.095 420.224 218.206 419.444 218.697 418.601 219.278 415.248 221.479 408.966 225.609 396.256 224.726 384.192 223.927 380.286 218.708 377.708 215.224 376.729 213.9 375.962 212.893 375.073 212.537 371.525 211.151 340.415 213.964 333.095 215.088L332.331 215.222C320.301 217.093 308.876 218.149 306.758 213.247 305.62 210.573 303.55 208.417 296.305 210.867 293.369 211.853 291.285 211.864 289.734 210.876 287.96 209.731 287.489 207.491 287.287 205.441 287.216 204.587 286.952 201.957 282.609 202.325L282.373 202.327C278.112 202.719 276.585 201.412 274.744 192.25 273.329 185.295 254.259 172.814 245.102 166.823 242.213 164.928 240.124 163.562 239.161 162.786 236.267 160.42 223.761 159.344 216.415 159.647 215.669 159.66 215.021 159.104 215.008 158.359 214.996 157.613 215.551 156.965 216.297 156.952 222.235 156.699 236.707 157.313 240.884 160.714 241.712 161.395 243.89 162.824 246.601 164.592 260.692 173.813 275.908 184.293 277.41 191.743 278.26 195.923 279.032 198.307 279.824 199.231 280.268 199.744 280.631 199.798 282.141 199.652L282.376 199.65C286.758 199.276 289.598 201.336 290 205.202 290.188 207.176 290.566 208.212 291.226 208.608 291.982 209.105 293.415 208.972 295.462 208.299 298.099 207.404 306.095 204.744 309.286 212.174 309.494 212.689 310.794 214.271 318.268 214.025 323.123 213.883 328.642 213.034 331.971 212.491L332.734 212.357C337.33 211.631 371.302 208.081 376.116 209.953 377.721 210.578 378.746 211.933 379.932 213.536 382.348 216.772 385.686 221.225 396.476 221.933 408.305 222.734 413.845 219.088 417.16 216.893 418.434 216.08 419.347 215.448 420.308 215.319 421.995 215.063 429.532 217.875 453.017 227.024 463.835 231.269 474.059 235.263 478.858 236.824 488.412 239.912 520.352 251.949 531.133 276.429 541.129 299.118 536.338 322.548 512.847 365.939c-10.91 20.173-20.363 26.197-26.969 27.354z" fill="#2c2d2e"/><path d="M457.413 368.29C456.84 368.39 456.239 368.102 455.947 367.563 451.694 358.783 451.892 356.545 453.58 351.802 454.247 349.993 456.905 345.395 460.324 339.522 466.067 329.622 474.752 314.72 475.329 309.699 476.174 302.389 471.648 292.949 433.389 273.596 432.736 273.239 432.442 272.463 432.794 271.772 433.152 271.119 433.927 270.826 434.618 271.177c37.523 18.97 44.478 29.244 43.397 38.8C477.372 315.52 469.247 329.577 462.68 340.841 459.475 346.361 456.723 351.094 456.168 352.647 454.71 356.681 454.5 358.174 458.442 366.299 458.76 366.991 458.505 367.784 457.813 368.102 457.642 368.25 457.527 368.27 457.413 368.29z" fill="#2c2d2e"/><path d="M338.422 281.454C338.384 281.461 338.307 281.474 338.269 281.481 331.676 281.809 273.124 284.115 250.764 270.597c-24.961-15.109-56.287-65.429-56.571-65.93C191.098 199.581 190.048 195.16 189.913 186.525 189.901 185.78 190.501 185.163 191.247 185.151 191.992 185.138 192.609 185.738 192.622 186.484 192.753 194.647 193.639 198.585 196.508 203.277 196.792 203.778 227.736 253.496 252.172 268.303c21.663 13.129 79.462 10.798 85.979 10.483C338.89 278.735 339.545 279.329 339.558 280.074 339.595 280.737 339.071 281.34 338.422 281.454z" fill="#2c2d2e"/><path d="M328.656 310.635C328.427 310.675 328.147 310.646 327.936 310.564 327.258 310.29 326.882 309.49 327.156 308.812 329.229 303.569 339.517 276.697 340.451 260.909 340.477 260.157 341.122 259.572 341.881 259.635 342.633 259.661 343.18 260.313 343.155 261.065 342.218 277.287 331.761 304.542 329.695 309.823 329.495 310.252 329.076 310.561 328.656 310.635z" fill="#2c2d2e"/><path d="M476.638 401.209C475.76 401.363 473.927 401.684 461.906 391.471 458.113 388.239 450.466 381.432 449.953 380.301 448.168 376.403 454.215 368.457 456.127 366.115 456.385 365.794 456.747 365.612 457.142 365.622 457.531 365.593 457.914 365.762 458.159 366.034 464.151 372.383 480.529 389.271 484.196 391.109 484.542 391.284 484.787 391.556 484.892 391.931S484.942 392.67 484.76 392.978C484.038 394.245 480.266 400.573 476.638 401.209zm-24.267-22.158C453.073 379.912 457.974 384.525 463.622 389.36 473.474 397.749 475.845 398.475 476.208 398.529 477.76 398.179 480.12 395.247 481.731 392.76 476.14 388.702 461.664 373.685 457.273 369.062 454.328 372.923 451.868 377.526 452.371 379.051z" fill="#2c2d2e"/><path d="M436.038 439.489C435.045 439.663 434.189 439.498 433.548 438.981 432.637 438.275 432.27 437.08 432.517 435.344 430.732 436.837 428.811 438 427.387 437.738 426.532 437.573 425.922 437.011 425.57 436.128 424.423 432.944 427.033 428.748 429.839 424.321 431.65 421.406 433.525 418.402 433.965 416.2 434.612 412.702 434.49 410.204 434.276 408.982 434.206 409.034 434.136 409.086 434.06 409.099 429.608 411.768 424.628 414.568 421.676 413.669 420.801 413.389 420.152 412.834 419.776 412.034 418.388 409.05 423.422 404.311 434.011 394.664 439.647 389.544 446.068 383.736 450.202 378.801 450.694 378.243 451.541 378.134 452.1 378.626 452.658 379.119 452.767 379.965 452.275 380.524 448.008 385.6 441.524 391.498 435.818 396.669 432.086 400.078 428.55 403.255 425.984 405.909 422.553 409.461 422.244 410.618 422.252 410.892 422.304 410.961 422.349 410.993 422.477 411.049 424.553 411.669 430.673 407.961 432.702 406.739 433.844 406.067 434.161 405.854 434.466 405.801 434.994 405.669 435.569 405.804 435.993 406.202 437.495 407.592 437.39 412.609 436.646 416.675 436.14 419.4 434.108 422.629 432.17 425.723 430.012 429.132 427.622 433.013 428.091 435.017 429.179 434.709 432.065 432.314 434.395 429.663 434.818 429.156 435.588 429.06 436.12 429.4 436.697 429.771 436.9 430.483 436.65 431.078 434.837 435.331 435.172 436.571 435.251 436.794 435.531 436.823 436.722 436.654 438.951 435.004 439.439 434.643 440.147 434.637 440.609 435.029 440.84 435.224 441.237 435.47 442.007 435.374 445.349 434.907 451.026 428.442 453.797 424.493 454.207 423.91 454.964 423.738 455.572 424.064 456.18 424.391 456.428 425.134 456.147 425.774 455.403 427.597 454.506 430.784 454.98 431.921L454.987 431.959C456.135 431.325 459.338 427.813 464.22 420.188 468.883 412.878 472.98 405.037 475.163 399.302 475.431 398.586 476.2 398.255 476.916 398.523 477.632 398.791 477.963 399.559 477.695 400.275 475.349 406.432 470.831 415.016 465.841 422.699 457.32 435.841 455.133 435.043 454.206 434.694 453.446 434.394 452.835 433.832 452.504 433.063 452.238 432.441 452.155 431.747 452.136 430.963 449.377 434.083 445.627 437.613 442.368 438.105 441.444 438.228 440.596 438.101 439.828 437.763 438.383 438.724 437.107 439.302 436.038 439.489z" fill="#2c2d2e"/><path d="M435.618 431.928C435.236 431.995 434.828 431.909 434.507 431.65 433.91 431.164 433.839 430.311 434.332 429.752 438.938 424.144 443.416 416.906 444.057 414.944 444.287 414.234 445.042 413.827 445.758 414.095 446.467 414.325 446.875 415.08 446.607 415.796 445.779 418.263 441.042 425.822 436.367 431.482 436.216 431.744 435.924 431.874 435.618 431.928z" fill="#2c2d2e"/><path d="M439.979 437.5C439.559 437.574 439.105 437.457 438.771 437.122 438.244 436.584 438.25 435.717 438.787 435.19 445.002 429.104 450.596 418.797 450.659 418.707 451.016 418.054 451.836 417.792 452.489 418.15 453.142 418.508 453.404 419.328 453.046 419.981 452.808 420.416 447.183 430.768 440.696 437.099 440.5 437.33 440.246 437.454 439.979 437.5z" fill="#2c2d2e"/><path d="M455.083 426.669C454.778 426.722 454.452 426.661 454.145 426.479 453.485 426.083 453.3 425.249 453.703 424.628 454.337 423.533 455.06 422.265 455.38 421.619 455.587 421.228 456.239 420.012 457.404 420.595 457.878 420.827 458.432 421.517 458.006 422.457 457.981 422.54 457.918 422.63 457.848 422.682 457.817 422.727 457.785 422.772 457.761 422.855 457.403 423.508 456.732 424.845 456.027 425.992 455.82 426.382 455.465 426.602 455.083 426.669z" fill="#2c2d2e"/><path d="M294.461 397.618C293.774 397.739 293.107 397.305 292.91 396.631 292.108 393.623 287.947 377.507 283.275 357.349 280.479 345.205 278.765 336.769 280.692 330.016 282.778 322.606 289.164 317.945 301.389 314.938 310.929 312.559 329.129 307.718 350.223 302.095 382.407 293.506 422.445 282.794 445.497 277.34 446.216 277.174 446.965 277.633 447.13 278.352 447.296 279.071 446.836 279.821 446.118 279.986c-23.014 5.447-63.02 16.115-95.198 24.742C329.827 310.351 311.633 315.23 302.048 317.578 290.886 320.359 285.139 324.396 283.343 330.772 281.615 336.86 283.282 345.029 285.96 356.721 290.625 376.841 294.779 392.919 295.543 395.933 295.747 396.645 295.288 397.395 294.576 397.598 294.537 397.605 294.499 397.612 294.461 397.618z" fill="#2c2d2e"/><path d="M306.913 452.307C301.261 453.297 297.66 452.511 295.728 450.016 288.924 441.054 284.859 413.351 285.256 404.387 285.675 394.868 293.106 394.826 298.529 394.781 298.963 394.784 299.358 394.793 299.785 394.758 305.125 394.688 328.737 386.145 337.608 382.19 342.79 379.866 347.395 378.075 351.112 379.746 353.671 380.872 355.502 383.464 356.94 387.856 359.197 394.899 362.153 406.385 365.461 420.997 367.095 428.306 362.819 430.629 350.086 435.457 347.024 436.623 342.941 438.48 338.243 440.641 330.408 444.217 321.512 448.254 313.795 450.708 311.163 451.405 308.898 451.959 306.913 452.307zm-18.966-47.841C287.539 413.826 291.992 440.595 297.875 448.341 299.099 449.937 302.704 451.195 312.887 447.994 320.458 445.605 329.284 441.619 337.043 438.057 341.817 435.882 345.938 434.019 349.07 432.801 362.654 427.667 363.795 426.09 362.756 421.51 359.462 406.974 356.564 395.596 354.314 388.591 353.182 385.051 351.75 382.94 349.997 382.145 347.56 381.038 344.134 382.149 338.699 384.597 330.527 388.271 305.898 397.308 299.819 397.428 299.386 397.425 298.952 397.422 298.564 397.451 292.121 397.517 288.231 398.002 287.947 404.466z" fill="#2c2d2e"/><path d="M354.802 495.632C325.629 500.742 318.729 493.253 316.395 486.223 314.337 480.09 309.974 465.742 306.539 451.073 306.374 450.355 306.833 449.605 307.552 449.44S309.02 449.734 309.186 450.452C312.601 465.006 316.943 479.24 318.995 485.335 320.165 488.869 322.755 493.099 332.522 494.261 344.701 495.709 364.815 491.911 392.28 482.889 419.859 473.847 455.6 461.526 487.186 450.642c33.295-11.46 62.02-21.371 72.021-24.264C577.747 421.005 587.955 416.816 581.794 393.101 575.785 370.029 552.918 287.333 547.337 269.853 542.123 253.567 535.975 253.07 514.004 258.178 513.285 258.343 512.536 257.884 512.371 257.165 512.205 256.446 512.665 255.697 513.383 255.532 525.03 252.822 532.389 251.691 537.884 253.405 543.385 255.157 546.89 259.659 549.867 269.016 555.492 286.528 578.373 369.3 584.388 392.411 591.037 418.008 579.608 423.316 559.943 429.004 550.018 431.883 521.293 441.795 488.036 453.248c-31.547 10.878-67.327 23.205-94.944 32.254C377.271 490.673 364.768 493.887 354.802 495.632z" fill="#2c2d2e"/><path d="M341.476 421.576C335.978 422.539 330.728 418.854 329.765 413.356 328.802 407.857 332.487 402.607 337.985 401.644 343.484 400.681 348.734 404.366 349.697 409.865 350.66 415.363 346.975 420.613 341.476 421.576zM338.453 404.317C334.444 405.019 331.735 408.878 332.438 412.888 333.14 416.897 336.999 419.606 341.008 418.903 345.018 418.201 347.726 414.342 347.024 410.333 346.322 406.323 342.463 403.615 338.453 404.317z" fill="#2c2d2e"/><path d="M191.33 188.324C191.025 188.377 190.668 188.361 190.284 188.192 187.938 187.383 179.512 179.492 180.126 175.134 181.112 167.956 198.405 152.097 208.578 149.056 209.436 148.788 210.877 148.929 214.021 152.274 215.564 153.893 217.284 156.071 217.709 157.374 218.179 158.709 217.401 159.435 216.848 159.65c-2.572 1.041-21.065 22.187-24.428 27.932C192.207 187.934 191.827 188.237 191.33 188.324zm17.837-36.577C199.39 154.798 183.575 169.886 182.8 175.571 182.494 177.868 188.248 183.983 190.624 185.417 194.402 179.796 209.77 161.48 214.901 157.748 213.88 155.959 210.419 152.157 209.167 151.747z" fill="#2c2d2e"/><path d="M177.617 166.876C177.387 166.916 177.145 166.88 176.896 166.805 172.817 165.316 169.688 160.708 168.896 155.062 168.462 151.91 168.827 149.052 169.955 146.729 164.295 148.115 155.225 149.585 153.142 145.109 150.43 139.287 160.899 134.344 171.037 129.538 171.691 129.227 172.345 128.916 172.961 128.611 169.189 121.007 164.488 112.818 162.901 112.073 162.338 111.778 161.418 111.467 160.363 111.061 155.887 109.326 148.381 106.469 146.605 101.27 145.462 97.8893 145.908 94.82 147.799 93.0327 149.292 91.6692 151.399 91.3396 153.356 92.1775 154.334 92.5964 156.687 93.4438 159.461 94.4534c11.474 4.169 17.133 6.3656 18.355 7.7256C179.527 104.084 204.777 145.786 207.621 150.561 208.009 151.202 207.799 152.026 207.158 152.414 206.518 152.801 205.694 152.591 205.306 151.951c-11.139-18.435-28.208-46.458-29.495-47.964C174.629 102.856 163.78 98.8918 158.571 97.01 155.668 95.9441 153.361 95.1282 152.299 94.6845 151.321 94.2655 150.321 94.4013 149.645 95.0314 148.563 96.0473 148.363 98.0502 149.166 100.389 150.538 104.399 157.289 106.995 161.336 108.529 162.436 108.966 163.401 109.309 164.092 109.66 167.362 111.252 174.037 124.644 176.008 128.707 176.183 129.031 176.173 129.426 176.074 129.758 175.937 130.097 175.709 130.373 175.386 130.548 174.37 131.04 173.316 131.54 172.186 132.053 164.955 135.484 154.01 140.628 155.587 144.012 156.859 146.78 166.87 145.066 173.207 143.051 173.843 142.861 174.521 143.136 174.819 143.713 175.117 144.291 174.932 145.031 174.412 145.437 172.075 147.145 170.995 150.64 171.551 154.715 172.194 159.285 174.68 163.14 177.793 164.287 178.509 164.555 178.84 165.323 178.61 166.033 178.493 166.486 178.075 166.796 177.617 166.876z" fill="#2c2d2e"/><path d="M181.693 176.67C181.617 176.683 181.541 176.696 181.458 176.672 178.469 176.684 172.262 174.504 166.716 170.477 161.798 166.891 155.577 160.582 153.999 150.902 153.872 150.176 154.376 149.458 155.102 149.331 155.827 149.204 156.545 149.708 156.672 150.433 158.089 159.198 163.784 164.969 168.298 168.272 173.709 172.204 179.211 173.956 181.416 173.963 182.162 173.951 182.778 174.551 182.791 175.297 182.797 176.004 182.304 176.563 181.693 176.67z" fill="#2c2d2e"/><path d="M163.915 136.059C163.418 136.146 162.913 135.959 162.559 135.51 158.665 130.131 155.54 122.847 158.314 118.464 159.523 116.6 162.254 114.665 168.656 115.945 169.391 116.092 169.868 116.795 169.721 117.529 169.574 118.263 168.871 118.741 168.137 118.594 165.442 118.042 161.942 117.829 160.614 119.911 158.978 122.481 160.657 128.247 164.758 133.905 165.177 134.5 165.05 135.349 164.461 135.806 164.29 135.954 164.106 136.026 163.915 136.059z" fill="#2c2d2e"/><path d="M156.365 141.042C155.945 141.116 155.447 140.967 155.151 140.625 151.28 136.502 148.217 129.797 150.221 125.51 151.047 123.712 153.089 121.662 158.139 121.959 158.891 121.984 159.439 122.636 159.413 123.388 159.387 124.141 158.735 124.688 157.983 124.662 155.158 124.488 153.386 125.153 152.665 126.656 151.294 129.612 153.864 135.301 157.105 138.748 157.632 139.285 157.588 140.159 157.044 140.648 156.887 140.872 156.633 140.995 156.365 141.042z" fill="#2c2d2e"/><path d="M160.137 152.464C157.693 152.892 154.424 152.205 150.681 150.381 145.389 147.806 141.921 141.486 143.272 136.842 143.743 135.264 145.479 131.693 151.827 132.431 152.586 132.495 153.101 133.192 153.038 133.951 152.935 134.716 152.277 135.225 151.518 135.162 149.349 134.912 146.591 135.119 145.853 137.649 144.967 140.677 147.406 145.839 151.834 147.976 156.825 150.407 159.895 150.184 160.99 149.245 161.541 148.794 161.681 148.022 161.393 147.049 161.189 146.337 161.61 145.594 162.322 145.391 163.034 145.187 163.777 145.608 163.98 146.32 164.532 148.349 164.063 150.163 162.696 151.347 162.082 151.887 161.206 152.277 160.137 152.464z" fill="#2c2d2e"/><path d="M305.695 381.089C305.007 381.209 304.303 380.782 304.137 380.063 303.537 377.531 302.904 375.045 302.279 372.596L301.785 370.676C301.619 369.957 302.04 369.214 302.759 369.049 303.478 368.883 304.221 369.304 304.386 370.023L304.88 371.944C305.506 374.392 306.138 376.879 306.745 379.449 306.911 380.168 306.49 380.91 305.733 381.082 305.771 381.076 305.733 381.082 305.695 381.089zm-4.56-18.84C300.41 362.376 299.737 361.904 299.571 361.185 299.207 359.556 298.908 358.074 298.668 356.699 298.333 354.79 298.115 353.097 297.949 351.473 297.86 350.741 298.409 350.054 299.186 349.997 299.918 349.908 300.605 350.457 300.662 351.234 300.815 352.781 301.02 354.398 301.341 356.231 301.575 357.567 301.867 359.012 302.193 360.647 302.358 361.366 301.899 362.115 301.135 362.249c0 0 .0380000000000109-.007000000000005.0.0zM299.983 343.088C299.792 343.121 299.595 343.117 299.428 343.067 298.688 342.882 298.28 342.127 298.472 341.424 299.126 338.869 300.288 336.738 301.886 335.08 302.55 334.374 303.449 333.665 304.507 332.968 305.141 332.542 305.965 332.752 306.384 333.348 306.81 333.981 306.6 334.805 306.005 335.225 305.124 335.812 304.395 336.372 303.826 336.944 302.531 338.312 301.608 340.009 301.071 342.11 300.922 342.608 300.479 343.001 299.983 343.088zm14.261-11.825C313.595 331.376 312.981 331.012 312.752 330.383 312.511 329.677 312.848 328.91 313.547 328.63 316.248 327.645 319.413 326.618 322.897 325.615 323.61 325.411 324.352 325.832 324.556 326.544 324.759 327.256 324.338 327.999 323.626 328.202 320.212 329.155 317.123 330.168 314.498 331.139 314.397 331.236 314.321 331.249 314.244 331.263zM332.906 325.908C332.219 326.028 331.514 325.601 331.349 324.882 331.183 324.163 331.642 323.414 332.361 323.249 336.897 322.179 340.549 321.46 341.924 321.219L341.962 321.213C342.687 321.086 343.399 321.551 343.526 322.277 343.653 323.002 343.187 323.714 342.468 323.879 341.138 324.151 337.518 324.825 333.02 325.888 332.944 325.901 332.906 325.908 332.906 325.908z" fill="#2c2d2e"/><path d="M523.75 422.119C523.062 422.24 522.403 421.844 522.206 421.17 522.002 420.457 522.417 419.677 523.129 419.473 526.269 418.529 529.372 417.592 532.391 416.631 533.097 416.389 533.878 416.803 534.081 417.515 534.323 418.221 533.908 419.002 533.196 419.205 530.177 420.167 527.036 421.111 523.896 422.054 523.858 422.061 523.826 422.106 523.75 422.119zM542.286 416.275C541.637 416.389 540.984 416.031 540.749 415.364 540.507 414.658 540.883 413.884 541.589 413.642 545.008 412.492 548.084 411.403 550.701 410.393 551.4 410.113 552.174 410.489 552.454 411.188 552.734 411.887 552.358 412.661 551.659 412.941 549.003 413.957 545.928 415.047 542.47 416.203 542.439 416.248 542.362 416.262 542.286 416.275zM560.366 409.173C559.793 409.273 559.236 409.016 558.945 408.477 558.596 407.83 558.844 406.999 559.491 406.65 559.96 406.41 560.385 406.139 560.74 405.919 562.864 404.563 564.086 402.775 564.594 400.285 564.741 399.551 565.445 399.074 566.179 399.221 566.913 399.368 567.39 400.071 567.243 400.805 566.595 404.067 564.97 406.477 562.206 408.221 561.781 408.492 561.318 408.77 560.779 409.061 560.626 409.088 560.48 409.153 560.366 409.173zM565.745 392.252C565.02 392.379 564.309 391.913 564.175 391.15 563.695 388.636 562.963 385.577 561.919 381.863 561.715 381.151 562.136 380.408 562.848 380.205 563.56 380.001 564.303 380.422 564.506 381.135 565.564 384.924 566.348 388.053 566.81 390.688 566.975 391.407 566.509 392.118 565.745 392.252zM560.658 373.544C560.009 373.658 559.349 373.261 559.121 372.632 558.238 369.835 557.276 366.816 556.242 363.612L556.171 363.428C555.929 362.723 556.343 361.942 557.056 361.738 557.761 361.497 558.542 361.911 558.745 362.623L558.817 362.807C559.85 366.011 560.812 369.03 561.702 371.865 561.944 372.571 561.53 373.352 560.818 373.555 560.773 373.524 560.735 373.53 560.658 373.544z" fill="#2c2d2e"/><path d="M360.881 477.762C357.247 478.359 353.968 478.737 351.082 478.888 350.343 478.939 349.688 478.345 349.676 477.6 349.625 476.861 350.219 476.206 350.964 476.193 353.735 476.062 356.9 475.705 360.42 475.127 361.145 475 361.863 475.504 361.99 476.23 362.111 476.917 361.607 477.635 360.881 477.762zM370.336 475.791C369.648 475.912 368.944 475.484 368.778 474.765 368.613 474.047 369.072 473.297 369.791 473.132 371.871 472.649 374.091 472.064 376.424 471.458 377.137 471.255 377.886 471.714 378.09 472.426 378.293 473.138 377.834 473.888 377.122 474.091 374.794 474.735 372.53 475.289 370.412 475.778 370.412 475.778 370.374 475.785 370.336 475.791zM341.656 478.099C341.465 478.133 341.267 478.128 341.101 478.078 337.314 477.128 334.444 475.348 332.312 472.612 331.855 472.023 331.943 471.181 332.532 470.724S333.963 470.355 334.421 470.944C336.185 473.154 338.568 474.626 341.742 475.447 342.483 475.632 342.929 476.381 342.737 477.083 342.595 477.62 342.152 478.012 341.656 478.099zm-12.013-13.756C328.956 464.463 328.29 464.029 328.093 463.355 327.514 461.174 327.03 458.858 326.519 456.389 326.333 455.556 326.18 454.678 325.988 453.806 325.822 453.087 326.281 452.338 327.045 452.204 327.764 452.039 328.513 452.498 328.647 453.262 328.839 454.133 328.993 455.011 329.178 455.845 329.683 458.275 330.16 460.553 330.688 462.664 330.891 463.377 330.432 464.126 329.72 464.329 329.72 464.329 329.682 464.336 329.643 464.343z" fill="#2c2d2e"/><path d="M558.076 397.565S543.306 407.412 527.684 407.761C525.358 457.923 552.222 463.777 552.222 463.777S579.552 464.397 586.065 414.738C570.791 410.707 558.076 397.565 558.076 397.565z" fill="#fff"/><path d="M552.261 465.095C552.222 465.095 552.183 465.095 552.183 465.095 552.106 465.095 552.028 465.095 551.912 465.056 551.602 464.979 544.663 463.389 538.034 455.403 532.025 448.154 525.125 434.005 526.327 407.644 526.365 406.946 526.947 406.365 527.645 406.365 542.686 406.055 557.184 396.518 557.3 396.402 557.843 396.053 558.58 396.131 559.045 396.596 559.161 396.712 571.721 409.505 586.375 413.381 587.034 413.537 587.46 414.196 587.383 414.855 584.63 435.827 577.963 450.635 567.535 458.892 559.975 464.901 553.153 465.095 552.261 465.095zM528.963 409.04C528.032 433.733 534.467 446.914 540.089 453.698 545.671 460.404 551.408 462.149 552.338 462.381 553.269 462.343 559.355 461.994 565.984 456.644 572.574 451.333 581.103 439.936 584.514 415.669 571.605 411.87 560.828 402.101 557.882 399.232 554.432 401.403 542.259 408.342 528.963 409.04z" fill="#2c2d2e"/><path d="M539.468 429.624C539.313 431.059 548.772 441.022 551.214 442.301 553.618 443.619 574.784 426.523 574.939 424.236 575.094 421.949 571.411 419.196 570.287 420.088 569.163 420.98 554.587 434.47 552.726 433.734 550.865 432.997 546.524 425.166 545.128 424.856 543.771 424.624 539.778 426.988 539.468 429.624z" fill="#ffd400"/><path d="M551.563 442.998C551.292 442.998 551.098 442.921 550.943 442.843 548.888 441.719 538.693 431.562 538.887 429.585 539.042 428.229 540.05 426.794 541.639 425.631 542.647 424.895 544.237 424.119 545.244 424.313 546.097 424.507 547.183 425.98 549.082 428.616 550.439 430.477 552.106 432.842 552.881 433.191 554.044 433.191 559.161 429.159 568.077 421.212 569.008 420.359 569.628 419.816 569.861 419.661 570.403 419.235 571.295 419.274 572.264 419.778 573.892 420.63 575.559 422.569 575.443 424.274 575.288 426.717 560.518 438.501 554.587 441.797 553.036 442.727 552.106 442.998 551.563 442.998zM540.05 429.663C540.282 431.136 549.121 440.517 551.486 441.797 551.486 441.797 552.067 441.952 554.742 440.401 562.108 436.059 574.047 425.709 574.357 424.197 574.435 422.995 573.078 421.483 571.799 420.786 571.14 420.437 570.752 420.437 570.636 420.553 570.442 420.708 569.822 421.289 568.93 422.065 556.797 432.842 553.657 434.741 552.532 434.276 551.486 433.85 550.129 432.028 548.191 429.275 547.144 427.802 545.555 425.592 545.051 425.437 544.702 425.36 543.616 425.67 542.337 426.562 541.019 427.492 540.205 428.655 540.05 429.663z" fill="#ffd400"/><path d="M778.051 278.016C787.772 260.91 782.481 239.557 766.232 230.323 749.983 221.088 728.929 227.47 719.208 244.576S714.778 283.035 731.027 292.269C747.276 301.504 768.33 295.122 778.051 278.016z" fill="#ffd400"/><path d="M760.557 266.884C761.207 268.904 761.262 270.691 760.79 272.203 760.322 273.751 759.223 275.07 757.465 276.234L759.13 281.53C759.178 281.669 759.156 281.815 759.098 281.963 759.04 282.112 758.904 282.196 758.765 282.244L751.798 284.456C751.659 284.504 751.513 284.481 751.365 284.423 751.216 284.365 751.132 284.229 751.084 284.09L749.616 279.385C748.288 279.757 747.092 280.009 745.964 280.22 745.822 280.233 745.677 280.21 745.56 280.113 745.444 280.016 745.328 279.919 745.276 279.745L744.031 273.944C743.979 273.769 744.037 273.621 744.131 273.469 744.225 273.317 744.399 273.265 744.577 273.249 745.039 273.207 745.501 273.165 745.96 273.087 746.419 273.01 747.056 272.916 747.796 272.777 748.536 272.638 749.237 272.466 749.828 272.269 750.491 272.066 751.04 271.801 751.476 271.474 751.877 271.151 752.132 270.805 752.245 270.472 752.358 270.139 752.404 269.849 752.417 269.596 752.429 269.344 752.41 269.131 752.358 268.957 752.303 268.747 752.181 268.579 752.054 268.375 751.893 268.175 751.657 267.945 751.343 267.651 750.994 267.36 750.51 267.154 749.886 266.995 749.227 266.84 748.47 266.802 747.65 266.84 746.69 266.928 745.714 266.837 744.725 266.605 743.736 266.372 742.77 265.994 741.826 265.471 740.882 264.947 740.026 264.201 739.218 263.199 738.445 262.194 737.841 261.067 737.398 259.745 736.8 257.9 736.787 256.18 737.326 254.626 737.866 253.071 738.926 251.72 740.503 250.538L738.789 245.102C738.741 244.963 738.76 244.782 738.818 244.634 738.876 244.485 739.012 244.401 739.151 244.352L746.118 242.141C746.257 242.093 746.438 242.112 746.587 242.17 746.739 242.264 746.855 242.361 746.871 242.539L748.339 247.244C749.599 246.914 750.863 246.62 752.13 246.361 752.272 246.348 752.417 246.371 752.569 246.464 752.721 246.558 752.802 246.658 752.818 246.836L754.063 252.637C754.079 252.814 754.056 252.96 753.963 253.112 753.869 253.264 753.733 253.348 753.556 253.364 751.494 253.551 749.661 253.897 748.055 254.366 747.393 254.57 746.84 254.799 746.443 255.158 746.042 255.481 745.751 255.83 745.642 256.199 745.532 256.567 745.486 256.858 745.47 257.075 745.457 257.327 745.477 257.54 745.529 257.714 745.58 257.889 745.671 258.096 745.832 258.296 745.994 258.496 746.23 258.726 746.579 259.017 746.925 259.272 747.413 259.514 748.072 259.669 748.731 259.824 749.488 259.863 750.308 259.824 751.271 259.772 752.247 259.863 753.236 260.095 754.225 260.328 755.192 260.706 756.135 261.229 757.079 261.753 757.939 262.535 758.708 263.504 759.545 264.431 760.149 265.559 760.557 266.884z" fill="#2c2d2e"/><path d="M751.704 285.001C751.491 285.021 751.307 284.966 751.084 284.879 750.819 284.724 750.621 284.527 750.521 284.213L749.205 279.996C748.049 280.28 746.995 280.52 746.009 280.717 745.728 280.778 745.47 280.694 745.205 280.539 744.975 280.381 744.81 280.145 744.717 279.903L744.713 279.867 743.469 274.067C743.401 273.714 743.482 273.42 743.672 273.152 743.863 272.884 744.137 272.751 744.493 272.719 744.92 272.68 745.382 272.638 745.876 272.557 746.335 272.479 746.936 272.389 747.676 272.25S749.082 271.943 749.673 271.746C750.303 271.581 750.782 271.322 751.15 271.038 751.486 270.792 751.677 270.524 751.764 270.301 751.845 270.007 751.893 269.751 751.912 269.57 751.932 269.389 751.919 269.247 751.87 269.108 751.822 268.969 751.738 268.834 751.615 268.666 751.534 268.565 751.334 268.333 750.985 268.042 750.713 267.816 750.303 267.638 749.718 267.512 749.133 267.386 748.412 267.344 747.627 267.38 746.596 267.474 745.581 267.351 744.521 267.125 743.494 266.86 742.456 266.488 741.474 265.933 740.456 265.38 739.522 264.569 738.711 263.532 737.899 262.495 737.25 261.263 736.803 259.906 736.196 257.954 736.173 256.129 736.738 254.464 737.278 252.91 738.299 251.526 739.805 250.35L738.198 245.299C738.101 245.021 738.146 244.73 738.266 244.469 738.382 244.171 738.615 243.971 738.928 243.871L745.895 241.659C746.173 241.562 746.5 241.604 746.761 241.724 747.026 241.879 747.227 242.112 747.324 242.39L748.639 246.607C749.761 246.325 750.85 246.083 751.974 245.837 752.256 245.776 752.514 245.86 752.776 245.979 753.041 246.134 753.245 246.403 753.309 246.719L754.518 252.523C754.583 252.84 754.502 253.134 754.312 253.402 754.121 253.67 753.814 253.842 753.494 253.871 751.468 254.055 749.671 254.398 748.136 254.86 747.542 255.022 747.06 255.245 746.692 255.529 746.356 255.775 746.165 256.043 746.081 256.302 746 256.596 745.916 256.855 745.933 257.032 745.913 257.213 745.926 257.355 745.975 257.494 746.017 257.562 746.065 257.701 746.191 257.905 746.272 258.005 746.434 258.205 746.821 258.528 747.093 258.755 747.539 258.929 748.088 259.058 748.673 259.184 749.394 259.226 750.179 259.191 751.178 259.136 752.225 259.219 753.252 259.484 754.277 259.714 755.318 260.121 756.3 260.676 757.318 261.229 758.217 262.043 759.063 263.077 759.875 264.115 760.521 265.31 760.932 266.671 761.591 268.797 761.691 270.687 761.158 272.313 760.69 273.861 759.598 275.251 757.982 276.401L759.54 281.313C759.637 281.591 759.592 281.882 759.473 282.144 759.318 282.409 759.12 282.606 758.807 282.706L751.84 284.917C751.882 284.985 751.811 284.992 751.704 285.001zM749.567 278.852C749.816 278.829 750.046 278.988 750.139 279.23L751.607 283.935 751.646 283.967 758.649 281.753 758.681 281.714 757.016 276.418C756.958 276.172 757.045 275.949 757.213 275.826 758.835 274.747 759.866 273.47 760.312 272.068 760.754 270.629 760.673 268.952 760.072 267.071 759.671 265.818 759.106 264.722 758.378 263.821 757.648 262.884 756.83 262.169 755.961 261.675 755.056 261.184 754.125 260.803 753.175 260.602 752.225 260.402 751.32 260.305 750.393 260.354 749.501 260.399 748.709 260.364 747.975 260.18 747.242 259.996 746.683 259.76 746.259 259.44 745.871 259.117 745.597 258.855 745.432 258.619 745.228 258.351 745.138 258.144 745.044 257.902 744.95 257.659 744.924 257.375 744.934 257.087 744.944 256.8 745.021 256.47 745.128 256.066 745.267 255.623 745.587 255.2 746.087 254.796 746.556 254.431 747.173 254.124 747.871 253.917 749.477 253.448 751.345 253.099 753.442 252.908 753.475 252.869 753.471 252.834 753.471 252.834L752.265 247.065C752.227 247.033 752.227 247.033 752.191 247.036 750.96 247.292 749.696 247.586 748.472 247.912 748.19 247.974 747.925 247.819 747.828 247.541L746.361 242.836S746.357 242.8 746.322 242.803C746.283 242.771 746.283 242.771 746.286 242.807L739.319 245.018C739.287 245.057 739.287 245.057 739.29 245.092L741.004 250.528C741.059 250.738 741.01 250.993 740.806 251.119 739.33 252.221 738.302 253.533 737.824 254.975 737.31 256.419 737.349 258.029 737.899 259.735 738.3 260.989 738.865 262.084 739.596 263.021 740.326 263.958 741.144 264.672 742.049 265.164 742.954 265.655 743.885 266.036 744.802 266.275 745.72 266.514 746.657 266.572 747.585 266.523 748.477 266.478 749.304 266.51 750.002 266.698 750.736 266.882 751.295 267.118 751.683 267.441 752.035 267.767 752.31 268.029 752.51 268.261 752.678 268.533 752.843 268.769 752.901 269.014 752.959 269.26 753.018 269.506 753.011 269.829 753.002 270.116 752.924 270.446 752.817 270.85 752.679 271.293 752.359 271.716 751.858 272.12 751.389 272.485 750.772 272.792 750.038 273.003 749.412 273.203 748.71 273.374 747.935 273.517 747.159 273.659 746.558 273.749 746.064 273.83 745.569 273.911 745.107 273.953 744.645 273.995L744.609 273.999S744.609 273.999 744.613 274.034L745.819 279.802C745.822 279.838 745.857 279.835 745.861 279.87 746.956 279.699 748.184 279.408 749.48 279.075 749.496 278.858 749.532 278.855 749.567 278.852z" fill="#2c2d2e"/><path d="M707.069 320.881C708.945 318.572 767.405 323.134 769.355 325.46 771.306 327.786 770.285 338.319 766.583 338.431 762.851 338.501 707.559 334.937 706.286 333.367 705.013 331.796 705.685 322.581 707.069 320.881z" fill="#f8f8f8"/><path d="M709.054 335.313C705.774 334.804 705.5 334.472 705.292 334.187 703.601 332.046 704.448 322.172 706.069 320.112 706.555 319.537 707.354 319.047 712.741 319.016 719.794 318.956 733.259 319.71 746.229 320.857 768.781 322.878 769.875 324.204 770.309 324.668 772.17 326.872 771.841 333.178 770.295 336.623 769.149 339.118 767.653 339.68 766.603 339.698 764.679 339.76 749.898 338.874 735.402 337.779 720.119 336.634 712.723 335.883 709.054 335.313zM707.156 332.418C708.846 332.933 717.325 333.924 736.572 335.36 750.569 336.413 764.744 337.242 766.522 337.193 766.992 337.193 767.554 336.594 768.001 335.58 769.381 332.507 769.274 327.614 768.456 326.367 766.81 325.57 755.243 323.99 738.286 322.694 720.83 321.356 709.79 321.268 707.936 321.81 706.997 323.435 706.474 330.759 707.156 332.418z" fill="#2c2d2e"/><path d="M706.175 308.027C708.015 305.712 766.53 309.921 768.516 312.253 770.502 314.584 770.139 323.666 766.437 323.778 762.7 323.884 706.771 322.099 705.498 320.529 704.225 318.958 704.826 309.732 706.175 308.027z" fill="#f8f8f8"/><path d="M707.113 322.225C704.961 321.89 704.718 321.6 704.503 321.35 702.778 319.203 703.589 309.324 705.204 307.299 705.696 306.689 706.454 306.228 711.847 306.163 718.905 306.067 732.351 306.71 745.327 307.821 767.901 309.701 768.995 311.027 769.429 311.492 771.171 313.532 771.443 318.993 769.959 322.266 768.906 324.631 767.291 325.03 766.417 325.075 764.493 325.138 749.317 324.696 734.927 324.087 717.571 323.27 710.252 322.712 707.113 322.225zM706.368 319.58C711.082 320.854 761.079 322.693 766.377 322.541 766.993 322.528 767.466 321.807 767.736 321.234 768.841 318.769 768.6 314.505 767.646 313.201 766 312.404 754.422 310.895 737.449 309.705 719.977 308.473 708.932 308.419 707.072 308.997 706.139 310.586 705.662 317.845 706.368 319.58z" fill="#2c2d2e"/><path d="M712.012 294.629C713.852 292.314 773.452 298.606 775.438 300.937 777.424 303.269 776.416 312.323 772.679 312.429 768.942 312.535 712.573 308.695 711.3 307.125 710.062 305.56 710.663 296.334 712.012 294.629z" fill="#f8f8f8"/><path d="M714.214 309.059C710.864 308.538 710.555 308.201 710.346 307.916 708.62 305.77 709.432 295.89 711.047 293.865 711.539 293.255 712.381 292.952 715.602 292.911 722.625 292.809 737.916 294.136 749.985 295.504 756.731 296.263 762.925 297.08 767.399 297.811 775.436 299.095 775.953 299.717 776.351 300.176 778.118 302.293 777.929 307.465 776.549 310.538 775.661 312.531 774.295 313.655 772.663 313.691 770.593 313.767 754.859 312.733 740.939 311.655 725.486 310.447 717.953 309.639 714.214 309.059zM712.21 306.147C713.9 306.662 722.515 307.71 742.185 309.212 756.535 310.32 770.957 311.187 772.659 311.162 773.457 311.141 774.055 310.078 774.33 309.471 775.487 306.905 775.403 303.027 774.544 301.81 772.939 300.983 761.134 299.077 743.82 297.292 725.83 295.438 714.804 295.026 712.879 295.558 711.97 297.223 711.529 304.487 712.21 306.147z" fill="#2c2d2e"/><g clip-path="url(#clip0_1_32644)"><path d="M113.602 175.462C113.472 175.263 113.355 175.058 113.235 174.851 112.924 174.312 112.624 173.767 112.332 173.218 112.075 172.739 111.831 172.252 111.59 171.765 111.402 171.383 111.2 171.001 111.044 170.602L111.046 170.601C110.857 169.998 110.639 169.404 110.389 168.824 110.262 168.529 110.078 168.26 109.848 168.036 109.529 167.744 109.125 167.564 108.695 167.52 108.003 167.482 107.312 167.632 106.697 167.955 106.58 168.006 106.464 168.061 106.351 168.12L106.352 168.122C105.868 168.383 105.399 168.671 104.945 168.985 104.702 169.147 104.462 169.311 104.22 169.473 103.879 169.697 103.523 169.899 103.171 170.108 102.234 170.665 101.287 171.206 100.333 171.735 98.3543 172.832 96.3378 173.856 94.2722 174.784 94.116 174.856 93.9811 174.964 93.8772 175.102 93.0826 175.447 92.2926 175.8 91.5073 176.163 90.6995 176.539 89.9048 176.945 89.0869 177.306 88.269 177.667 87.4488 177.993 86.6419 178.363 86.4471 178.452 86.2559 178.544 86.0676 178.641 85.4514 178.962 84.8584 179.327 84.294 179.73 84.1751 179.825 84.0819 179.949 84.0251 180.089 83.4342 180.27 82.8593 180.503 82.3122 180.785 81.0505 181.458 79.8609 182.252 78.7594 183.159 77.9103 183.825 77.119 184.559 76.2882 185.243 75.4234 185.953 74.5274 186.625 73.6627 187.335L73.6609 187.336C72.6894 188.108 71.7869 188.966 70.962 189.894 70.575 190.333 70.2254 190.804 69.9204 191.305 69.7749 191.564 69.6429 191.832 69.5283 192.107 69.4094 192.405 69.3241 192.715 69.2786 193.032 69.1973 193.583 69.258 194.144 69.45 194.666 69.6958 195.366 70.0055 196.044 70.3761 196.687 70.6555 197.193 70.9573 197.689 71.2232 198.204 71.4707 198.683 71.614 199.215 71.8839 199.681 72.056 200.001 72.3151 200.264 72.6308 200.445 73.0325 200.642 73.4764 200.744 73.9243 200.745 74.8607 200.74 75.7804 200.506 76.6045 200.064 77.4753 199.612 78.3074 199.089 79.0906 198.498 79.7956 197.998 80.4813 197.473 81.1854 196.971 81.3642 197.59 81.4845 198.223 81.6454 198.847 81.8995 199.831 82.1788 200.812 82.4526 201.791 82.9795 203.673 83.5244 205.55 84.072 207.429 85.1597 211.166 86.2944 214.894 87.5268 218.586 87.791 219.379 88.0641 220.167 88.322 220.961L88.3238 220.96C88.5621 221.769 88.883 222.553 89.2793 223.298 89.6706 224.003 90.2311 224.6 90.9096 225.033 91.2191 225.219 91.5496 225.362 91.8941 225.461 92.302 225.577 92.7228 225.649 93.1467 225.673 93.866 225.71 94.5869 225.667 95.2987 225.545 96.0232 225.43 96.7418 225.277 97.4491 225.084 99.2189 224.595 100.939 223.94 102.588 223.129 104.236 222.351 105.831 221.466 107.429 220.592 108.181 220.181 108.936 219.773 109.696 219.376 110.466 218.974 111.252 218.604 112.043 218.239 113.623 217.506 115.213 216.792 116.72 215.916L116.718 215.917C117.45 215.491 118.151 215.017 118.82 214.499 119.397 214.09 119.885 213.57 120.255 212.967 120.393 212.728 120.494 212.471 120.553 212.202 120.59 212.04 120.615 211.874 120.631 211.707 120.637 211.538 120.629 211.369 120.608 211.2 120.532 210.64 120.371 210.094 120.131 209.581 119.883 208.964 119.623 208.355 119.384 207.735 119.022 206.788 118.655 205.844 118.284 204.902 116.853 201.262 115.356 197.649 113.755 194.081 113.189 192.817 112.602 191.563 112.01 190.31 111.417 189.058 110.844 187.811 110.368 186.516 110.164 185.923 109.98 185.325 109.828 184.715 109.752 184.414 109.627 184.128 109.545 183.832 109.562 183.816 109.578 183.804 109.596 183.79 109.966 183.574 110.354 183.392 110.757 183.249 111.474 183.004 112.201 182.796 112.919 182.555 113.307 182.43 113.686 182.284 114.057 182.117 114.184 182.056 114.308 181.988 114.427 181.91 114.556 181.825 114.692 181.75 114.831 181.685 115.106 181.602 115.357 181.455 115.563 181.255 115.877 180.918 116.059 180.478 116.074 180.018 116.055 179.422 115.881 178.839 115.568 178.33 115.239 177.746 114.874 177.184 114.472 176.649 114.186 176.249 113.889 175.859 113.602 175.462zM87.1696 181.083 87.1695 181.074C87.1709 180.975 87.1624 180.879 87.1404 180.784L87.1431 180.78C87.8427 180.423 88.5782 180.114 89.2885 179.813 89.6558 179.657 90.0213 179.503 90.384 179.342 90.8222 179.148 91.2636 178.934 91.6899 178.729L91.7258 178.711C92.0201 178.568 92.3126 178.426 92.6069 178.287 92.9992 178.105 93.3932 177.927 93.7954 177.751L93.799 177.749C93.8696 177.899 93.9347 178.042 93.9889 178.178L93.9871 178.179C94.086 178.489 94.1543 178.806 94.1938 179.129 94.2027 179.397 94.19 179.663 94.1537 179.927 94.0956 180.179 94.0167 180.427 93.9151 180.666 93.7786 180.929 93.6185 181.178 93.4373 181.413 93.189 181.689 92.9142 181.94 92.6183 182.163 92.4446 182.275 92.2662 182.379 92.0868 182.472 91.9074 182.564 91.71 182.653 91.5087 182.734 91.1283 182.855 90.7366 182.937 90.3399 182.983 90.024 182.996 89.7086 182.98 89.3947 182.935 89.1402 182.878 88.8935 182.801 88.6529 182.7 88.4402 182.592 88.2371 182.463 88.0465 182.318 87.8582 182.147 87.686 181.959 87.5298 181.758 87.3933 181.542 87.272 181.316 87.1696 181.082V181.083zM83.4926 182.868 83.4943 182.863C83.7868 182.716 84.0831 182.586 84.3678 182.473L84.3696 182.472C84.5755 182.404 84.7879 182.349 85.0014 182.305 85.0338 182.297 85.068 182.293 85.1014 182.287 85.3084 182.719 85.5675 183.124 85.8731 183.491 86.4345 184.16 87.1574 184.675 87.9715 184.988 88.3664 185.141 88.7786 185.244 89.1975 185.303 89.5468 185.359 89.9019 185.377 90.2547 185.356 90.6888 185.339 91.1188 185.283 91.5429 185.189 91.9704 185.084 92.3867 184.944 92.7907 184.767 92.9326 184.707 93.0735 184.641 93.2098 184.571 93.7587 184.283 94.2687 183.924 94.7228 183.501 95.0367 183.202 95.3213 182.873 95.5731 182.52 95.8195 182.166 96.0231 181.786 96.1849 181.386 96.5217 180.56 96.6444 179.663 96.5406 178.776 96.4605 178.04 96.2514 177.323 95.9239 176.658L95.922 176.654C96.2263 176.513 96.5306 176.372 96.8393 176.23L96.9264 176.188 96.93 176.186C96.9494 176.29 96.9832 176.39 97.027 176.488 97.1292 176.712 97.2188 176.93 97.2973 177.13L97.2991 177.129C97.5296 177.835 97.6855 178.564 97.7576 179.301 97.7936 179.978 97.7583 180.658 97.6542 181.327 97.5345 181.905 97.3577 182.469 97.1238 183.01 96.8933 183.475 96.6183 183.915 96.3012 184.321 95.9782 184.681 95.6204 185.009 95.2332 185.298 95.0469 185.417 94.8471 185.532 94.6408 185.638L94.6399 185.641C94.3197 185.804 93.9902 185.949 93.6515 186.077 92.8504 186.347 92.0211 186.528 91.1807 186.617 90.4597 186.66 89.7386 186.623 89.0255 186.51 88.3636 186.372 87.7161 186.166 87.0949 185.896 86.4168 185.56 85.7766 185.152 85.1853 184.68 84.5613 184.137 83.9935 183.53 83.4935 182.87L83.4926 182.868zM114.59 202.076C115.196 203.552 115.849 205.191 116.587 207.085 116.707 207.396 116.827 207.709 116.947 208.019L117.119 208.462 117.488 209.424C117.578 209.655 117.672 209.881 117.767 210.109L117.797 210.18 117.829 210.255C117.922 210.475 118.015 210.695 118.1 210.916L118.101 210.918C118.164 211.106 118.211 211.298 118.242 211.495 118.241 211.541 118.24 211.587 118.237 211.639 118.227 211.676 118.214 211.712 118.199 211.75L118.2 211.747C118.149 211.834 118.096 211.916 118.038 211.996 117.636 212.411 117.194 212.782 116.718 213.106 115.936 213.625 115.125 214.101 114.288 214.526 113.643 214.86 112.998 215.166 112.456 215.423 112.173 215.556 111.889 215.689 111.591 215.824 110.534 216.316 109.44 216.824 108.385 217.369 108.268 217.43 108.15 217.491 108.034 217.553 107.324 217.929 106.616 218.313 105.894 218.706 104.98 219.203 104.036 219.72 103.098 220.205L103.096 220.206C101.632 220.978 100.123 221.66 98.5737 222.247c-1.429.519999999999982-2.9144.869-4.4256 1.041C93.7078 223.315 93.2651 223.298 92.8264 223.241 92.6443 223.196 92.4675 223.14 92.2923 223.074 92.1595 223.001 92.0311 222.92 91.9089 222.829 91.7653 222.687 91.6305 222.536 91.5074 222.377 91.2222 221.908 90.9863 221.412 90.8016 220.896 90.5612 220.193 90.327 219.489 90.092 218.783L89.8625 218.093C89.6181 217.36 89.3773 216.626 89.1408 215.886L89.1418 215.888C89.2047 215.794 89.2539 215.692 89.2877 215.586 89.4064 215.208 89.5452 214.839 89.7038 214.478 90.0388 213.789 90.4483 213.138 90.9253 212.54 91.3079 212.101 91.7333 211.702 92.1974 211.351 92.3961 211.221 92.5951 211.105 92.7924 211.003 92.9592 210.916 93.1361 210.836 93.3157 210.762L93.3175 210.761C93.6367 210.662 93.9663 210.592 94.2999 210.551 94.6104 210.541 94.9221 210.555 95.2324 210.597 95.8765 210.752 96.5086 210.951 97.1267 211.193 97.6713 211.402 98.2281 211.583 98.7945 211.734 99.4922 211.909 100.214 211.978 100.934 211.933 101.306 211.911 101.677 211.863 102.043 211.789 102.439 211.696 102.823 211.566 103.194 211.399 103.256 211.374 103.318 211.344 103.377 211.314 103.606 211.189 103.824 211.049 104.034 210.895 104.294 210.713 104.536 210.504 104.756 210.274 105.204 209.791 105.585 209.248 105.887 208.663 106.283 207.885 106.637 207.087 106.946 206.27L106.961 206.233C107.156 205.748 107.357 205.244 107.576 204.761L107.575 204.759C107.838 204.208 108.155 203.683 108.522 203.193 108.734 202.952 108.969 202.73 109.222 202.533 109.349 202.457 109.482 202.381 109.624 202.308L109.625 202.305C109.986 202.125 110.36 201.964 110.741 201.826L110.908 201.767 110.909 201.769C111.473 201.589 112.026 201.367 112.558 201.108 112.73 201.021 112.895 200.924 113.054 200.818 113.304 200.654 113.537 200.468 113.75 200.26 113.77 200.241 113.787 200.221 113.806 200.202L113.808 200.205 113.813 200.203C114.074 200.825 114.333 201.45 114.59 202.076zM110.032 191.714C110.147 191.952 110.26 192.189 110.374 192.428 111.141 194.057 111.894 195.722 112.669 197.521L112.667 197.522C112.583 197.636 112.514 197.763 112.465 197.897 112.443 197.959 112.418 198.021 112.393 198.082 112.317 198.23 112.231 198.371 112.133 198.507 112.039 198.606 111.936 198.698 111.829 198.785 111.719 198.853 111.604 198.917 111.489 198.976L111.488 198.975C111.116 199.16 110.731 199.322 110.34 199.461 109.948 199.6 109.54 199.744 109.145 199.898L109.146 199.9C108.953 199.975 108.764 200.062 108.581 200.156 108.283 200.31 107.997 200.487 107.73 200.686 107.048 201.209 106.472 201.859 106.036 202.598 105.599 203.346 105.227 204.129 104.919 204.936 104.854 205.092 104.792 205.249 104.727 205.406L104.678 205.531C104.495 205.989 104.286 206.506 104.061 207.006L104.062 207.008C103.819 207.524 103.523 208.016 103.182 208.472 103 208.67 102.803 208.852 102.59 209.016 102.498 209.07 102.405 209.123 102.31 209.172 102.189 209.234 102.063 209.293 101.938 209.346L101.94 209.345C101.593 209.447 101.239 209.519 100.882 209.558 100.488 209.575 100.095 209.553 99.7069 209.496 99.0393 209.339 98.3846 209.136 97.7466 208.891 97.2421 208.706 96.6678 208.501 96.0888 208.352 95.393 208.18 94.6708 208.128 93.9566 208.202 93.2614 208.281 92.5839 208.47 91.9466 208.763 91.8524 208.804 91.759 208.848 91.6676 208.895 91.187 209.157 90.7296 209.464 90.3062 209.815 89.756 210.276 89.2599 210.798 88.8259 211.37 88.5923 211.666 88.3769 211.975 88.1788 212.295 88.1408 212.358 88.1083 212.423 88.0712 212.487L88.0666 212.478C88.0648 212.479 88.0639 212.482 88.063 212.485 87.6216 211.054 87.1663 209.534 86.668 207.835 86.4373 207.045 86.2047 206.256 85.9794 205.464L85.9766 205.459 85.9784 205.458C86.022 205.41 86.061 205.358 86.0974 205.305 86.2621 205.061 86.4251 204.818 86.5977 204.558 87.2132 203.638 87.8472 202.688 88.5572 201.814L88.5582 201.816C89.0418 201.243 89.5832 200.725 90.1758 200.267 90.3799 200.134 90.5887 200.01 90.8039 199.899 90.9761 199.81 91.1548 199.729 91.3281 199.656 91.6996 199.543 92.0787 199.463 92.4637 199.421 92.9087 199.407 93.3507 199.436 93.7895 199.502 94.1499 199.575 94.5168 199.661 94.8691 199.744L94.9724 199.768C95.5947 199.917 96.2424 200.067 96.8893 200.162L96.8884 200.165C97.4555 200.233 98.028 200.237 98.5971 200.177 99.1868 200.109 99.7607 199.94 100.294 199.678 100.332 199.661 100.371 199.643 100.408 199.624 100.577 199.532 100.738 199.43 100.895 199.32 101.171 199.132 101.431 198.923 101.673 198.693 102.068 198.296 102.421 197.857 102.726 197.388 102.975 197.021 103.206 196.628 103.413 196.281 103.718 195.741 104.057 195.221 104.427 194.723 104.775 194.329 105.164 193.969 105.585 193.654 105.834 193.494 106.08 193.349 106.318 193.225 106.518 193.122 106.724 193.029 106.931 192.945 107.091 192.895 107.248 192.847 107.407 192.799 107.679 192.718 107.923 192.644 108.166 192.557L108.165 192.555C108.437 192.465 108.7 192.359 108.958 192.234L109 192.213C109.224 192.088 109.439 191.941 109.637 191.775 109.729 191.702 109.815 191.619 109.895 191.53L109.922 191.496 109.923 191.497 109.929 191.495 110.032 191.714zm3.521-12.071L113.525 179.658C113.454 179.697 113.386 179.741 113.32 179.789L113.295 179.807C113.247 179.838 113.201 179.871 113.155 179.897 113.116 179.919 113.077 179.939 113.039 179.959L113.037 179.96C112.85 180.054 112.656 180.136 112.458 180.207 112.093 180.332 111.719 180.448 111.358 180.562L111.309 180.578 111.286 180.585C110.62 180.793 109.935 181.01 109.28 181.278 109.111 181.347 108.946 181.423 108.79 181.504 108.008 181.908 107.082 182.614 107.114 183.679L107.111 183.678C107.124 183.962 107.172 184.244 107.258 184.516 107.291 184.624 107.326 184.728 107.365 184.833 107.411 184.957 107.455 185.082 107.49 185.212 107.527 185.34 107.559 185.465 107.596 185.593L107.606 185.631C107.666 185.857 107.729 186.084 107.798 186.305 107.936 186.761 108.103 187.222 108.271 187.678 108.338 187.862 108.405 188.043 108.475 188.227L108.479 188.235 108.477 188.236 108.476 188.234C108.463 188.27 108.451 188.308 108.443 188.346 108.394 188.603 108.358 188.863 108.321 189.116L108.316 189.146 108.312 189.182C108.292 189.308 108.276 189.435 108.257 189.561L108.258 189.562C108.234 189.661 108.203 189.759 108.168 189.854 108.157 189.873 108.144 189.892 108.132 189.909 108.091 189.951 108.046 189.992 108 190.036 107.95 190.062 107.901 190.09 107.851 190.116 107.727 190.18 107.606 190.236 107.476 190.289 107.241 190.365 107.003 190.438 106.767 190.508L106.631 190.548C106.177 190.685 105.734 190.857 105.307 191.064 105.25 191.091 105.193 191.121 105.137 191.149 104.338 191.569 103.613 192.114 102.989 192.763 102.429 193.373 101.941 194.046 101.53 194.765L101.356 195.057 101.358 195.056C101.038 195.617 100.686 196.158 100.299 196.676 100.093 196.909 99.8637 197.126 99.6188 197.32 99.5122 197.387 99.4046 197.447 99.2916 197.505 99.1804 197.563 99.0781 197.611 98.9668 197.659 98.6898 197.743 98.4042 197.802 98.1148 197.836 97.6526 197.847 97.1908 197.816 96.7338 197.74 96.339 197.662 95.9359 197.564 95.5808 197.479 94.8413 197.284 94.0881 197.141 93.3284 197.052 92.6206 196.997 91.9107 197.053 91.2202 197.216 90.6936 197.34 90.185 197.53 89.707 197.784 89.5958 197.842 89.4882 197.902 89.3816 197.964L89.3806 197.962C88.2298 198.686 87.2225 199.618 86.4106 200.707 86.0037 201.213 85.6331 201.736 85.3026 202.209 85.2432 202.297 85.1856 202.383 85.1263 202.471L85.1235 202.465 85.1191 202.47C84.9665 201.928 84.814 201.387 84.6606 200.843L84.5327 200.389 84.5203 200.339C84.2673 199.44 84.0076 198.51 83.7995 197.584L83.7986 197.587C83.6869 197.058 83.5463 196.535 83.3752 196.024 83.2794 195.737 83.1637 195.456 83.0318 195.183 82.9114 194.954 82.7695 194.737 82.6088 194.536L82.5426 194.443C82.4015 194.293 82.2249 194.179 82.029 194.117 81.7388 194.022 81.423 194.044 81.1494 194.178L81.1207 194.193C80.5149 194.547 79.9304 194.938 79.3679 195.358L79.3428 195.375C79.0592 195.578 78.7811 195.783 78.4967 195.994L78.477 196.009C78.1211 196.27 77.766 196.533 77.4055 196.79H77.4082C76.8553 197.181 76.2784 197.538 75.6812 197.855 75.4354 197.982 75.1877 198.097 74.947 198.194L74.9479 198.195C74.7159 198.27 74.4782 198.324 74.2376 198.36 74.1166 198.364 73.9974 198.361 73.8763 198.351 73.8131 198.216 73.758 198.078 73.7047 197.94L73.6365 197.768 73.6347 197.769C73.4594 197.346 73.258 196.935 73.0279 196.538 72.953 196.401 72.8735 196.265 72.7959 196.128L72.7976 196.127C72.3997 195.467 72.0502 194.777 71.7482 194.065 71.6936 193.893 71.6515 193.715 71.623 193.536 71.623 193.47 71.6285 193.406 71.6348 193.339L71.633 193.34C71.6795 193.166 71.736 192.998 71.8052 192.833 72.0333 192.399 72.3043 191.991 72.6154 191.612 73.876 190.243 75.2674 188.999 76.7702 187.9L77.1644 187.59C77.7766 187.108 78.3651 186.606 79.0142 186.046 79.8606 185.313 80.6488 184.683 81.4325 184.124L81.462 184.102C81.772 184.535 82.0622 184.903 82.3446 185.225 82.7955 185.729 83.2874 186.193 83.814 186.614 84.7414 187.362 85.7805 187.957 86.8949 188.376 87.9993 188.785 89.1662 189.003 90.3439 189.017 92.2294 189.016 94.0902 188.58 95.7788 187.739L95.8613 187.696C96.4809 187.361 97.0533 186.942 97.5643 186.453 98.5039 185.527 99.2132 184.392 99.6346 183.141 99.8361 182.537 99.9805 181.914 100.065 181.282 100.157 180.637 100.182 179.986 100.135 179.337 100.099 178.685 100.006 178.04 99.8579 177.405 99.6863 176.717 99.4481 176.044 99.1452 175.401 99.1071 175.318 99.061 175.242 99.0076 175.17L98.9994 175.163 99.0012 175.162 98.9994 175.158 99.107 175.103C100.382 174.444 101.675 173.735 103.061 172.937 103.925 172.441 104.904 171.881 105.824 171.257H105.826C106.349 170.887 106.894 170.548 107.458 170.241 107.65 170.142 107.835 170.055 108.02 169.978 108.101 169.954 108.182 169.935 108.267 169.919 108.364 170.121 108.445 170.326 108.517 170.519L108.66 170.94 108.738 171.17C108.861 171.532 109.003 171.886 109.167 172.228 109.584 173.12 110.072 174.07 110.658 175.133 110.883 175.542 111.115 175.947 111.349 176.353 111.461 176.538 111.584 176.718 111.712 176.892L111.812 177.032C111.969 177.253 112.131 177.474 112.295 177.694 112.466 177.925 112.637 178.158 112.804 178.394L112.806 178.393C113.087 178.789 113.338 179.207 113.552 179.644L113.553 179.643z" fill="#181818"/></g><path d="M186.941 34.3119C186.695 34.3119 186.449 34.213 186.253 34.0172L181.084 28.8484C180.69 28.4547 180.69 27.8389 181.084 27.4452S182.094 27.0515 182.487 27.4452L187.656 32.6139C188.05 33.0077 188.05 33.6235 187.656 34.0172 187.434 34.215 187.188 34.3119 186.941 34.3119z" fill="#181818"/><path d="M191.96 48.0935C191.762 48.0935 191.566 48.045 191.395 47.8956 190.953 47.5766 190.854 46.9608 191.173 46.5166L194.421 42.0121C194.446 41.9637 194.496 41.9374 194.52 41.889l14.005-14.0043L208.23 23.7497l-8.862-4.9709C199.196 18.6799 199.049 18.5325 198.95 18.3367l-2.142-4.6034-14.99 14.9894C181.77 28.7711 181.72 28.7974 181.671 28.8458l-4.898 3.3234C176.331 32.464 175.715 32.367 175.394 31.8986 175.075 31.4302 175.196 30.8406 175.664 30.5196L180.488 27.2467l15.928-15.9244C196.638 11.1002 196.957 11.0033 197.278 11.0518 197.597 11.1002 197.87 11.3223 197.993 11.6171L200.575 17.2278 209.632 22.2976C209.927 22.4693 210.101 22.7661 210.125 23.085L210.47 28.1791C210.494 28.4739 210.396 28.7445 210.175 28.9423l-14.25 14.2503L192.725 47.6466C192.553 47.9414 192.257 48.0888 191.962 48.0888L191.96 48.0935z" fill="#181818"/><path d="M209.387 27.2714C209.14 27.2714 208.894 27.1725 208.698 26.9766 208.304 26.5829 208.304 25.9671 208.698 25.5734l8.862-8.8618C217.93 16.3421 218.125 15.8494 218.125 15.3084 218.125 14.7673 217.928 14.2746 217.56 13.9052l-7.852-7.8519C209.339 5.68382 208.846 5.48794 208.305 5.48794S207.271 5.68581 206.902 6.0533L198.583 14.3719C198.189 14.7656 197.574 14.7656 197.18 14.3719 196.786 13.9782 196.786 13.3624 197.18 12.9687L205.499 4.65009C206.237 3.91111 207.221 3.49316 208.281 3.49316 209.339 3.49316 210.324 3.9111 211.063 4.65009L218.913 12.5526C220.44 14.079 220.44 16.5887 218.913 18.1152L210.051 26.9771C209.88 27.1749 209.634 27.2718 209.387 27.2718V27.2714zM192.083 47.8477C191.837 47.8477 191.591 47.7488 191.395 47.5529 190.533 46.6908 190.361 45.8791 190.262 45.2876 190.163 44.7949 190.115 44.5002 189.67 44.056 189.228 43.6138 188.932 43.5633 188.439 43.4644 187.847 43.3655 187.036 43.1939 186.174 42.3317 185.311 41.4696 185.14 40.6579 185.041 40.0664 184.942 39.5737 184.893 39.2789 184.449 38.8347 184.007 38.3926 183.71 38.3421 183.218 38.2432 182.626 38.1442 181.814 37.9726 180.952 37.1105 180.09 36.2484 179.919 35.4367 179.82 34.8451 179.721 34.3525 179.672 34.0577 179.228 33.6135 178.786 33.1714 178.489 33.1209 177.996 33.022 177.405 32.923 176.593 32.7514 175.731 31.8893 175.337 31.4956 175.337 30.8798 175.731 30.4861S176.741 30.0924 177.134 30.4861C177.576 30.9282 177.873 30.9787 178.366 31.0776 178.957 31.1766 179.769 31.3482 180.631 32.2103 181.493 33.0725 181.665 33.8841 181.764 34.4757 181.863 34.9683 181.911 35.2631 182.356 35.7073 182.798 36.1495 183.094 36.1999 183.587 36.2989 184.179 36.3978 184.99 36.5694 185.852 37.4315 186.715 38.2937 186.886 39.1053 186.985 39.6969 187.084 40.1895 187.133 40.4843 187.577 40.9285 188.019 41.3707 188.316 41.4212 188.808 41.5201 189.4 41.619 190.212 41.7906 191.074 42.6528 191.936 43.5149 192.107 44.3266 192.206 44.9181 192.305 45.4108 192.354 45.7055 192.798 46.1497 193.192 46.5434 193.192 47.1592 192.798 47.5529 192.576 47.7508 192.33 47.8477 192.083 47.8477z" fill="#181818"/><path d="M207.566 11.5939C207.22 11.5939 206.901 11.4223 206.704 11.1013 206.286 10.3623 206.532 9.42747 207.245 9.00952 207.984 8.59158 208.918 8.8379 209.336 9.55064 209.607 10.0191 209.46 10.6329 208.991 10.9034 208.82 11.0023 208.622 11.0508 208.426 11.0266 208.351 11.1982 208.204 11.3456 208.032 11.4445 207.909 11.5677 207.737 11.5919 207.564 11.5919L207.566 11.5939zm5.637 10.5334C212.908 22.1273 212.637 22.0042 212.44 21.7578 211.577 20.6756 211.751 19.0988 212.833 18.2386 213.915 17.3765 215.492 17.5502 216.352 18.6324 216.698 19.0503 216.623 19.6661 216.205 20.0114 215.787 20.3566 215.171 20.2819 214.826 19.864 214.654 19.6419 214.309 19.5934 214.087 19.7893 213.865 19.9609 213.816 20.3062 214.012 20.5283 214.358 20.9462 214.283 21.562 213.865 21.9073 213.619 22.0547 213.423 22.1294 213.201 22.1294L213.203 22.1273z" fill="#181818"/><path d="M46.2115 78.7318c9.0606-8.867 19.5417-17.1265 30.9462-24.46M12.3229 143.045c-.3871 11.327 2.4625 22.53 9.2724 33.145 8.6362 13.461 22.1895 21.26 38.5719 24.554M130.527 194.325C141.095 191.116 151.727 187.068 162.121 182.348m56.792-34.79C225.106 142.513 230.834 137.276 235.97 131.917m25.692-63.8834C259.641 60.1971 255.221 52.6901 247.987 45.7433 241.78 39.9181 234.904 35.2359 227.518 31.5939m-57.644-9.8361C156.754 22.6912 143.337 25.3725 130.139 29.4705" stroke="#0c8d7e" stroke-width="2.11986" stroke-linecap="round" stroke-dasharray="7.07 7.07"/><g clip-path="url(#clip1_1_32644)"><path d="M48.2749 111.053C46.3851 95.9443 33.9601 83.6199 18.9505 81.7302 16.465 81.2335 14.6762 82.9234 14.3773 84.9102 14.2784 85.8046 14.5752 86.699 15.0739 87.4945L4.63769 124.175C4.53875 124.473 4.63769 124.871 4.83556 125.069 5.03342 125.267 5.43115 125.368 5.73001 125.267L14.6766 122.683C14.4787 123.777 14.081 124.869 13.5823 125.764 13.0856 126.757 12.8857 127.851 13.0856 128.845 13.3844 130.932 14.9734 132.622 17.0611 133.02 20.3421 133.717 23.2233 131.231 23.2233 128.049 23.2233 127.353 23.1243 126.658 22.8255 125.961 22.03 124.074 21.5333 122.384 21.3355 120.694L24.8143 119.701C24.6165 120.296 24.5155 120.894 24.2187 121.588 24.0209 122.184 24.0209 122.881 24.1198 123.476c.2988 1.59099999999999 1.591 2.782 3.081 3.081C30.2819 127.153 32.6683 124.072 31.4751 121.19 31.0774 120.197 30.7785 119.202 30.5807 117.909L42.5091 114.53C43.4036 115.226 44.7947 115.325 45.0935 115.226 47.0823 115.327 48.7722 113.439 48.2755 111.053H48.2749zM29.3888 116.718C28.991 116.817 28.6922 117.215 28.6922 117.711 28.8901 119.401 29.2878 120.891 29.7865 122.184 30.3821 123.674 29.1909 125.265 27.501 124.966 26.7054 124.867 26.0109 124.17 25.811 123.375 25.7121 122.977 25.811 122.678 25.91 122.381 26.3077 120.99 26.6066 119.896 26.9034 118.804 27.0023 118.505 26.9034 118.208 26.6045 117.909 26.4067 117.711 26.0089 117.61 25.7101 117.711L20.0446 119.302C19.6469 119.401 19.348 119.799 19.348 120.197 19.447 122.285 19.9436 124.471 21.0379 126.856 21.2358 127.253 21.3368 127.75 21.3368 128.148c0 1.989-1.8878 3.679-3.9755 3.18000000000001C16.0691 131.029 15.0757 129.937 14.8758 128.645 14.7769 127.948 14.8758 127.253 15.1746 126.656 15.9702 125.065 16.4668 123.375 16.6647 121.487 16.6647 121.188 16.5657 120.891 16.3659 120.692 16.168 120.494 15.7703 120.393 15.5703 120.494l-8.74654 2.485L16.5658 88.488C16.8647 88.5869 17.0625 88.6858 17.5592 88.7868 29.6856 90.1779 39.5264 100.018 40.9174 112.145 40.9174 112.444 41.0163 112.842 41.2162 113.138l-11.8274 3.58zm15.5063-2.98C44.0006 113.837 43.2052 113.34 42.9063 112.347 42.9063 112.248 42.9063 112.149 42.8074 112.048 41.4162 99.1261 30.8789 88.5886 17.8578 87.0984 17.7588 87.0984 17.6599 87.0984 17.5589 86.9995 16.6645 86.7006 16.1678 85.9051 16.2668 85.0107 16.3657 84.1162 17.1612 83.2218 18.6533 83.4197 32.8674 85.3075 44.5958 96.937 46.3847 111.252 46.7824 112.841 45.7891 113.637 44.8946 113.738H44.8951z" fill="#181818"/><path d="M33.0653 104.295C30.481 104.295 28.3932 106.383 28.3932 108.967s2.0878 4.672 4.6721 4.672c2.5844.0 4.6721-2.08799999999999 4.6721-4.672.0-2.586-1.9887-4.672-4.6721-4.672zm0 7.652c-1.591.0-2.8831-1.292-2.8831-2.88300000000001.0-1.59099999999999 1.2921-2.883 2.8831-2.883s2.8832 1.292 2.8832 2.883C35.9485 110.655 34.6563 111.947 33.0653 111.947z" fill="#181818"/><path d="M14.0805 112.445C12.3906 112.445 11.0984 113.836 11.0984 115.427 11.0984 117.018 12.4895 118.41 14.0805 118.41c1.591.0 2.9821-1.392 2.9821-2.98299999999999C17.0626 113.836 15.7704 112.445 14.0805 112.445zM14.0805 116.619c-.595600000000001.0-1.1933-.497-1.1933-1.194C12.8872 114.729 13.3839 114.232 14.0805 114.232c.595599999999999.0 1.1933.497 1.1933 1.193C15.2738 116.122 14.7771 116.619 14.0805 116.619z" fill="#181818"/><path d="M18.1571 97.6343C16.2693 97.6343 14.6783 99.2253 14.6783 101.113c0 1.88800000000001 1.591 3.479 3.4788 3.479 1.8879.0 3.4788-1.59099999999999 3.4788-3.479.0-1.8877-1.5909-3.4787-3.4788-3.4787zm0 5.0697C17.2627 102.704 16.5661 102.008 16.5661 101.113c0-.894000000000006.6966-1.5909 1.591-1.5909C19.0516 99.5221 19.7481 100.219 19.7481 101.113 19.7461 102.008 19.0515 102.704 18.1571 102.704z" fill="#181818"/><path d="M18.6538 95.845C19.1505 95.845 19.5482 95.4472 19.5482 94.9505 19.5482 93.8562 20.4427 92.9618 21.537 92.9618 22.0337 92.9618 22.4315 92.564 22.4315 92.0673 22.4315 91.5706 22.0337 91.1729 21.537 91.1729 19.4493 91.1729 17.6605 92.8628 17.6605 95.0494 17.7594 95.4472 18.1571 95.8449 18.6538 95.8449V95.845z" fill="#181818"/><path d="M26.5057 97.3348 28.2945 96.4404C28.7912 96.2425 28.8901 95.6449 28.6923 95.2471 28.4944 94.7504 27.8967 94.6515 27.499 94.8494L25.7101 95.7438C25.2135 95.9417 25.1145 96.5394 25.3124 96.9371c.1999.4987.6966.696600000000004 1.1933.3977z" fill="#181818"/><path d="M17.0623 107.773 15.2734 108.668C14.7767 108.866 14.6778 109.463 14.8757 109.861 15.0735 110.358 15.6712 110.457 16.0689 110.259L17.8578 109.364C18.3545 109.166 18.4534 108.569 18.2555 108.171 18.0557 107.773 17.46 107.573 17.0623 107.773z" fill="#181818"/><path d="M23.4246 111.352C23.1257 110.954 22.5301 110.954 22.1324 111.253 21.7346 111.551 21.7346 112.147 22.0334 112.545L23.3256 114.136C23.6244 114.534 24.2201 114.534 24.6178 114.235 25.0156 113.936 25.0156 113.34 24.7168 112.943L23.4246 111.352z" fill="#181818"/><path d="M28.7913 104.791C28.9891 104.295 28.6923 103.798 28.2946 103.598L26.4068 102.901C25.9101 102.703 25.4134 103 25.2135 103.398 25.0157 103.895 25.3125 104.391 25.7102 104.591L27.598 105.288c.4987.198000000000008.9954.0 1.1933-.497z" fill="#181818"/></g><path d="M281.059 118.82C280.999 117.495 280.704 114.278 277.301 114.41 277.236 114.413 277.184 114.417 277.119 114.419 276.921 110.107 276.45 106.517 274.954 103.239 273.286 99.5823 271.235 95.4756 267.973 92.9962 265.662 91.2375 262.82 90.1823 259.494 89.8412 261.021 88.6541 261.963 86.7444 261.879 84.5816 261.741 81.0368 258.889 78.2628 255.522 78.394 252.027 78.5302 249.078 81.6518 249.211 85.0753 249.294 87.1937 250.532 89.0609 252.312 90.1375 249.05 90.7415 246.333 91.993 244.21 93.8862 241.147 96.6202 238.653 100.338 237.187 104.352 236.166 107.147 236.402 109.769 236.649 112.544 236.717 113.301 236.778 114.093 236.828 114.905 234.256 115.371 232.177 118.501 232.272 120.93 232.384 123.803 235.197 125.627 237.755 125.528 240.299 125.428 241.587 125.225 242.832 125.029 244.085 124.83 245.27 124.643 247.715 124.547 250.174 124.452 251.373 124.51 252.644 124.572 253.893 124.632 255.185 124.695 257.715 124.596 260.164 124.501 261.359 124.581 262.623 124.668 263.878 124.752 265.172 124.841 267.71 124.742 270.248 124.643 271.532 124.454 272.776 124.272 274.029 124.088 275.217 123.914 277.668 123.818 281.067 123.686 281.115 120.51 281.075 119.202 281.086 119.139 281.092 119.076 281.089 119.01 281.087 118.945 281.078 118.883 281.06 118.821L281.059 118.82zM250.861 85.0106C250.764 82.5109 253.015 80.1419 255.588 80.0417 258.045 79.9459 260.13 82.0105 260.233 84.6454 260.334 87.2439 258.454 89.356 255.955 89.4534 253.338 89.5554 250.958 87.4781 250.861 85.0106zM245.311 95.1176C247.886 92.8189 251.493 91.565 256.03 91.3881 260.517 91.2133 264.2 92.1952 266.978 94.3096 269.933 96.5565 271.871 100.451 273.455 103.926 273.533 104.096 273.596 104.272 273.667 104.443 272.378 104.438 271.71 103.951 270.888 103.337 269.941 102.626 268.867 101.819 266.844 101.898 264.921 101.973 263.929 102.499 263.054 102.965 262.231 103.401 261.52 103.78 259.977 103.841 258.518 103.897 257.796 103.406 256.961 102.839 256.019 102.199 254.954 101.472 252.949 101.55 250.863 101.632 249.813 102.847 248.97 103.825 248.175 104.747 247.547 105.475 246.173 105.528 244.823 105.581 244.136 104.838 243.271 103.896 242.515 103.076 241.603 102.106 240.141 101.821 241.494 99.2711 243.29 96.9218 245.311 95.1177V95.1176zM238.74 104.917C238.928 104.402 239.141 103.893 239.365 103.385 240.571 103.417 241.235 104.12 242.053 105.01 242.975 106.011 244.121 107.255 246.235 107.173 248.324 107.091 249.373 105.874 250.216 104.896 251.011 103.974 251.639 103.246 253.011 103.193 254.472 103.136 255.194 103.627 256.03 104.194 256.971 104.835 258.037 105.561 260.039 105.483 261.96 105.408 262.951 104.882 263.826 104.416 264.65 103.98 265.36 103.601 266.906 103.54 268.346 103.484 269.031 103.997 269.897 104.648 270.846 105.361 271.92 106.166 273.948 106.087 274.053 106.082 274.151 106.056 274.242 106.014 275.023 108.524 275.331 111.306 275.477 114.519 274.045 114.648 273.105 114.842 272.193 115.029 270.952 115.286 269.78 115.527 267.352 115.622 264.915 115.717 263.725 115.598 262.463 115.471 261.199 115.345 259.897 115.213 257.343 115.313 254.764 115.414 253.463 115.737 252.207 116.049 250.978 116.353 249.815 116.643 247.406 116.737 245.092 116.827 243.938 116.353 242.718 115.851 241.593 115.387 240.427 114.916 238.476 114.844 238.427 113.995 238.361 113.176 238.292 112.392 238.054 109.698 237.846 107.368 238.74 104.917zm38.866 17.254C275.066 122.27 273.782 122.46 272.538 122.641 271.285 122.826 270.099 122.999 267.648 123.095 265.197 123.19 264.001 123.109 262.737 123.023 261.483 122.939 260.188 122.85 257.652 122.949 255.193 123.045 253.995 122.986 252.723 122.925 251.474 122.864 250.183 122.801 247.653 122.9 245.109 122.999 243.821 123.203 242.576 123.399 241.323 123.597 240.138 123.785 237.693 123.88 235.968 123.947 233.995 122.725 233.922 120.867 233.854 119.1 235.596 116.567 237.405 116.496 239.719 116.406 240.873 116.88 242.093 117.382 243.424 117.931 244.798 118.495 247.473 118.391 250.051 118.291 251.352 117.967 252.609 117.655 253.837 117.351 255 117.061 257.409 116.967 259.848 116.872 261.039 116.991 262.299 117.118 263.56 117.245 264.865 117.376 267.417 117.276 269.981 117.176 271.276 116.91 272.527 116.651 273.768 116.394 274.94 116.153 277.367 116.058 278.59 116.01 279.32 116.489 279.421 119.076 279.518 121.616 278.858 122.122 277.605 122.171H277.606z" fill="#181818"/><g clip-path="url(#clip2_1_32644)"><path d="M108.555 34.2728C109.496 34.7981 108.707 36.2083 107.767 35.6805 106.828 35.1547 107.616 33.747 108.555 34.2728z" fill="#181818"/><path d="M105.933 37.1612C106.873 37.687 106.083 39.0973 105.144 38.5714 104.205 38.0456 104.994 36.6354 105.933 37.1612z" fill="#181818"/><path d="M107.111 30.8219C108.05 31.3477 107.263 32.7574 106.322 32.2321 105.382 31.7063 106.172 30.2961 107.111 30.8219z" fill="#181818"/><path d="M99.825 44.0819C100.764 44.6077 99.9769 46.0174 99.0375 45.4915 98.0976 44.9638 98.8857 43.5561 99.825 44.0819z" fill="#181818"/><path d="M104.699 25.9711C103.299 26.5698 102.829 28.3976 102.235 30.7093 101.757 32.5686 101.216 34.6745 100.108 36.6508 100.068 36.723 100.022 36.7925 99.9814 36.8628 100.387 37.1534 100.804 37.4196 101.236 37.6647 101.273 37.6856 101.311 37.7021 101.349 37.723 101.404 37.6278 101.464 37.5373 101.519 37.4402 102.728 35.28 103.321 32.9683 103.8 31.1108 104.245 29.3783 104.666 27.7425 105.335 27.4573 105.359 27.4463 105.381 27.4378 105.405 27.4312 105.823 27.3133 106.469 27.5985 106.95 27.8677 108.969 28.9974 110.329 31.0449 110.776 33.6333 111.148 35.985 110.822 38.3954 109.833 40.5645 110.337 40.7664 110.814 41.0283 111.254 41.3467 112.413 38.8524 112.801 36.0723 112.368 33.356 111.835 30.2797 110.191 27.8295 107.74 26.4575 106.522 25.7775 105.528 25.6153 104.699 25.971V25.9711z" fill="#181818"/><path d="M106.39 41.1991C104.532 40.7206 102.424 40.1805 100.448 39.0726 98.4696 37.9652 96.9078 36.4529 95.5287 35.1198 93.814 33.4597 92.4601 32.1488 90.951 32.3692 90.0627 32.5003 89.2952 33.1554 88.6132 34.3737 87.2409 36.8255 87.1205 39.7735 88.2749 42.6741 89.5115 45.6356 91.7257 48.0842 94.5485 49.6119c2.7782 1.6075 6.0235 2.2147 9.1925 1.721C104.139 51.2645 104.533 51.1743 104.92 51.0651 107.336 50.4397 109.397 48.8677 110.641 46.7041 111.323 45.4856 111.483 44.4903 111.128 43.6632 110.526 42.2616 108.701 41.7929 106.389 41.1992L106.39 41.1991zM109.231 45.9145C108.101 47.9327 106.06 49.2915 103.465 49.7405 100.66 50.1713 97.7927 49.6297 95.3365 48.204 92.8376 46.8576 90.876 44.6944 89.7767 42.0782 88.8066 39.6372 88.8944 37.1831 90.0235 35.163 90.2927 34.6821 90.6931 34.1013 91.1128 33.9828 91.1361 33.9762 91.16 33.9716 91.1863 33.9683 91.9077 33.8633 93.1204 35.0379 94.4046 36.2803 95.7818 37.614 97.4965 39.2741 99.6587 40.4828 101.819 41.692 104.131 42.2856 105.988 42.7642 107.721 43.2088 109.356 43.6303 109.643 44.2982 109.819 44.7123 109.516 45.4063 109.231 45.9146V45.9145z" fill="#181818"/><path d="M96.0008 44.1058C96.9401 44.6316 96.1527 46.0413 95.2114 45.516 94.2715 44.9883 95.0615 43.58 96.0008 44.1058z" fill="#181818"/><path d="M102.516 46.421C103.455 46.9468 102.668 48.3565 101.728 47.8287 100.787 47.3035 101.576 45.8952 102.516 46.421z" fill="#181818"/><path d="M105.966 44.9747C106.906 45.5025 106.116 46.9107 105.177 46.3849 104.237 45.8591 105.027 44.4489 105.966 44.9747z" fill="#181818"/><path d="M94.6878 40.8662C95.6271 41.392 94.8391 42.7997 93.8998 42.2739 92.9585 41.7486 93.7479 40.3384 94.6878 40.8662z" fill="#181818"/><path d="M92.7067 37.6906C93.6461 38.2164 92.8561 39.6247 91.9168 39.0989 90.9774 38.5731 91.7668 37.1629 92.7067 37.6906z" fill="#181818"/><path d="M125.05 51.2386C123.898 39.3664 120.632 27.7969 115.407 17.0743L114.997 9.80111 114.995 9.80165C114.982 9.55562 114.858 9.33057 114.659 9.1896 114.459 9.04669 114.205 9.00289 113.97 9.06926 113.13 9.31062 112.428 9.89467 112.036 10.6766 111.75 11.1414 111.578 11.4228 111.038 11.5753 110.499 11.7272 110.205 11.5774 109.718 11.3309L109.72 11.3304C108.978 10.8643 108.073 10.7338 107.229 10.9718 106.386 11.2098 105.685 11.7939 105.296 12.5792 105.009 13.0439 104.839 13.3249 104.301 13.4768 103.763 13.6287 103.468 13.4788 102.981 13.2324 102.239 12.7663 101.336 12.6353 100.493 12.8733 99.6494 13.1113 98.9477 13.6954 98.5589 14.4807 98.2726 14.9454 98.1003 15.2269 97.5621 15.3788 97.0238 15.5307 96.7317 15.3803 96.2447 15.1339 95.5046 14.6672 94.6011 14.5362 93.7578 14.7742 92.9145 15.0122 92.2129 15.5963 91.8241 16.3816 91.5397 16.8458 91.3674 17.1272 90.8291 17.2792 90.2909 17.4311 89.9988 17.2807 89.5118 17.0342 88.7697 16.5681 87.8663 16.4371 87.023 16.6751 86.1796 16.9131 85.478 17.4972 85.0892 18.2825 84.8048 18.7467 84.6325 19.0282 84.0943 19.1801 83.5561 19.332 83.262 19.1821 82.775 18.9357L82.7769 18.9351C82.0349 18.4691 81.1314 18.338 80.2881 18.576 79.4448 18.8141 78.7432 19.3981 78.3544 20.1834 78.068 20.6481 77.8977 20.9291 77.3594 21.081 76.8212 21.2329 76.5291 21.0825 76.042 20.8361 75.2992 20.3744 74.3957 20.2434 73.5533 20.477 73.3181 20.5433 73.1248 20.7133 73.0292 20.9396 72.9331 21.1639 72.9448 21.4207 73.0625 21.6372l3.4512 6.4149c1.1523 11.8721 4.4178 23.4416 9.6429 34.1642L86.5668 69.4895 86.5687 69.489C86.5815 69.735 86.7059 69.9601 86.9051 70.101 87.1049 70.244 87.3585 70.2878 87.5937 70.2214 88.434 69.98 89.1356 69.396 89.5274 68.614 89.8137 68.1493 89.9861 67.8678 90.5243 67.7159 91.0625 67.564 91.3566 67.7138 91.8436 67.9603 92.5857 68.4264 93.491 68.5569 94.3344 68.3188 95.1777 68.0808 95.8793 67.4968 96.2681 66.7115 96.5544 66.2467 96.7248 65.9658 97.263 65.8139 97.8012 65.662 98.0953 65.8118 98.5823 66.0583 99.3244 66.5243 100.228 66.6554 101.071 66.4174 101.914 66.1793 102.616 65.5953 103.005 64.81 103.291 64.3453 103.464 64.0638 104.002 63.9119 104.54 63.7599 104.832 63.9104 105.319 64.1568 106.059 64.6234 106.963 64.7545 107.806 64.5164 108.649 64.2784 109.351 63.6944 109.74 62.9091 110.024 62.4449 110.196 62.1634 110.735 62.0115 111.273 61.8596 111.565 62.01 112.052 62.2564 112.794 62.7225 113.698 62.8536 114.541 62.6155 115.384 62.3775 116.086 61.7935 116.475 61.0082 116.761 60.5434 116.931 60.2625 117.47 60.1106 118.008 59.9586 118.302 60.1085 118.789 60.355L118.787 60.3555C119.529 60.8216 120.432 60.9526 121.276 60.7146 122.119 60.4766 122.821 59.8925 123.209 59.1072 123.496 58.6425 123.666 58.3616 124.204 58.2096 124.743 58.0577 125.035 58.2081 125.522 58.4546 126.265 58.9162 127.168 59.0473 128.011 58.8137 128.246 58.7473 128.439 58.5774 128.535 58.3511 128.631 58.1268 128.619 57.8699 128.501 57.6535L125.05 51.2386zM75.3091 22.277C76.052 22.7386 76.9555 22.8697 77.7979 22.6361 78.6382 22.3947 79.3398 21.8107 79.7317 21.0287 80.0161 20.5645 80.1884 20.283 80.7266 20.1311 81.2648 19.9792 81.5589 20.1291 82.044 20.3761 82.7869 20.8377 83.6903 20.9688 84.5328 20.7352 85.3731 20.4938 86.0747 19.9098 86.4665 19.1278 86.7528 18.6631 86.9232 18.3821 87.4614 18.2302 87.9997 18.0783 88.2918 18.2287 88.7788 18.4751 89.5209 18.9412 90.4243 19.0723 91.2676 18.8342 92.1109 18.5962 92.8125 18.0122 93.2014 17.2269 93.4858 16.7627 93.6581 16.4812 94.1963 16.3293 94.7345 16.1774 95.0267 16.3278 95.5137 16.5742 96.2566 17.0359 97.1581 17.1675 98.0005 16.9339 98.8428 16.692 99.5444 16.1079 99.9362 15.326 100.221 14.8618 100.393 14.5803 100.931 14.4284S101.763 14.4263 102.25 14.6728L102.249 14.6733C102.993 15.1344 103.895 15.266 104.739 15.0319 105.58 14.7905 106.281 14.2065 106.673 13.4245 106.957 12.9603 107.13 12.6788 107.668 12.5269 108.206 12.375 108.5 12.5249 108.987 12.7713 109.729 13.2374 110.635 13.3679 111.478 13.1299 112.321 12.8918 113.023 12.3078 113.412 11.5225 113.432 11.4895 113.451 11.4591 113.469 11.4286L113.766 16.6799 77.7056 26.858 75.2135 22.2284C75.2454 22.2446 75.2772 22.2608 75.3091 22.277zM126.254 57.0143C125.512 56.5482 124.609 56.4172 123.766 56.6552 122.922 56.8932 122.221 57.4773 121.832 58.2626 121.546 58.7273 121.375 59.0082 120.837 59.1601 120.299 59.3121 120.005 59.1622 119.52 58.9152 118.778 58.4491 117.874 58.3181 117.031 58.5561 116.187 58.7941 115.486 59.3782 115.097 60.1635 114.811 60.6282 114.64 60.9091 114.102 61.0611 113.564 61.213 113.272 61.0626 112.785 60.8161 112.043 60.35 111.139 60.219 110.296 60.457 109.453 60.695 108.751 61.2791 108.362 62.0644 108.078 62.5286 107.905 62.8101 107.367 62.962 106.829 63.1139 106.537 62.9635 106.05 62.717 105.31 62.2504 104.404 62.1199 103.561 62.3579 102.718 62.596 102.016 63.18 101.627 63.9653 101.341 64.43 101.171 64.711 100.632 64.8629 100.094 65.0148 99.8001 64.8649 99.313 64.6185L99.315 64.618C98.573 64.1519 97.6676 64.0214 96.8262 64.2589 95.9829 64.4969 95.2793 65.0815 94.8905 65.8668 94.6061 66.331 94.4338 66.6124 93.8956 66.7644 93.3574 66.9163 93.0633 66.7664 92.5763 66.52 91.8342 66.0539 90.9288 65.9234 90.0855 66.1614S88.5406 66.9835 88.1518 67.7688C88.1317 67.8017 88.113 67.8322 88.0943 67.8626L87.7975 62.6114 123.858 52.4333 126.35 57.0628C126.318 57.0466 126.286 57.0305 126.254 57.0143zM123.392 50.8865 87.3857 61.0493C82.4506 50.7819 79.3332 39.7372 78.1717 28.4047L114.178 18.2419C119.113 28.5093 122.23 39.554 123.392 50.8865z" fill="#181818"/></g><path d="M696.119 277.32c-42.744-14.976-64.807 60.23-104.804 99.242" stroke="#0c8d7e" stroke-width="2.11986" stroke-linecap="round" stroke-dasharray="7.07 7.07"/><path d="M591.897 135.486C576.584 159.715 621.553 268.259 564.567 288.029" stroke="#0c8d7e" stroke-width="2.11986" stroke-linecap="round" stroke-dasharray="7.07 7.07"/><defs><clipPath id="clip0_1_32644"><rect width="51.6876" height="51.6876" fill="#fff" transform="translate(63.85 187.314) rotate(-27.3201)"/></clipPath><clipPath id="clip1_1_32644"><rect width="51.6876" height="51.6876" fill="#fff" transform="translate(0.661865 81.6313)"/></clipPath><clipPath id="clip2_1_32644"><rect width="51.6876" height="51.6876" fill="#fff" transform="translate(68.8895 21.7935) rotate(-15.7618)"/></clipPath></defs></svg>