<svg width="866" height="866" viewBox="0 0 866 866" fill="none" xmlns="http://www.w3.org/2000/svg">
<g clip-path="url(#clip0_80409_56)">
<path d="M432.996 717.137C589.923 717.137 717.137 589.923 717.137 432.996C717.137 276.069 589.923 148.854 432.996 148.854C276.069 148.854 148.854 276.069 148.854 432.996C148.854 589.923 276.069 717.137 432.996 717.137Z" fill="#48FF65"/>
<path d="M432.999 0C420.038 0 409.527 10.5087 409.527 23.4717C409.527 36.4347 420.038 46.9434 432.999 46.9434C531.008 46.9434 620.585 83.674 688.739 144.068L633.291 199.514C577.559 151.552 507.298 125.389 433.001 125.389C356.622 125.389 286.665 153.379 232.823 199.629L160.758 127.566C160.633 127.441 160.496 127.336 160.369 127.214C160.248 127.087 160.141 126.949 160.018 126.825C150.85 117.66 135.993 117.66 126.822 126.825C45.0389 208.608 0 317.346 0 432.999C0 671.757 194.245 865.998 432.999 865.998C548.658 865.998 657.395 820.959 739.178 739.175C820.961 657.39 866 548.654 866 432.999C866.002 194.245 671.757 0 432.999 0ZM617.437 248.795C626.596 257.965 641.455 257.977 650.629 248.813C651.309 248.133 651.925 247.413 652.505 246.675C652.554 246.626 652.608 246.586 652.657 246.536L721.934 177.261C777.47 239.933 812.971 320.727 818.323 409.529H792.209C779.248 409.529 768.737 420.038 768.737 433.001C768.737 445.964 779.248 456.473 792.209 456.473H818.333C813.179 542.978 779.591 624.059 722.068 688.874L666.371 633.177C712.621 579.335 740.611 509.38 740.611 432.999C740.611 420.036 730.1 409.527 717.139 409.527C704.178 409.527 693.667 420.036 693.667 432.999C693.667 576.732 576.732 693.669 432.997 693.669C289.263 693.669 172.328 576.733 172.328 432.999C172.328 289.265 289.263 172.329 432.997 172.329C502.689 172.333 568.188 199.488 617.437 248.795ZM432.999 766.474C420.038 766.474 409.527 776.983 409.527 789.946V818.323C320.725 812.969 239.93 777.468 177.26 721.934L232.823 666.373C286.665 712.623 356.62 740.612 433.001 740.612C509.382 740.612 579.337 712.623 633.179 666.373L688.876 722.07C624.062 779.593 542.98 813.179 456.473 818.334V789.949C456.471 776.983 445.962 766.474 432.999 766.474ZM47.6775 456.471H126.277C131.37 523.671 158.16 584.903 199.629 633.177L144.066 688.74C88.5301 626.068 53.0308 545.277 47.6775 456.471ZM143.932 177.128L199.629 232.824C158.162 281.1 131.372 342.331 126.277 409.531H47.6673C52.821 323.025 86.409 241.943 143.932 177.128Z" fill="#0C0C0D"/>
<path d="M536.664 347.267C535.191 345.793 533.3 345.053 530.996 345.053H493.587C490.795 331.432 485.543 319.594 477.823 309.591H530.492C532.798 309.591 534.687 308.85 536.16 307.376C537.637 305.9 538.374 304.011 538.374 301.709V276.583C538.374 274.282 537.637 272.393 536.16 270.915C534.687 269.442 532.796 268.701 530.492 268.701H335.006C332.705 268.701 330.816 269.443 329.338 270.915C327.861 272.391 327.124 274.281 327.124 276.583V309.333C327.124 311.476 327.905 313.318 329.471 314.885C331.021 316.434 332.868 317.215 335.006 317.215H366.011C400.649 317.215 422.656 326.484 432.015 345.036H335.006C332.705 345.036 330.816 345.777 329.338 347.265C327.861 348.742 327.124 350.617 327.124 352.918V378.038C327.124 380.339 327.861 382.228 329.338 383.706C330.814 385.18 332.704 385.92 335.006 385.92H435.467C431.851 399.393 423.436 409.653 410.213 416.706C397.003 423.761 379.559 427.302 357.894 427.302H335.004C332.866 427.302 331.019 428.07 329.47 429.633C327.907 431.196 327.122 433.041 327.122 435.184V461.033C327.122 464.534 328.374 467.922 330.647 470.582L432.999 594.341C434.476 596.305 436.524 597.296 439.153 597.296H487.178C490.617 597.296 493.009 595.819 494.304 592.853C495.959 589.903 495.636 587.109 493.334 584.483C445.394 525.712 422 499.859 394.581 470.636C422.487 467.357 445.142 458.326 462.546 443.554C479.946 428.776 490.543 409.56 494.321 385.934H530.993C533.298 385.934 535.187 385.193 536.661 383.705C538.137 382.228 538.875 380.339 538.875 378.052V352.931C538.878 350.633 538.141 348.743 536.664 347.267Z" fill="#0C0C0D"/>
</g>
<defs>
<clipPath id="clip0_80409_56">
<rect width="866" height="866" fill="white"/>
</clipPath>
</defs>
</svg>
