<svg width="491" height="517" viewBox="0 0 491 517" fill="none" xmlns="http://www.w3.org/2000/svg">
<g clip-path="url(#clip0_80430_723)">
<path d="M244.999 250.087C299.724 250.087 344.087 205.724 344.087 150.999C344.087 96.2734 299.724 51.9099 244.999 51.9099C190.273 51.9099 145.91 96.2734 145.91 150.999C145.91 205.724 190.273 250.087 244.999 250.087Z" fill="#48FF65"/>
<path d="M245 0C240.48 0 236.814 3.66471 236.814 8.18528C236.814 12.7058 240.48 16.3706 245 16.3706C279.178 16.3706 310.416 29.1796 334.184 50.2406L314.847 69.5763C295.412 52.8507 270.91 43.727 245 43.727C218.365 43.727 193.969 53.4877 175.192 69.6164L150.061 44.4861C150.018 44.4425 149.97 44.4059 149.926 44.3634C149.883 44.3192 149.846 44.2708 149.803 44.2277C146.606 41.0314 141.425 41.0314 138.227 44.2277C109.706 72.7479 94 110.668 94 151C94 234.262 161.739 301.999 245 301.999C285.333 301.999 323.253 286.293 351.773 257.772C380.294 229.251 396 191.332 396 151C396.001 67.739 328.262 0 245 0ZM309.319 86.7621C312.513 89.9602 317.695 89.9643 320.894 86.7685C321.131 86.5314 321.346 86.2802 321.548 86.023C321.565 86.0059 321.584 85.9917 321.601 85.9746L345.76 61.8163C365.127 83.6719 377.507 111.847 379.373 142.815H370.267C365.747 142.815 362.082 146.48 362.082 151C362.082 155.521 365.747 159.186 370.267 159.186H379.377C377.58 189.353 365.867 217.628 345.807 240.231L326.384 220.808C342.512 202.031 352.273 177.636 352.273 151C352.273 146.479 348.608 142.814 344.088 142.814C339.568 142.814 335.902 146.479 335.902 151C335.902 201.124 295.124 241.903 244.999 241.903C194.875 241.903 154.096 201.124 154.096 151C154.096 100.875 194.875 60.0963 244.999 60.0963C269.302 60.0975 292.144 69.5675 309.319 86.7621ZM245 267.292C240.48 267.292 236.814 270.957 236.814 275.478V285.373C205.846 283.507 177.671 271.126 155.816 251.76L175.192 232.384C193.969 248.513 218.364 258.274 245 258.274C271.637 258.274 296.032 248.513 314.808 232.384L334.231 251.807C311.629 271.867 283.353 283.58 253.186 285.378V275.479C253.185 270.957 249.52 267.292 245 267.292ZM110.627 159.185H138.037C139.813 182.62 149.155 203.973 163.616 220.808L144.24 240.184C124.873 218.329 112.493 190.154 110.627 159.185ZM144.193 61.7697L163.616 81.1927C149.156 98.0281 139.813 119.381 138.037 142.816H110.623C112.42 112.649 124.133 84.3726 144.193 61.7697Z" fill="#0C0C0D"/>
<path d="M281.151 121.102C280.637 120.589 279.977 120.33 279.174 120.33H266.129C265.155 115.58 263.323 111.452 260.631 107.963H278.998C279.802 107.963 280.461 107.705 280.975 107.191C281.49 106.676 281.747 106.018 281.747 105.215V96.4527C281.747 95.6505 281.49 94.9916 280.975 94.4761C280.461 93.9623 279.802 93.704 278.998 93.704H210.826C210.024 93.704 209.365 93.9629 208.85 94.4761C208.335 94.991 208.078 95.6499 208.078 96.4527V107.874C208.078 108.621 208.35 109.264 208.896 109.81C209.437 110.35 210.081 110.622 210.826 110.622H221.639C233.718 110.622 241.393 113.855 244.656 120.324H210.826C210.024 120.324 209.365 120.583 208.85 121.102C208.335 121.617 208.078 122.271 208.078 123.073V131.833C208.078 132.636 208.335 133.294 208.85 133.81C209.365 134.324 210.024 134.582 210.826 134.582H245.86C244.599 139.28 241.665 142.858 237.053 145.318C232.447 147.778 226.364 149.013 218.808 149.013H210.826C210.08 149.013 209.436 149.281 208.896 149.826C208.351 150.371 208.077 151.014 208.077 151.762V160.776C208.077 161.997 208.514 163.178 209.306 164.106L245 207.264C245.515 207.949 246.229 208.295 247.146 208.295H263.894C265.093 208.295 265.927 207.78 266.379 206.745C266.955 205.717 266.843 204.742 266.04 203.827C249.322 183.331 241.164 174.316 231.602 164.125C241.334 162.981 249.234 159.832 255.304 154.68C261.371 149.527 265.067 142.826 266.385 134.587H279.173C279.977 134.587 280.636 134.328 281.15 133.809C281.664 133.294 281.922 132.636 281.922 131.838V123.078C281.923 122.276 281.666 121.617 281.151 121.102Z" fill="#0C0C0D"/>
</g>
<path d="M61.468 455.077C60.3673 456.008 58.928 456.77 57.15 457.363C55.4567 457.871 53.467 458.125 51.181 458.125C48.133 458.125 45.593 457.744 43.561 456.982C41.6137 456.22 40.3437 454.908 39.751 453.045C37.3803 445.594 35.433 439.583 33.909 435.011C32.385 430.354 31.1997 426.29 30.353 422.819H29.718C29.464 427.814 29.2523 432.386 29.083 436.535C28.9983 440.599 28.9137 444.578 28.829 448.473C28.829 452.368 28.7443 456.305 28.575 460.284C28.4903 464.263 28.321 468.666 28.067 473.492C26.9663 473.915 25.527 474.254 23.749 474.508C21.971 474.847 20.193 475.016 18.415 475.016C14.6897 475.016 11.7687 474.423 9.652 473.238C7.62 472.053 6.604 469.894 6.604 466.761L10.287 401.991C10.9643 400.89 12.446 399.705 14.732 398.435C17.018 397.165 20.2353 396.53 24.384 396.53C28.8713 396.53 32.385 397.25 34.925 398.689C37.465 400.044 39.3277 402.287 40.513 405.42C41.275 407.452 42.0793 409.78 42.926 412.405C43.8573 415.03 44.7463 417.739 45.593 420.533C46.5243 423.327 47.4133 426.121 48.26 428.915C49.1067 431.624 49.8687 434.08 50.546 436.281H51.181C53.213 429.169 55.245 422.311 57.277 415.707C59.309 409.018 61.1717 403.43 62.865 398.943C64.135 398.266 65.7437 397.715 67.691 397.292C69.723 396.784 71.9667 396.53 74.422 396.53C78.5707 396.53 81.9573 397.165 84.582 398.435C87.2067 399.62 88.7307 401.356 89.154 403.642C89.4927 405.335 89.8313 407.96 90.17 411.516C90.5933 414.987 91.0167 418.924 91.44 423.327C91.8633 427.73 92.2867 432.386 92.71 437.297C93.1333 442.208 93.5143 446.949 93.853 451.521C94.2763 456.008 94.615 460.157 94.869 463.967C95.123 467.692 95.2923 470.571 95.377 472.603C93.9377 473.45 92.4137 474.042 90.805 474.381C89.281 474.804 87.2913 475.016 84.836 475.016C81.6187 475.016 78.9093 474.466 76.708 473.365C74.5067 472.264 73.3213 470.105 73.152 466.888C72.644 457.659 72.3053 449.362 72.136 441.996C72.0513 434.63 71.882 428.449 71.628 423.454H70.993C70.1463 426.756 68.9187 430.905 67.31 435.9C65.7013 440.895 63.754 447.288 61.468 455.077ZM171.164 443.139C171.164 448.388 170.36 453.087 168.751 457.236C167.142 461.3 164.856 464.729 161.893 467.523C159.014 470.317 155.543 472.434 151.479 473.873C147.415 475.312 142.885 476.032 137.89 476.032C132.895 476.032 128.365 475.27 124.301 473.746C120.237 472.222 116.723 470.063 113.76 467.269C110.881 464.39 108.638 460.919 107.029 456.855C105.42 452.791 104.616 448.219 104.616 443.139C104.616 438.144 105.42 433.614 107.029 429.55C108.638 425.486 110.881 422.057 113.76 419.263C116.723 416.384 120.237 414.183 124.301 412.659C128.365 411.135 132.895 410.373 137.89 410.373C142.885 410.373 147.415 411.177 151.479 412.786C155.543 414.31 159.014 416.511 161.893 419.39C164.856 422.184 167.142 425.613 168.751 429.677C170.36 433.741 171.164 438.228 171.164 443.139ZM126.714 443.139C126.714 448.304 127.688 452.283 129.635 455.077C131.667 457.786 134.461 459.141 138.017 459.141C141.573 459.141 144.282 457.744 146.145 454.95C148.092 452.156 149.066 448.219 149.066 443.139C149.066 438.059 148.092 434.164 146.145 431.455C144.198 428.661 141.446 427.264 137.89 427.264C134.334 427.264 131.582 428.661 129.635 431.455C127.688 434.164 126.714 438.059 126.714 443.139ZM220.785 434.884C220.785 432.259 220.023 430.354 218.499 429.169C217.06 427.899 215.07 427.264 212.53 427.264C210.837 427.264 209.144 427.476 207.45 427.899C205.842 428.322 204.445 428.957 203.259 429.804V473.873C202.413 474.127 201.058 474.381 199.195 474.635C197.417 474.889 195.555 475.016 193.607 475.016C191.745 475.016 190.051 474.889 188.527 474.635C187.088 474.381 185.86 473.873 184.844 473.111C183.828 472.349 183.024 471.333 182.431 470.063C181.923 468.708 181.669 466.973 181.669 464.856V426.756C181.669 424.47 182.135 422.607 183.066 421.168C184.082 419.729 185.437 418.416 187.13 417.231C190.009 415.199 193.607 413.548 197.925 412.278C202.328 411.008 207.196 410.373 212.53 410.373C222.098 410.373 229.464 412.49 234.628 416.723C239.793 420.872 242.375 426.671 242.375 434.122V473.873C241.529 474.127 240.174 474.381 238.311 474.635C236.533 474.889 234.671 475.016 232.723 475.016C230.861 475.016 229.167 474.889 227.643 474.635C226.204 474.381 224.976 473.873 223.96 473.111C222.944 472.349 222.14 471.333 221.547 470.063C221.039 468.708 220.785 466.973 220.785 464.856V434.884ZM288.322 476.032C283.327 476.032 278.67 475.355 274.352 474C270.119 472.561 266.394 470.444 263.176 467.65C260.044 464.856 257.546 461.342 255.683 457.109C253.905 452.876 253.016 447.923 253.016 442.25C253.016 436.662 253.905 431.878 255.683 427.899C257.546 423.835 259.959 420.533 262.922 417.993C265.886 415.368 269.272 413.463 273.082 412.278C276.892 411.008 280.787 410.373 284.766 410.373C289.254 410.373 293.318 411.05 296.958 412.405C300.684 413.76 303.859 415.622 306.483 417.993C309.193 420.364 311.267 423.2 312.706 426.502C314.23 429.804 314.992 433.402 314.992 437.297C314.992 440.176 314.188 442.377 312.579 443.901C310.971 445.425 308.727 446.399 305.848 446.822L274.479 451.521C275.411 454.315 277.316 456.432 280.194 457.871C283.073 459.226 286.375 459.903 290.1 459.903C293.572 459.903 296.831 459.48 299.879 458.633C303.012 457.702 305.552 456.643 307.499 455.458C308.854 456.305 309.997 457.49 310.928 459.014C311.86 460.538 312.325 462.147 312.325 463.84C312.325 467.65 310.547 470.486 306.991 472.349C304.282 473.788 301.234 474.762 297.847 475.27C294.461 475.778 291.286 476.032 288.322 476.032ZM284.766 426.121C282.734 426.121 280.956 426.46 279.432 427.137C277.993 427.814 276.808 428.703 275.876 429.804C274.945 430.82 274.225 432.005 273.717 433.36C273.294 434.63 273.04 435.942 272.955 437.297L294.672 433.741C294.418 432.048 293.487 430.354 291.878 428.661C290.27 426.968 287.899 426.121 284.766 426.121ZM334.512 458.252C333.581 456.135 332.565 453.765 331.464 451.14C330.448 448.515 329.348 445.51 328.162 442.123C327.062 438.736 325.876 434.884 324.606 430.566C323.421 426.163 322.151 421.126 320.796 415.453C321.982 414.268 323.548 413.252 325.495 412.405C327.527 411.474 329.729 411.008 332.099 411.008C335.063 411.008 337.518 411.643 339.465 412.913C341.413 414.098 342.852 416.384 343.783 419.771L353.816 454.696H354.324C355.34 451.817 356.314 448.685 357.245 445.298C358.261 441.911 359.235 438.44 360.166 434.884C361.098 431.243 361.944 427.645 362.706 424.089C363.553 420.448 364.273 416.892 364.865 413.421C367.913 411.812 371.258 411.008 374.898 411.008C377.862 411.008 380.317 411.643 382.264 412.913C384.212 414.183 385.185 416.384 385.185 419.517C385.185 421.803 384.889 424.47 384.296 427.518C383.704 430.481 382.899 433.656 381.883 437.043C380.952 440.43 379.809 443.943 378.454 447.584C377.184 451.14 375.83 454.654 374.39 458.125C372.951 461.596 371.469 464.898 369.945 468.031C368.421 471.079 366.94 473.831 365.5 476.286C363.13 480.435 360.928 483.821 358.896 486.446C356.864 489.071 354.917 491.103 353.054 492.542C351.192 494.066 349.329 495.082 347.466 495.59C345.604 496.183 343.656 496.479 341.624 496.479C338.068 496.479 335.19 495.421 332.988 493.304C330.787 491.187 329.475 488.436 329.051 485.049C331.761 482.932 334.47 480.562 337.179 477.937C339.889 475.397 342.344 472.772 344.545 470.063C343.106 469.64 341.54 468.666 339.846 467.142C338.238 465.533 336.46 462.57 334.512 458.252Z" fill="black"/>
<path d="M450.535 397.038C451.127 397.969 451.635 399.239 452.059 400.848C452.567 402.372 452.821 403.981 452.821 405.674C452.821 408.976 452.101 411.347 450.662 412.786C449.307 414.141 447.444 414.818 445.074 414.818H418.404V429.169H446.217C446.894 430.1 447.444 431.328 447.868 432.852C448.376 434.376 448.63 435.985 448.63 437.678C448.63 440.895 447.91 443.224 446.471 444.663C445.116 446.018 443.253 446.695 440.883 446.695H418.658V473.492C417.726 473.746 416.245 474 414.213 474.254C412.265 474.508 410.318 474.635 408.371 474.635C406.423 474.635 404.688 474.466 403.164 474.127C401.724 473.873 400.497 473.365 399.481 472.603C398.465 471.841 397.703 470.783 397.195 469.428C396.687 468.073 396.433 466.295 396.433 464.094V408.849C396.433 405.208 397.491 402.33 399.608 400.213C401.724 398.096 404.603 397.038 408.244 397.038H450.535ZM460.722 395.133C460.722 391.916 461.781 389.206 463.897 387.005C466.099 384.804 468.977 383.703 472.533 383.703C476.089 383.703 478.926 384.804 481.042 387.005C483.244 389.206 484.344 391.916 484.344 395.133C484.344 398.35 483.244 401.06 481.042 403.261C478.926 405.462 476.089 406.563 472.533 406.563C468.977 406.563 466.099 405.462 463.897 403.261C461.781 401.06 460.722 398.35 460.722 395.133ZM483.328 473.873C482.397 474.042 481 474.254 479.137 474.508C477.359 474.847 475.539 475.016 473.676 475.016C471.814 475.016 470.12 474.889 468.596 474.635C467.157 474.381 465.929 473.873 464.913 473.111C463.897 472.349 463.093 471.333 462.5 470.063C461.992 468.708 461.738 466.973 461.738 464.856V413.167C462.67 412.998 464.024 412.786 465.802 412.532C467.665 412.193 469.528 412.024 471.39 412.024C473.253 412.024 474.904 412.151 476.343 412.405C477.867 412.659 479.137 413.167 480.153 413.929C481.169 414.691 481.931 415.749 482.439 417.104C483.032 418.374 483.328 420.067 483.328 422.184V473.873Z" fill="#01DD24"/>
<defs>
<clipPath id="clip0_80430_723">
<rect width="302" height="302" fill="white" transform="translate(94)"/>
</clipPath>
</defs>
</svg>
