<svg width="1229" height="808" viewBox="0 0 1229 808" fill="none" xmlns="http://www.w3.org/2000/svg">
<path d="M950.159 212.222C950.048 212.215 949.946 212.252 949.854 212.334L948.357 213.654C947.764 213.207 947.136 212.919 946.474 212.791L948.582 210.932C948.675 210.851 948.724 210.755 948.731 210.644C948.738 210.532 948.701 210.431 948.62 210.339L947.733 209.333C947.652 209.241 947.556 209.191 947.445 209.184C947.334 209.177 947.232 209.214 947.14 209.296L939.316 216.193C939.223 216.274 939.174 216.371 939.167 216.482C939.16 216.593 939.197 216.694 939.278 216.787L940.434 218.097C940.509 218.183 940.606 218.229 940.723 218.237C940.84 218.244 940.942 218.21 941.027 218.135L942.268 217.041C943.655 215.819 944.862 215.413 945.892 215.825L942.009 219.248C941.917 219.329 941.867 219.426 941.861 219.537C941.854 219.649 941.89 219.75 941.971 219.842L942.858 220.847C942.939 220.939 943.035 220.989 943.146 220.996C943.257 221.003 943.359 220.966 943.451 220.885L947.472 217.34C947.803 218.007 947.828 218.714 947.548 219.463C947.268 220.212 946.694 220.969 945.827 221.733L944.911 222.541C944.826 222.616 944.779 222.712 944.772 222.829C944.764 222.947 944.798 223.049 944.874 223.134L945.786 224.169C945.909 224.309 946.079 224.4 946.264 224.427L954.727 225.769C954.855 225.795 954.972 225.763 955.077 225.67L957 223.975C957.137 223.854 957.181 223.711 957.128 223.546C957.09 223.37 956.979 223.269 956.794 223.245C952.802 222.585 950.953 222.375 948.825 222.173C949.826 221.057 950.414 219.897 950.589 218.691C950.764 217.486 950.511 216.343 949.828 215.264L951.296 213.97C951.388 213.889 951.438 213.792 951.444 213.681C951.451 213.57 951.414 213.468 951.333 213.377L950.447 212.371C950.366 212.279 950.27 212.229 950.159 212.222Z" fill="#0C0C0D"/>
<path d="M951.294 244.019C942.182 244.019 930.63 237.825 922.172 211.803C915.146 190.067 890.014 144.513 857.378 142.191C856.484 142.131 855.711 141.476 855.472 140.583C855.233 139.689 855.651 138.796 856.426 138.32C858.51 137.01 907.285 106.878 919.91 103.543C926.698 101.757 934.203 104.556 941.706 111.642C948.674 118.252 955.285 128.316 960.883 140.761C967.493 155.529 974.936 170.774 984.526 182.089C996.496 196.141 1008.53 200.25 1021.45 194.653C1022.16 194.355 1023.06 194.474 1023.65 195.011C1024.25 195.547 1024.49 196.379 1024.25 197.153C1017.88 218.711 966.183 242.113 954.332 243.841C953.26 243.959 952.308 244.019 951.294 244.019ZM863.512 138.915C879.949 142.488 893.348 155.469 901.983 166.368C914.192 181.671 922.411 199.238 926.104 210.493C932.892 231.453 942.182 241.28 953.616 239.672C963.502 238.243 1007.45 218.353 1018.29 200.132C986.669 208.885 966.063 162.735 957.012 142.488C946.411 118.728 931.94 104.734 920.982 107.652C911.214 110.213 876.495 130.995 863.512 138.915Z" fill="#2C2D2E"/>
<path d="M910.322 132.485C909.547 132.485 908.833 132.068 908.475 131.353C907.939 130.341 908.355 129.091 909.368 128.555C909.428 128.495 918.123 123.969 929.141 118.431C930.153 117.895 931.404 118.312 931.94 119.324C932.476 120.337 932.058 121.587 931.046 122.123C920.088 127.721 911.393 132.187 911.334 132.247C910.976 132.425 910.618 132.485 910.322 132.485Z" fill="#2C2D2E"/>
<path d="M908.653 146.062C907.999 146.062 907.403 145.764 906.987 145.228C906.331 144.275 906.51 142.965 907.463 142.31C911.154 139.63 923.245 133.437 935.632 127.959C936.704 127.482 937.894 127.959 938.371 129.031C938.847 130.103 938.371 131.294 937.298 131.77C925.329 137.07 913.299 143.144 909.904 145.645C909.548 145.883 909.071 146.062 908.653 146.062Z" fill="#2C2D2E"/>
<path d="M924.376 158.866C923.661 158.866 923.007 158.508 922.589 157.853C921.994 156.9 922.292 155.591 923.245 154.995C923.363 154.935 934.441 148.087 942.718 143.74C943.731 143.204 944.981 143.621 945.517 144.633C946.054 145.645 945.637 146.896 944.625 147.432C936.524 151.66 925.508 158.448 925.388 158.508C925.15 158.746 924.733 158.866 924.376 158.866Z" fill="#2C2D2E"/>
<path d="M934.023 175.419C933.369 175.419 932.713 175.121 932.356 174.585C931.7 173.632 931.88 172.322 932.832 171.668C932.892 171.608 940.515 166.128 947.662 161.603C948.614 161.007 949.925 161.247 950.519 162.259C951.115 163.211 950.877 164.522 949.865 165.116C942.778 169.583 935.334 175.001 935.215 175.061C934.917 175.299 934.441 175.419 934.023 175.419Z" fill="#2C2D2E"/>
<path d="M880.135 369.394C879.472 392.544 875.069 415.381 867.487 437.325C816.796 584.222 626.274 692.192 504.021 600.37C486.475 587.181 470.879 573.046 457.147 558.159C412.196 509.326 387.68 452.558 382.247 395.654C377.831 349.394 386.047 303.097 406.114 260.952C414.062 244.203 423.936 228.086 435.667 212.913C596.726 3.702 885.029 191.282 880.135 369.394Z" fill="#ABFBBD"/>
<path d="M850.052 438.426C799.362 585.324 608.839 693.293 486.586 601.471C469.04 588.282 453.444 574.147 439.712 559.262C438.861 555.784 438.048 552.177 437.214 548.454C429.162 513.531 425.818 495.133 463.485 485.817C472.7 483.537 487.09 479.748 504.48 475.13C506.743 469.414 514.22 449.967 519.481 430.304C510.909 430.718 420.277 434.5 386.19 413.869C379.292 409.697 372.017 403.717 364.803 396.699C334.522 367.42 304.282 320.423 299.945 313.263C295.359 305.723 293.946 299.381 293.668 287.096C292.596 288.917 277.806 275.245 278.591 269.365C279.931 259.76 305.219 235.682 320.846 231.011C323.599 230.166 334.013 242.67 332.256 243.34C342.453 242.884 363.182 244.211 368.614 248.64C371.009 250.578 379.217 255.67 388.619 262.064C403.842 272.336 422.135 285.998 423.973 295.107C426.982 309.876 429.181 309.309 433.829 308.919C438.535 308.518 442.738 310.078 443.273 315.547C443.818 321.074 445.379 325.154 454.39 322.063C463.413 319.032 469.908 319.527 473.073 326.893C476.227 334.2 501.609 329.996 511.259 328.487C520.912 326.979 570.502 322.223 576.857 324.676C574.544 291.106 578.598 236.59 578.598 236.59C578.598 236.59 536.015 230.265 535.471 223.71C535.185 220.011 565.202 201.877 584.846 190.456C585.119 190.288 598.056 189.594 604.368 185.586C604.368 185.586 598.528 218.168 636.665 224.304C636.665 224.304 638.181 230.205 640.825 230.105C642.626 230.031 645.019 228.162 645.216 222.384C645.302 219.77 644.941 216.326 643.925 211.909C643.925 211.909 644.16 211.868 644.629 211.787L644.687 211.776C650.622 210.797 656.298 210.407 661.107 210.593C667.806 210.871 672.735 212.426 674.217 215.37C676.515 219.863 673.914 226.063 659.922 230.75C657.392 248.06 660.72 262.228 666.017 262.087C671.861 261.97 673.702 259.714 676.11 257.236C678.517 254.76 682.465 264.526 672.255 274.234C664.27 281.8 653.349 286.07 643.463 281.755C644.019 298.041 644.747 316.353 645.786 332.977C649.901 332.317 716.934 360.176 734.753 365.941C746.298 369.723 769.677 378.929 788.927 394.6C823.433 386.563 834.044 387.425 842.555 413.925C844.338 418.933 846.936 427.546 850.052 438.426Z" fill="white"/>
<path d="M586.264 219.953C584.939 219.639 584.154 218.266 584.477 217L586.013 210.928C586.325 209.604 587.7 208.819 588.966 209.141C590.29 209.453 591.075 210.827 590.753 212.092L589.216 218.165C588.963 219.48 587.599 220.323 586.264 219.953Z" fill="#2C2D2E"/>
<path d="M602.218 224.051C600.893 223.738 600.108 222.364 600.431 221.099L601.967 215.026C602.279 213.702 603.654 212.917 604.92 213.24C606.244 213.552 607.029 214.925 606.707 216.191L605.17 222.263C604.858 223.589 603.542 224.363 602.218 224.051Z" fill="#2C2D2E"/>
<path d="M577.324 326.65C577.266 326.659 577.206 326.67 577.089 326.692C575.954 326.768 574.958 325.916 574.88 324.781C572.803 294.977 575.816 248.322 576.489 238.349C572.938 237.762 564.91 236.447 556.857 234.655C536.718 230.14 533.715 226.798 533.446 223.882C533.282 221.916 533.045 219.177 567.27 198.491C583.666 188.547 600.34 179.158 600.506 179.069C601.5 178.531 602.766 178.854 603.361 179.838C603.898 180.832 603.576 182.098 602.593 182.694C572.819 199.455 541.052 218.983 537.761 223.672C538.454 224.516 541.991 227.102 558.656 230.773C568.847 233.039 578.836 234.494 578.964 234.53C580.022 234.709 580.793 235.661 580.744 236.758C580.719 237.306 576.721 291.45 579.01 324.541C579.126 325.549 578.38 326.464 577.324 326.65Z" fill="#2C2D2E"/>
<path d="M609.464 255.065C608.35 255.26 607.247 254.486 607.052 253.371C606.857 252.257 607.631 251.154 608.745 250.959C618.777 249.202 623.862 243.716 622.971 235.529C622.836 234.404 623.678 233.351 624.804 233.214C625.928 233.077 626.982 233.921 627.119 235.045C628.212 245.434 621.607 252.938 609.464 255.065Z" fill="#2C2D2E"/>
<path d="M646.331 335.059C646.273 335.07 646.154 335.09 646.096 335.1C644.961 335.179 643.965 334.325 643.878 333.131C642.936 318.787 642.148 301.513 641.535 281.792C640.695 255.942 640.415 235.014 640.374 234.779C640.375 233.752 641.122 232.835 642.128 232.719C648.895 231.655 654.71 230.334 659.386 228.729C669.14 225.389 671.9 221.822 672.669 219.994C673.179 218.756 673.139 217.493 672.501 216.275C670.461 212.22 655.607 210.953 636.817 215.512C635.713 215.767 634.571 215.12 634.308 213.957C634.053 212.853 634.7 211.711 635.863 211.447C652.573 207.433 672.324 206.634 676.285 214.404C677.479 216.734 677.548 219.2 676.58 221.607C674.756 226.037 669.49 229.801 660.81 232.712C656.298 234.228 650.905 235.535 644.618 236.575C644.693 242.185 645.019 260.264 645.753 281.717C646.416 301.37 647.194 318.586 648.124 332.871C648.133 333.957 647.386 334.875 646.331 335.059Z" fill="#2C2D2E"/>
<path d="M450.731 607.691L436.736 552.184C436.063 550.002 433.954 540.329 430.895 519.088C427.838 497.848 448.029 487.739 458.506 485.341L604.794 447.417C654.321 432.878 761.379 401.458 793.39 392.09C825.401 382.722 837.061 396.286 838.889 404.238C856.04 463.239 891.262 586.253 894.95 606.303C899.56 631.364 890.982 639.928 887.132 643.609C884.05 646.552 756.648 690.682 693.331 712.378C659.996 724.523 582.992 750.875 541.663 759.127C500.335 767.379 487.045 750.414 485.566 740.899L472.408 698.22L470.478 691.96L454.627 689.057L448.645 678.749L442.084 648.368L438.652 617.023L443.334 609.971L450.731 607.691Z" fill="white"/>
<path d="M642.352 225.364C641.355 225.54 640.341 224.93 639.991 223.964C639.619 222.881 640.255 221.681 641.349 221.369C649.425 218.805 658.766 217.593 659.186 217.579C660.313 217.443 661.356 218.228 661.503 219.41C661.64 220.535 660.796 221.59 659.672 221.727C659.554 221.747 650.321 222.881 642.597 225.381C642.527 225.334 642.469 225.343 642.352 225.364Z" fill="#2C2D2E"/>
<path d="M631.158 179.746C631.158 179.746 644.475 170.522 657.375 180.657C672.404 192.594 661.485 209.983 661.273 210.504C653.017 210.318 644.091 211.82 644.091 211.82C647.477 225.979 642.002 229.234 639.418 229.324C636.776 229.424 636.831 224.215 636.831 224.215C598.694 218.079 604.534 185.497 604.534 185.497C598.222 189.505 585.285 190.199 585.012 190.368C585.44 168.649 619.084 165.357 631.158 179.746Z" fill="#2C2D2E"/>
<path d="M640.257 231.352C639.963 231.405 639.73 231.446 639.426 231.438C638.34 231.448 637.367 231.073 636.636 230.355C635.471 229.229 635.035 227.431 634.858 226.071C622.856 223.821 613.924 218.735 608.375 210.88C602.68 202.87 601.97 193.986 602.135 189.061C596.426 191.33 589.06 192.077 586.271 192.382C585.92 192.445 585.617 192.438 585.499 192.458C584.981 192.61 584.422 192.525 583.95 192.246C583.282 191.879 582.913 191.158 582.907 190.433C583.136 181.385 588.659 174.252 598.108 170.904C609.891 166.725 623.914 169.467 631.546 177.138C635.7 174.96 647.439 170.184 658.673 179.098C673.142 190.59 665.805 206.687 663.179 211.378L663.082 211.516C662.726 212.243 661.956 212.681 661.173 212.696C655.592 212.586 649.663 213.261 646.525 213.63C647.812 220.297 647.238 225.294 644.776 228.506C643.643 229.974 641.959 231.054 640.257 231.352ZM639.479 227.257C639.831 227.196 640.701 226.982 641.544 225.928C642.629 224.529 644.107 220.885 642.068 212.355C641.907 211.779 642.05 211.209 642.388 210.727C642.727 210.244 643.214 209.917 643.801 209.814C644.153 209.753 652.092 208.484 660.071 208.476C662.915 202.96 667.114 191.041 656.155 182.321C644.644 173.213 632.531 181.379 632.423 181.459C631.568 182.092 630.323 181.888 629.641 181.1C623.461 173.778 610.278 171.009 599.569 174.759C595.411 176.213 588.607 179.823 587.322 188.028C591.293 187.574 599.138 186.442 603.442 183.754C604.153 183.327 605.064 183.349 605.743 183.774C606.433 184.258 606.753 185.047 606.651 185.851C606.613 185.978 604.58 198.184 611.881 208.453C617.012 215.655 625.558 220.265 637.253 222.145C638.254 222.334 639.005 223.169 639.014 224.255C638.916 225.421 639.152 226.77 639.479 227.257Z" fill="#2C2D2E"/>
<path d="M672.432 274.204C664.445 281.769 653.525 286.04 643.64 281.725C642.807 255.572 642.489 234.772 642.489 234.772C649.725 233.626 655.529 232.246 660.088 230.661C657.558 247.971 660.886 262.139 666.183 261.998C672.026 261.881 673.868 259.624 676.276 257.147C678.705 254.787 682.584 264.506 672.432 274.204Z" fill="#2C2D2E"/>
<path d="M656.337 285.183C651.703 285.995 647.088 285.534 642.833 283.679C642.116 283.382 641.619 282.622 641.604 281.838C640.764 255.99 640.484 235.062 640.443 234.827C640.444 233.799 641.191 232.882 642.197 232.765C648.964 231.702 654.779 230.381 659.455 228.776C660.139 228.535 660.895 228.706 661.455 229.151C662.018 229.596 662.268 230.34 662.216 231.074C660.187 245.031 662.119 256.059 664.984 259.305C665.43 259.772 665.843 260.062 666.206 260.059C670.787 259.982 672.331 258.442 674.378 256.33L674.893 255.817C675.767 254.938 676.861 254.626 677.999 254.91C679.393 255.27 680.482 256.652 681.007 258.615C681.989 262.494 680.714 269.367 673.982 275.806C668.413 280.952 662.32 284.135 656.337 285.183ZM645.694 280.336C653.628 283.179 662.995 280.39 671.029 272.755C676.372 267.709 677.019 263.122 677.025 261.428C677.019 260.704 676.975 260.107 676.844 259.706C674.641 261.967 672.171 264.092 666.21 264.23C665.064 264.248 663.426 263.87 661.787 262.102C657.873 257.709 656.241 246.328 657.607 233.755C653.808 234.844 649.45 235.848 644.571 236.643C644.673 242.065 645.002 259.48 645.694 280.336Z" fill="#2C2D2E"/>
<path d="M746.43 604.146C745.198 604.361 744.004 604.45 742.918 604.458C741.772 604.478 740.824 603.556 740.806 602.41C740.786 601.264 741.709 600.318 742.854 600.298C750.264 600.149 765.417 594.835 784.096 560.308C819.451 494.991 826.799 459.97 812.042 426.463C796.177 390.428 748.486 372.543 734.251 367.903C726.749 365.469 711.044 359.333 694.354 352.764C674.366 344.959 649.574 335.275 646.204 335.02C645.569 335.191 644.371 335.945 643.076 336.838C637.925 340.219 628.274 346.563 608.748 345.206C590.215 343.979 584.214 335.962 580.254 330.61C578.75 328.576 577.572 327.03 576.206 326.483C570.755 324.354 522.963 328.675 511.717 330.401L510.543 330.607C492.062 333.481 474.511 335.103 471.257 327.573C469.509 323.466 466.329 320.154 455.199 323.917C450.688 325.432 447.487 325.449 445.104 323.931C442.379 322.172 441.655 318.731 441.345 315.582C441.236 314.271 440.83 310.231 434.158 310.796L433.795 310.799C427.25 311.401 424.904 309.393 422.075 295.319C419.902 284.636 390.605 265.463 376.538 256.26C372.1 253.349 368.89 251.251 367.411 250.059C362.965 246.425 343.753 244.772 332.468 245.237C331.321 245.257 330.326 244.403 330.306 243.259C330.288 242.113 331.14 241.117 332.286 241.097C341.408 240.709 363.641 241.652 370.058 246.876C371.33 247.922 374.676 250.117 378.841 252.833C400.488 266.998 423.864 283.096 426.171 294.541C427.477 300.962 428.663 304.624 429.88 306.043C430.562 306.831 431.119 306.914 433.439 306.69L433.8 306.687C440.532 306.112 444.895 309.277 445.512 315.215C445.801 318.248 446.382 319.839 447.396 320.447C448.557 321.211 450.759 321.006 453.903 319.973C457.955 318.598 470.238 314.512 475.141 325.925C475.46 326.716 477.457 329.146 488.939 328.768C496.398 328.55 504.876 327.246 509.99 326.412L511.163 326.206C518.223 325.091 570.413 319.638 577.808 322.513C580.274 323.473 581.849 325.555 583.671 328.017C587.382 332.988 592.51 339.829 609.086 340.916C627.259 342.147 635.769 336.546 640.862 333.174C642.819 331.925 644.222 330.954 645.698 330.756C648.29 330.363 659.869 334.683 695.947 348.737C712.566 355.257 728.273 361.393 735.646 363.79C750.323 368.534 799.391 387.024 815.953 424.629C831.309 459.482 823.949 495.473 787.861 562.127C771.101 593.115 756.578 602.369 746.43 604.146Z" fill="#2C2D2E"/>
<path d="M702.701 565.738C701.82 565.892 700.897 565.45 700.449 564.622C693.915 551.134 694.219 547.697 696.812 540.411C697.837 537.632 701.92 530.569 707.173 521.547C715.995 506.34 729.338 483.448 730.224 475.735C731.522 464.506 724.569 450.005 665.794 420.277C664.791 419.728 664.339 418.536 664.88 417.475C665.43 416.472 666.62 416.022 667.682 416.561C725.327 445.701 736.011 461.483 734.351 476.162C733.363 484.677 720.881 506.27 710.792 523.573C705.868 532.053 701.641 539.323 700.788 541.709C698.548 547.905 698.226 550.199 704.281 562.68C704.77 563.743 704.378 564.961 703.315 565.45C703.052 565.677 702.876 565.708 702.701 565.738Z" fill="#2C2D2E"/>
<path d="M519.901 432.348C519.842 432.358 519.724 432.378 519.666 432.389C509.537 432.893 419.587 436.435 385.236 415.67C346.89 392.461 298.765 315.163 298.329 314.393C293.574 306.581 291.961 299.789 291.754 286.525C291.735 285.381 292.657 284.433 293.803 284.414C294.948 284.394 295.896 285.316 295.916 286.462C296.117 299.001 297.478 305.051 301.885 312.258C302.322 313.028 349.859 389.401 387.399 412.146C420.679 432.314 509.473 428.733 519.484 428.249C520.62 428.171 521.626 429.083 521.646 430.228C521.703 431.246 520.898 432.172 519.901 432.348Z" fill="#2C2D2E"/>
<path d="M504.898 477.173C504.546 477.235 504.116 477.19 503.792 477.064C502.75 476.643 502.172 475.414 502.593 474.373C505.778 466.319 521.583 425.04 523.018 400.788C523.058 399.633 524.049 398.734 525.215 398.831C526.37 398.871 527.21 399.872 527.172 401.028C525.732 425.946 509.668 467.813 506.494 475.926C506.187 476.585 505.543 477.059 504.898 477.173Z" fill="#2C2D2E"/>
<path d="M732.235 616.306C730.886 616.542 728.07 617.035 709.603 601.347C703.776 596.382 692.028 585.926 691.24 584.189C688.498 578.201 697.788 565.995 700.725 562.397C701.121 561.904 701.678 561.624 702.284 561.64C702.882 561.595 703.47 561.855 703.847 562.273C713.052 572.026 738.213 597.968 743.846 600.791C744.378 601.06 744.754 601.478 744.915 602.054C745.077 602.63 744.992 603.189 744.713 603.662C743.603 605.608 737.809 615.329 732.235 616.306ZM694.955 582.268C696.033 583.591 703.563 590.677 712.239 598.104C727.374 610.991 731.017 612.106 731.575 612.189C733.959 611.651 737.584 607.147 740.059 603.327C731.47 597.094 709.231 574.026 702.486 566.924C697.961 572.855 694.182 579.926 694.955 582.268Z" fill="#2C2D2E"/>
<path d="M669.863 675.109C668.338 675.376 667.023 675.122 666.038 674.328C664.639 673.244 664.075 671.408 664.454 668.741C661.712 671.035 658.761 672.821 656.573 672.419C655.26 672.165 654.323 671.302 653.782 669.946C652.02 665.055 656.029 658.609 660.34 651.809C663.122 647.331 666.003 642.716 666.679 639.334C667.673 633.96 667.485 630.123 667.156 628.246C667.049 628.326 666.941 628.406 666.825 628.426C659.985 632.526 652.335 636.827 647.8 635.446C646.456 635.016 645.458 634.163 644.881 632.934C642.749 628.351 650.482 621.071 666.749 606.252C675.408 598.387 685.272 589.465 691.623 581.884C692.379 581.027 693.68 580.86 694.539 581.616C695.396 582.373 695.563 583.672 694.807 584.531C688.252 592.328 678.291 601.389 669.525 609.332C663.792 614.568 658.36 619.449 654.418 623.526C649.147 628.982 648.672 630.759 648.685 631.18C648.765 631.286 648.834 631.335 649.03 631.421C652.22 632.374 661.621 626.678 664.738 624.801C666.493 623.768 666.98 623.441 667.448 623.36C668.26 623.157 669.143 623.364 669.794 623.976C672.102 626.111 671.94 633.818 670.797 640.063C670.02 644.249 666.898 649.21 663.921 653.962C660.606 659.199 656.934 665.161 657.655 668.239C659.326 667.766 663.76 664.087 667.339 660.015C667.989 659.236 669.172 659.088 669.989 659.611C670.876 660.181 671.188 661.274 670.804 662.188C668.018 668.721 668.533 670.626 668.654 670.969C669.084 671.013 670.914 670.754 674.338 668.219C675.088 667.665 676.176 667.655 676.886 668.257C677.24 668.557 677.85 668.935 679.033 668.787C684.167 668.07 692.889 658.139 697.146 652.073C697.775 651.177 698.938 650.913 699.872 651.414C700.806 651.916 701.188 653.058 700.756 654.041C699.613 656.841 698.235 661.737 698.963 663.483L698.974 663.542C700.737 662.568 705.658 657.173 713.158 645.46C720.321 634.231 726.615 622.186 729.969 613.376C730.381 612.277 731.562 611.768 732.662 612.18C733.762 612.591 734.271 613.771 733.859 614.871C730.255 624.329 723.314 637.515 715.648 649.317C702.558 669.505 699.198 668.279 697.774 667.743C696.606 667.282 695.668 666.419 695.159 665.237C694.751 664.282 694.623 663.216 694.594 662.012C690.355 666.804 684.594 672.227 679.588 672.983C678.168 673.172 676.866 672.976 675.686 672.457C673.466 673.933 671.506 674.821 669.863 675.109Z" fill="#2C2D2E"/>
<path d="M669.218 663.494C668.631 663.597 668.005 663.465 667.511 663.067C666.594 662.32 666.485 661.01 667.243 660.151C674.319 651.537 681.198 640.418 682.183 637.405C682.536 636.314 683.696 635.689 684.796 636.1C685.885 636.454 686.512 637.613 686.1 638.713C684.828 642.503 677.551 654.114 670.369 662.809C670.137 663.211 669.688 663.411 669.218 663.494Z" fill="#2C2D2E"/>
<path d="M675.918 672.053C675.273 672.167 674.575 671.987 674.062 671.473C673.252 670.646 673.262 669.314 674.087 668.505C683.634 659.156 692.228 643.323 692.325 643.185C692.873 642.182 694.133 641.779 695.136 642.329C696.139 642.879 696.542 644.139 695.992 645.142C695.626 645.81 686.985 661.712 677.019 671.437C676.718 671.792 676.328 671.983 675.918 672.053Z" fill="#2C2D2E"/>
<path d="M699.121 655.415C698.653 655.497 698.152 655.403 697.68 655.124C696.666 654.515 696.382 653.234 697.001 652.28C697.975 650.598 699.086 648.65 699.578 647.658C699.896 647.057 700.897 645.189 702.687 646.085C703.415 646.441 704.266 647.501 703.612 648.945C703.573 649.073 703.477 649.211 703.369 649.291C703.321 649.36 703.272 649.429 703.235 649.557C702.685 650.56 701.655 652.614 700.572 654.376C700.254 654.975 699.708 655.313 699.121 655.415Z" fill="#2C2D2E"/>
<path d="M452.366 610.79C451.31 610.976 450.286 610.309 449.983 609.274C448.751 604.653 442.359 579.897 435.181 548.932C430.886 530.277 428.253 517.318 431.213 506.945C434.418 495.562 444.228 488.402 463.009 483.783C477.665 480.129 505.624 472.692 538.03 464.055C587.473 450.861 648.981 434.406 684.395 426.028C685.499 425.773 686.65 426.478 686.903 427.583C687.158 428.687 686.452 429.839 685.349 430.093C649.993 438.46 588.534 454.847 539.101 468.099C506.697 476.737 478.746 484.232 464.021 487.838C446.874 492.11 438.045 498.312 435.286 508.106C432.631 517.458 435.192 530.007 439.306 547.967C446.473 578.874 452.854 603.571 454.028 608.201C454.341 609.295 453.636 610.447 452.542 610.759C452.482 610.77 452.424 610.78 452.366 610.79Z" fill="#2C2D2E"/>
<path d="M471.495 694.799C462.812 696.319 457.28 695.112 454.312 691.279C443.859 677.513 437.615 634.957 438.225 621.188C438.868 606.565 450.284 606.501 458.615 606.432C459.282 606.436 459.889 606.45 460.545 606.396C468.748 606.289 505.022 593.166 518.65 587.09C526.611 583.52 533.686 580.769 539.396 583.336C543.327 585.066 546.14 589.047 548.349 595.794C551.816 606.613 556.358 624.257 561.439 646.703C563.95 657.93 557.381 661.499 537.82 668.915C533.116 670.706 526.843 673.559 519.626 676.878C507.589 682.371 493.923 688.573 482.068 692.342C478.024 693.413 474.545 694.264 471.495 694.799ZM442.359 621.309C441.732 635.687 448.573 676.808 457.61 688.706C459.491 691.158 465.029 693.09 480.673 688.173C492.304 684.503 505.863 678.381 517.782 672.909C525.116 669.568 531.447 666.706 536.259 664.835C557.127 656.949 558.88 654.526 557.284 647.491C552.223 625.162 547.771 607.684 544.315 596.923C542.576 591.485 540.376 588.242 537.683 587.021C533.939 585.321 528.676 587.027 520.326 590.788C507.772 596.431 469.936 610.313 460.597 610.498C459.932 610.493 459.265 610.489 458.669 610.533C448.771 610.634 442.795 611.379 442.359 621.309Z" fill="#2C2D2E"/>
<path d="M545.065 761.351C500.248 769.201 489.647 757.697 486.062 746.898C482.9 737.477 476.198 715.436 470.921 692.903C470.667 691.8 471.372 690.648 472.477 690.395C473.581 690.141 474.732 690.846 474.987 691.949C480.233 714.306 486.904 736.171 490.056 745.534C491.853 750.962 495.832 757.46 510.837 759.245C529.547 761.469 560.447 755.635 602.64 741.776C645.008 727.887 699.915 708.96 748.439 692.241C799.589 674.637 843.718 659.413 859.082 654.969C887.564 646.715 903.246 640.28 893.781 603.851C884.55 568.41 849.42 441.379 840.846 414.527C832.836 389.51 823.392 388.746 789.639 396.593C788.534 396.846 787.383 396.141 787.13 395.037C786.875 393.932 787.582 392.782 788.685 392.528C806.577 388.365 817.883 386.628 826.324 389.261C834.775 391.952 840.16 398.868 844.733 413.241C853.375 440.142 888.526 567.29 897.766 602.791C907.981 642.111 890.423 650.265 860.212 659.002C844.965 663.425 800.836 678.651 749.745 696.244C701.281 712.954 646.314 731.89 603.888 745.79C579.583 753.734 560.375 758.671 545.065 761.351Z" fill="#2C2D2E"/>
<path d="M524.593 647.592C516.146 649.071 508.081 643.411 506.602 634.965C505.122 626.518 510.783 618.453 519.229 616.974C527.677 615.495 535.743 621.155 537.222 629.603C538.701 638.048 533.04 646.113 524.593 647.592ZM519.948 621.08C513.79 622.158 509.628 628.086 510.708 634.246C511.786 640.405 517.715 644.566 523.874 643.486C530.034 642.408 534.194 636.48 533.116 630.321C532.037 624.162 526.109 620.002 519.948 621.08Z" fill="#2C2D2E"/>
<path d="M293.931 289.289C293.462 289.37 292.914 289.345 292.324 289.086C288.72 287.843 275.775 275.722 276.719 269.027C278.233 258.001 304.8 233.639 320.428 228.968C321.746 228.556 323.96 228.773 328.79 233.911C331.16 236.398 333.803 239.744 334.455 241.746C335.177 243.796 333.982 244.912 333.133 245.242C329.181 246.841 300.772 279.324 295.605 288.149C295.278 288.689 294.694 289.155 293.931 289.289ZM321.333 233.102C306.313 237.789 282.017 260.966 280.826 269.698C280.356 273.227 289.196 282.62 292.846 284.823C298.65 276.189 322.259 248.053 330.142 242.32C328.573 239.572 323.256 233.732 321.333 233.102Z" fill="#2C2D2E"/>
<path d="M272.864 256.342C272.511 256.403 272.139 256.348 271.756 256.233C265.49 253.946 260.683 246.867 259.466 238.194C258.8 233.352 259.36 228.962 261.093 225.394C252.398 227.523 238.464 229.781 235.264 222.905C231.098 213.962 247.181 206.369 262.756 198.986C263.76 198.508 264.765 198.031 265.711 197.562C259.917 185.882 252.695 173.302 250.257 172.158C249.392 171.705 247.978 171.227 246.358 170.603C239.481 167.938 227.95 163.549 225.222 155.563C223.466 150.37 224.151 145.655 227.056 142.91C229.35 140.815 232.587 140.309 235.593 141.596C237.096 142.239 240.71 143.541 244.972 145.092C262.599 151.496 271.293 154.87 273.17 156.959C275.798 159.886 314.589 223.945 318.958 231.28C319.554 232.265 319.231 233.53 318.246 234.127C317.263 234.721 315.997 234.398 315.401 233.415C298.289 205.097 272.067 162.05 270.09 159.737C268.274 157.999 251.607 151.91 243.605 149.019C239.145 147.382 235.601 146.129 233.969 145.447C232.467 144.803 230.931 145.012 229.892 145.98C228.23 147.54 227.923 150.617 229.156 154.21C231.264 160.37 241.635 164.357 247.852 166.714C249.542 167.385 251.025 167.912 252.086 168.451C257.11 170.897 267.364 191.468 270.392 197.71C270.661 198.207 270.646 198.814 270.494 199.324C270.283 199.845 269.933 200.269 269.437 200.538C267.876 201.293 266.257 202.061 264.521 202.85C253.412 208.12 236.598 216.022 239.021 221.22C240.975 225.472 256.354 222.839 266.089 219.744C267.066 219.452 268.108 219.874 268.566 220.761C269.023 221.649 268.739 222.785 267.94 223.409C264.35 226.033 262.691 231.401 263.545 237.661C264.533 244.681 268.352 250.603 273.134 252.365C274.234 252.777 274.743 253.956 274.39 255.047C274.21 255.743 273.568 256.219 272.864 256.342Z" fill="#2C2D2E"/>
<path d="M279.126 271.387C279.009 271.406 278.892 271.426 278.765 271.39C274.173 271.408 264.638 268.059 256.117 261.873C248.562 256.365 239.005 246.673 236.581 231.804C236.386 230.688 237.16 229.586 238.275 229.39C239.389 229.195 240.492 229.97 240.687 231.083C242.864 244.547 251.613 253.412 258.548 258.486C266.86 264.526 275.313 267.217 278.7 267.228C279.846 267.21 280.793 268.131 280.813 269.277C280.822 270.363 280.065 271.222 279.126 271.387Z" fill="#2C2D2E"/>
<path d="M251.814 209.003C251.051 209.137 250.275 208.85 249.731 208.16C243.749 199.897 238.948 188.708 243.21 181.975C245.067 179.112 249.263 176.139 259.098 178.106C260.227 178.331 260.96 179.411 260.734 180.539C260.508 181.666 259.428 182.401 258.3 182.175C254.16 181.327 248.783 181 246.743 184.198C244.23 188.146 246.809 197.003 253.109 205.694C253.753 206.608 253.558 207.913 252.653 208.615C252.391 208.842 252.108 208.952 251.814 209.003Z" fill="#2C2D2E"/>
<path d="M240.216 216.658C239.571 216.771 238.805 216.543 238.351 216.017C232.404 209.684 227.698 199.384 230.777 192.799C232.046 190.037 235.183 186.888 242.941 187.344C244.096 187.382 244.938 188.384 244.898 189.539C244.858 190.696 243.857 191.536 242.701 191.496C238.361 191.229 235.639 192.25 234.532 194.559C232.425 199.1 236.374 207.839 241.353 213.134C242.162 213.959 242.095 215.301 241.259 216.052C241.018 216.397 240.627 216.586 240.216 216.658Z" fill="#2C2D2E"/>
<path d="M246.01 234.203C242.256 234.861 237.234 233.805 231.484 231.004C223.354 227.048 218.026 217.34 220.102 210.206C220.825 207.782 223.492 202.297 233.244 203.43C234.41 203.528 235.201 204.599 235.105 205.765C234.946 206.94 233.936 207.722 232.77 207.625C229.437 207.241 225.2 207.559 224.067 211.446C222.706 216.097 226.452 224.027 233.255 227.309C240.922 231.044 245.639 230.701 247.321 229.259C248.167 228.566 248.382 227.38 247.94 225.885C247.627 224.791 248.273 223.65 249.367 223.338C250.461 223.025 251.602 223.672 251.914 224.765C252.762 227.882 252.042 230.669 249.942 232.487C248.998 233.317 247.653 233.916 246.01 234.203Z" fill="#2C2D2E"/>
<path d="M469.624 585.399C468.567 585.583 467.485 584.927 467.23 583.823C466.309 579.933 465.336 576.115 464.376 572.353L463.617 569.403C463.362 568.299 464.009 567.158 465.113 566.904C466.218 566.649 467.359 567.296 467.613 568.4L468.372 571.351C469.334 575.112 470.304 578.932 471.237 582.88C471.492 583.984 470.845 585.124 469.682 585.388C469.741 585.379 469.682 585.388 469.624 585.399ZM462.619 556.458C461.505 556.654 460.471 555.928 460.216 554.824C459.657 552.322 459.197 550.045 458.829 547.933C458.314 545.001 457.979 542.4 457.724 539.905C457.587 538.781 458.431 537.725 459.624 537.638C460.749 537.501 461.804 538.345 461.892 539.538C462.127 541.914 462.442 544.398 462.935 547.214C463.295 549.266 463.743 551.486 464.244 553.998C464.497 555.102 463.792 556.253 462.619 556.458ZM460.849 527.025C460.555 527.076 460.253 527.069 459.996 526.993C458.859 526.708 458.233 525.549 458.528 524.469C459.532 520.544 461.317 517.27 463.772 514.724C464.792 513.639 466.173 512.55 467.799 511.479C468.773 510.825 470.039 511.147 470.682 512.063C471.337 513.035 471.014 514.301 470.1 514.946C468.747 515.848 467.627 516.708 466.753 517.587C464.763 519.688 463.345 522.295 462.52 525.522C462.291 526.287 461.611 526.891 460.849 527.025ZM482.757 508.86C481.76 509.034 480.817 508.475 480.465 507.508C480.095 506.424 480.613 505.246 481.687 504.816C485.836 503.303 490.698 501.725 496.05 500.184C497.146 499.871 498.286 500.518 498.599 501.611C498.911 502.705 498.264 503.846 497.17 504.158C491.926 505.622 487.18 507.178 483.147 508.67C482.992 508.819 482.876 508.839 482.757 508.86ZM511.427 500.634C510.371 500.819 509.288 500.163 509.035 499.058C508.78 497.954 509.485 496.803 510.59 496.55C517.558 494.906 523.168 493.802 525.281 493.431L525.339 493.422C526.453 493.227 527.547 493.941 527.742 495.057C527.937 496.17 527.221 497.264 526.116 497.517C524.073 497.935 518.512 498.971 511.602 500.604C511.485 500.624 511.427 500.634 511.427 500.634Z" fill="#2C2D2E"/>
<path d="M804.611 648.426C803.554 648.612 802.542 648.004 802.239 646.968C801.926 645.873 802.563 644.675 803.657 644.362C808.481 642.911 813.248 641.472 817.886 639.996C818.97 639.624 820.17 640.26 820.482 641.354C820.854 642.438 820.216 643.638 819.122 643.95C814.484 645.428 809.659 646.878 804.835 648.326C804.777 648.337 804.728 648.406 804.611 648.426ZM833.087 639.449C832.09 639.624 831.087 639.074 830.726 638.05C830.354 636.965 830.932 635.776 832.016 635.404C837.269 633.638 841.994 631.965 846.014 630.414C847.088 629.983 848.277 630.561 848.707 631.635C849.138 632.709 848.56 633.898 847.486 634.328C843.406 635.888 838.682 637.563 833.37 639.338C833.322 639.408 833.204 639.429 833.087 639.449ZM860.862 628.54C859.982 628.693 859.126 628.298 858.679 627.47C858.143 626.477 858.524 625.2 859.518 624.664C860.239 624.295 860.891 623.879 861.437 623.541C864.7 621.458 866.577 618.711 867.358 614.886C867.583 613.759 868.665 613.026 869.793 613.252C870.92 613.478 871.653 614.558 871.427 615.685C870.432 620.696 867.935 624.398 863.689 627.077C863.036 627.493 862.325 627.92 861.497 628.367C861.262 628.409 861.037 628.509 860.862 628.54ZM869.126 602.547C868.012 602.742 866.92 602.026 866.714 600.854C865.976 596.992 864.852 592.293 863.248 586.588C862.935 585.494 863.582 584.353 864.675 584.041C865.769 583.728 866.911 584.375 867.222 585.47C868.848 591.29 870.052 596.097 870.762 600.144C871.015 601.249 870.299 602.341 869.126 602.547ZM861.311 573.809C860.314 573.984 859.3 573.374 858.95 572.408C857.593 568.112 856.115 563.474 854.527 558.552L854.418 558.27C854.046 557.187 854.682 555.987 855.777 555.674C856.86 555.303 858.06 555.939 858.372 557.033L858.483 557.316C860.07 562.237 861.548 566.875 862.915 571.23C863.287 572.314 862.651 573.514 861.557 573.826C861.488 573.778 861.429 573.788 861.311 573.809Z" fill="#2C2D2E"/>
<path d="M554.403 733.9C548.821 734.818 543.783 735.398 539.35 735.63C538.214 735.709 537.208 734.796 537.19 733.652C537.111 732.516 538.024 731.51 539.168 731.49C543.425 731.289 548.288 730.741 553.695 729.853C554.809 729.658 555.912 730.432 556.107 731.547C556.293 732.603 555.519 733.705 554.403 733.9ZM568.929 730.873C567.872 731.059 566.79 730.401 566.535 729.297C566.282 728.194 566.987 727.042 568.091 726.788C571.287 726.046 574.697 725.148 578.281 724.217C579.377 723.905 580.527 724.61 580.841 725.704C581.153 726.797 580.447 727.95 579.354 728.261C575.777 729.251 572.299 730.102 569.045 730.853C569.045 730.853 568.987 730.864 568.929 730.873ZM524.869 734.418C524.576 734.47 524.271 734.463 524.016 734.386C518.199 732.927 513.79 730.192 510.514 725.989C509.812 725.085 509.947 723.791 510.852 723.089C511.757 722.387 513.051 722.522 513.754 723.427C516.464 726.822 520.125 729.083 525.001 730.344C526.14 730.629 526.825 731.779 526.53 732.857C526.312 733.682 525.631 734.285 524.869 734.418ZM506.414 713.287C505.359 713.472 504.336 712.805 504.033 711.77C503.143 708.419 502.4 704.862 501.615 701.069C501.329 699.789 501.094 698.441 500.799 697.101C500.544 695.997 501.249 694.846 502.423 694.64C503.527 694.387 504.678 695.092 504.884 696.266C505.179 697.603 505.416 698.952 505.7 700.233C506.476 703.966 507.208 707.465 508.019 710.708C508.331 711.803 507.626 712.954 506.532 713.266C506.532 713.266 506.474 713.277 506.414 713.287Z" fill="#2C2D2E"/>
<path d="M857.344 610.708C857.344 610.708 834.654 625.834 810.655 626.371C807.081 703.425 848.351 712.418 848.351 712.418C848.351 712.418 890.337 713.37 900.342 637.088C876.878 630.896 857.344 610.708 857.344 610.708Z" fill="white"/>
<path d="M848.411 714.443C848.351 714.443 848.291 714.443 848.291 714.443C848.173 714.443 848.053 714.443 847.875 714.383C847.399 714.264 836.739 711.822 826.555 699.555C817.323 688.419 806.723 666.685 808.57 626.191C808.628 625.119 809.522 624.226 810.595 624.226C833.701 623.75 855.974 609.1 856.152 608.922C856.986 608.386 858.118 608.506 858.833 609.22C859.011 609.398 878.306 629.05 900.819 635.004C901.831 635.243 902.485 636.256 902.367 637.268C898.138 669.483 887.896 692.23 871.876 704.914C860.262 714.145 849.781 714.443 848.411 714.443ZM812.619 628.335C811.189 666.267 821.075 686.514 829.712 696.935C838.287 707.237 847.101 709.917 848.529 710.274C849.96 710.215 859.309 709.679 869.493 701.461C879.617 693.303 892.719 675.795 897.96 638.518C878.128 632.683 861.572 617.676 857.046 613.269C851.746 616.604 833.045 627.263 812.619 628.335Z" fill="#2C2D2E"/>
<path d="M828.758 659.955C828.52 662.159 843.051 677.463 846.803 679.428C850.496 681.453 883.012 655.191 883.25 651.678C883.488 648.165 877.83 643.936 876.103 645.306C874.377 646.676 851.984 667.399 849.125 666.268C846.266 665.136 839.598 653.107 837.453 652.63C835.368 652.274 829.234 655.905 828.758 659.955Z" fill="#05DA1A"/>
<path d="M847.339 680.499C846.922 680.499 846.624 680.38 846.386 680.261C843.229 678.534 827.567 662.932 827.865 659.895C828.103 657.812 829.652 655.607 832.093 653.821C833.642 652.69 836.084 651.498 837.631 651.796C838.942 652.094 840.61 654.357 843.527 658.406C845.612 661.265 848.173 664.898 849.363 665.434C851.15 665.434 859.011 659.24 872.708 647.033C874.139 645.723 875.091 644.888 875.449 644.65C876.282 643.996 877.652 644.056 879.141 644.83C881.642 646.139 884.203 649.117 884.024 651.736C883.786 655.489 861.096 673.591 851.984 678.654C849.602 680.082 848.173 680.499 847.339 680.499ZM829.652 660.015C830.008 662.277 843.587 676.688 847.22 678.654C847.22 678.654 848.113 678.892 852.222 676.509C863.539 669.84 881.88 653.941 882.356 651.618C882.476 649.772 880.391 647.449 878.426 646.378C877.414 645.842 876.818 645.842 876.64 646.021C876.342 646.259 875.389 647.151 874.019 648.343C855.379 664.898 850.556 667.815 848.827 667.101C847.22 666.446 845.136 663.647 842.158 659.419C840.55 657.156 838.109 653.761 837.335 653.523C836.799 653.405 835.13 653.881 833.165 655.251C831.14 656.68 829.89 658.466 829.652 660.015Z" fill="#05DA1A"/>
<path d="M1195.28 427.066C1210.21 400.789 1202.09 367.989 1177.12 353.804C1152.16 339.618 1119.82 349.421 1104.88 375.698C1089.95 401.975 1098.08 434.776 1123.04 448.961C1148 463.147 1180.35 453.343 1195.28 427.066Z" fill="#3EFF51"/>
<path d="M1167.74 396.059C1167.63 395.795 1167.43 395.601 1167.14 395.478L1162.42 393.489C1162.79 391.621 1162.76 389.848 1162.32 388.175L1168.97 390.976C1169.26 391.099 1169.54 391.106 1169.8 390.998C1170.06 390.89 1170.26 390.691 1170.38 390.4L1171.72 387.23C1171.84 386.939 1171.85 386.662 1171.74 386.397C1171.63 386.132 1171.43 385.938 1171.14 385.816L1146.47 375.419C1146.18 375.297 1145.9 375.29 1145.64 375.397C1145.37 375.505 1145.18 375.704 1145.06 375.995L1143.31 380.128C1143.2 380.398 1143.2 380.672 1143.32 380.953C1143.43 381.231 1143.62 381.428 1143.89 381.542L1147.8 383.191C1152.17 385.033 1154.46 387.373 1154.65 390.212L1142.41 385.053C1142.12 384.93 1141.84 384.923 1141.58 385.033C1141.31 385.14 1141.12 385.338 1141 385.628L1139.66 388.798C1139.54 389.089 1139.53 389.366 1139.64 389.631C1139.75 389.896 1139.95 390.09 1140.24 390.212L1152.91 395.555C1151.74 397.063 1150.13 397.91 1148.09 398.097C1146.05 398.285 1143.66 397.804 1140.92 396.652L1138.04 395.435C1137.77 395.321 1137.49 395.32 1137.21 395.434C1136.93 395.549 1136.74 395.74 1136.62 396.01L1135.25 399.272C1135.06 399.714 1135.04 400.208 1135.18 400.665L1141.52 421.726C1141.6 422.053 1141.81 422.287 1142.14 422.427L1148.2 424.981C1148.63 425.164 1149.01 425.104 1149.34 424.799C1149.7 424.515 1149.81 424.145 1149.66 423.691C1146.73 413.725 1145.16 409.218 1143.25 404.072C1146.95 405.142 1150.29 405.207 1153.27 404.268C1156.25 403.329 1158.61 401.467 1160.34 398.687L1164.97 400.637C1165.26 400.76 1165.54 400.767 1165.8 400.657C1166.07 400.549 1166.26 400.35 1166.38 400.062L1167.72 396.891C1167.84 396.601 1167.85 396.324 1167.74 396.059Z" fill="#0C0C0D"/>
<path d="M1086.23 492.912C1089.12 489.365 1178.93 496.373 1181.92 499.946C1184.92 503.519 1183.35 519.699 1177.66 519.871C1171.93 519.979 1086.99 514.504 1085.03 512.092C1083.08 509.679 1084.11 495.524 1086.23 492.912Z" fill="#F8F8F8"/>
<path d="M1089.28 515.082C1084.25 514.3 1083.82 513.79 1083.5 513.352C1080.91 510.063 1082.21 494.895 1084.7 491.731C1085.45 490.848 1086.67 490.095 1094.95 490.047C1105.78 489.955 1126.47 491.113 1146.39 492.875C1181.04 495.98 1182.72 498.017 1183.39 498.73C1186.25 502.115 1185.74 511.802 1183.37 517.094C1181.61 520.926 1179.31 521.79 1177.69 521.817C1174.74 521.913 1152.03 520.552 1129.76 518.87C1106.28 517.111 1094.92 515.957 1089.28 515.082ZM1086.37 510.634C1088.96 511.426 1101.99 512.948 1131.56 515.154C1153.06 516.771 1174.84 518.045 1177.57 517.969C1178.29 517.969 1179.15 517.049 1179.84 515.492C1181.96 510.771 1181.8 503.255 1180.54 501.339C1178.01 500.115 1160.24 497.688 1134.19 495.697C1107.38 493.642 1090.41 493.507 1087.57 494.339C1086.12 496.835 1085.32 508.086 1086.37 510.634Z" fill="#2C2D2E"/>
<path d="M1084.86 473.167C1087.69 469.611 1177.58 476.076 1180.63 479.659C1183.68 483.239 1183.13 497.19 1177.44 497.363C1171.7 497.525 1085.78 494.783 1083.82 492.372C1081.87 489.958 1082.79 475.786 1084.86 473.167Z" fill="#F8F8F8"/>
<path d="M1086.3 494.977C1083 494.462 1082.62 494.017 1082.29 493.633C1079.64 490.335 1080.89 475.159 1083.37 472.049C1084.13 471.112 1085.29 470.403 1093.57 470.304C1104.42 470.156 1125.07 471.144 1145.01 472.85C1179.69 475.738 1181.37 477.775 1182.04 478.49C1184.71 481.623 1185.13 490.012 1182.85 495.04C1181.23 498.673 1178.75 499.286 1177.41 499.355C1174.45 499.451 1151.14 498.773 1129.03 497.837C1102.37 496.582 1091.12 495.725 1086.3 494.977ZM1085.16 490.914C1092.4 492.871 1169.21 495.696 1177.35 495.462C1178.29 495.442 1179.02 494.335 1179.43 493.454C1181.13 489.668 1180.76 483.118 1179.3 481.115C1176.77 479.89 1158.98 477.572 1132.91 475.744C1106.06 473.852 1089.1 473.769 1086.24 474.657C1084.81 477.098 1084.07 488.249 1085.16 490.914Z" fill="#2C2D2E"/>
<path d="M1093.83 452.586C1096.66 449.03 1188.22 458.695 1191.27 462.276C1194.32 465.858 1192.77 479.766 1187.03 479.929C1181.29 480.092 1094.69 474.193 1092.73 471.781C1090.83 469.377 1091.76 455.205 1093.83 452.586Z" fill="#F8F8F8"/>
<path d="M1097.21 474.752C1092.06 473.952 1091.59 473.434 1091.27 472.996C1088.62 469.7 1089.86 454.523 1092.35 451.412C1093.1 450.475 1094.4 450.01 1099.34 449.947C1110.13 449.79 1133.62 451.829 1152.16 453.93C1162.53 455.096 1172.04 456.351 1178.92 457.474C1191.26 459.446 1192.06 460.402 1192.67 461.107C1195.38 464.359 1195.09 472.304 1192.97 477.024C1191.61 480.086 1189.51 481.812 1187 481.868C1183.82 481.984 1159.65 480.396 1138.27 478.74C1114.53 476.884 1102.96 475.643 1097.21 474.752ZM1094.13 470.279C1096.73 471.07 1109.96 472.68 1140.18 474.987C1162.23 476.689 1184.38 478.021 1187 477.983C1188.22 477.95 1189.14 476.318 1189.56 475.385C1191.34 471.443 1191.21 465.486 1189.89 463.617C1187.43 462.347 1169.29 459.419 1142.69 456.677C1115.06 453.829 1098.12 453.196 1095.16 454.013C1093.76 456.571 1093.09 467.729 1094.13 470.279Z" fill="#2C2D2E"/>
<mask id="mask0_80424_507" style="mask-type:luminance" maskUnits="userSpaceOnUse" x="98" y="251" width="108" height="108">
<path d="M168.638 251.296L98.0896 287.737L134.533 358.279L205.081 321.839L168.638 251.296Z" fill="white"/>
</mask>
<g mask="url(#mask0_80424_507)">
<path d="M174.521 269.531C174.321 269.225 174.142 268.91 173.957 268.592C173.48 267.764 173.019 266.927 172.57 266.084C172.175 265.348 171.8 264.6 171.43 263.852C171.141 263.265 170.831 262.678 170.591 262.065L170.594 262.064C170.304 261.138 169.969 260.225 169.585 259.334C169.39 258.881 169.107 258.468 168.754 258.124C168.264 257.675 167.643 257.399 166.983 257.331C165.92 257.273 164.858 257.503 163.913 257.999C163.734 258.078 163.555 258.162 163.382 258.253L163.383 258.256C162.64 258.657 161.919 259.099 161.222 259.582C160.848 259.83 160.48 260.082 160.108 260.331C159.584 260.675 159.037 260.986 158.496 261.307C157.057 262.162 155.602 262.993 154.137 263.806C151.097 265.491 147.999 267.064 144.826 268.49C144.586 268.6 144.378 268.766 144.219 268.978C142.998 269.508 141.785 270.05 140.578 270.608C139.337 271.185 138.116 271.809 136.86 272.364C135.603 272.918 134.343 273.419 133.104 273.987C132.804 274.124 132.511 274.265 132.221 274.414C131.275 274.907 130.364 275.468 129.497 276.087C129.314 276.233 129.171 276.424 129.084 276.639C128.176 276.917 127.293 277.275 126.452 277.708C124.514 278.742 122.686 279.961 120.994 281.355C119.69 282.378 118.474 283.505 117.198 284.556C115.869 285.646 114.493 286.679 113.164 287.769L113.162 287.771C111.669 288.957 110.283 290.275 109.015 291.7C108.421 292.375 107.884 293.098 107.415 293.868C107.192 294.266 106.989 294.677 106.813 295.1C106.63 295.558 106.499 296.034 106.429 296.521C106.304 297.367 106.398 298.229 106.693 299.031C107.07 300.106 107.546 301.147 108.115 302.135C108.545 302.912 109.008 303.674 109.417 304.465C109.797 305.201 110.017 306.019 110.432 306.734C110.696 307.226 111.094 307.63 111.579 307.908C112.196 308.211 112.878 308.367 113.566 308.369C115.005 308.361 116.418 308.002 117.684 307.323C119.021 306.628 120.3 305.825 121.503 304.917C122.586 304.149 123.639 303.343 124.721 302.571C124.996 303.522 125.181 304.495 125.428 305.453C125.818 306.965 126.247 308.472 126.668 309.976C127.477 312.867 128.314 315.75 129.156 318.636C130.827 324.377 132.57 330.103 134.463 335.775C134.869 336.993 135.288 338.203 135.685 339.423L135.687 339.421C136.054 340.664 136.547 341.869 137.155 343.013C137.756 344.096 138.618 345.013 139.66 345.678C140.135 345.964 140.643 346.183 141.172 346.336C141.799 346.514 142.445 346.624 143.097 346.661C144.202 346.718 145.309 346.652 146.403 346.465C147.516 346.288 148.62 346.053 149.706 345.756C152.425 345.005 155.068 343.999 157.601 342.753C160.133 341.558 162.583 340.199 165.038 338.856C166.193 338.225 167.353 337.598 168.52 336.988C169.703 336.371 170.911 335.802 172.126 335.242C174.553 334.116 176.996 333.019 179.311 331.673L179.308 331.675C180.433 331.02 181.509 330.292 182.537 329.497C183.424 328.868 184.173 328.07 184.742 327.143C184.954 326.776 185.109 326.381 185.2 325.968C185.256 325.719 185.295 325.464 185.319 325.208C185.329 324.948 185.316 324.689 185.284 324.429C185.167 323.569 184.92 322.73 184.551 321.942C184.17 320.994 183.771 320.059 183.404 319.106C182.848 317.652 182.284 316.201 181.714 314.754C179.515 309.163 177.216 303.613 174.756 298.132C173.887 296.19 172.985 294.264 172.075 292.339C171.164 290.416 170.284 288.501 169.553 286.511C169.239 285.6 168.957 284.682 168.723 283.745C168.607 283.282 168.414 282.843 168.289 282.388C168.315 282.364 168.339 282.345 168.367 282.324C168.935 281.992 169.531 281.712 170.15 281.493C171.252 281.116 172.369 280.797 173.472 280.427C174.068 280.235 174.65 280.01 175.22 279.754C175.415 279.66 175.606 279.556 175.788 279.436C175.987 279.305 176.196 279.19 176.409 279.09C176.832 278.963 177.217 278.737 177.534 278.43C178.016 277.912 178.296 277.236 178.319 276.53C178.29 275.614 178.022 274.718 177.541 273.937C177.036 273.04 176.475 272.176 175.858 271.354C175.418 270.74 174.962 270.141 174.521 269.531ZM133.914 278.166L133.914 278.152C133.916 278 133.903 277.852 133.869 277.706L133.874 277.7C134.948 277.152 136.078 276.677 137.169 276.215C137.734 275.975 138.295 275.738 138.852 275.491C139.526 275.193 140.204 274.864 140.859 274.55L140.914 274.522C141.366 274.302 141.815 274.084 142.267 273.871C142.87 273.591 143.475 273.318 144.093 273.047L144.099 273.044C144.207 273.275 144.307 273.494 144.39 273.703L144.388 273.705C144.54 274.181 144.645 274.668 144.705 275.164C144.719 275.576 144.699 275.984 144.644 276.39C144.554 276.777 144.433 277.158 144.277 277.525C144.067 277.929 143.821 278.311 143.543 278.672C143.162 279.096 142.739 279.482 142.285 279.825C142.018 279.997 141.744 280.156 141.468 280.299C141.193 280.441 140.889 280.577 140.58 280.702C139.996 280.888 139.394 281.014 138.785 281.084C138.299 281.104 137.815 281.08 137.333 281.01C136.942 280.923 136.563 280.805 136.193 280.649C135.866 280.484 135.554 280.285 135.261 280.063C134.972 279.8 134.708 279.511 134.468 279.202C134.258 278.871 134.072 278.525 133.914 278.166ZM128.266 280.908L128.268 280.9C128.717 280.674 129.173 280.474 129.61 280.301L129.613 280.299C129.929 280.195 130.255 280.11 130.583 280.043C130.633 280.03 130.686 280.024 130.737 280.015C131.055 280.679 131.453 281.301 131.923 281.865C132.785 282.892 133.896 283.683 135.146 284.164C135.753 284.399 136.386 284.557 137.03 284.648C137.566 284.734 138.112 284.762 138.654 284.729C139.321 284.703 139.981 284.617 140.633 284.473C141.29 284.312 141.929 284.097 142.55 283.825C142.768 283.732 142.984 283.631 143.194 283.524C144.037 283.081 144.82 282.53 145.518 281.88C146 281.421 146.437 280.915 146.824 280.373C147.203 279.829 147.515 279.245 147.764 278.631C148.281 277.362 148.47 275.984 148.311 274.622C148.187 273.491 147.866 272.39 147.363 271.368L147.36 271.362C147.828 271.145 148.295 270.929 148.769 270.711L148.903 270.646L148.909 270.643C148.939 270.803 148.99 270.957 149.058 271.107C149.215 271.451 149.352 271.786 149.473 272.093L149.476 272.092C149.83 273.176 150.069 274.296 150.18 275.428C150.235 276.468 150.181 277.513 150.021 278.54C149.837 279.428 149.566 280.295 149.206 281.126C148.852 281.84 148.43 282.516 147.943 283.14C147.447 283.693 146.897 284.196 146.302 284.64C146.016 284.823 145.709 285 145.392 285.163L145.391 285.167C144.899 285.418 144.392 285.64 143.872 285.837C142.641 286.252 141.367 286.53 140.076 286.666C138.969 286.733 137.861 286.676 136.765 286.502C135.749 286.29 134.754 285.974 133.8 285.559C132.758 285.043 131.774 284.416 130.866 283.691C129.907 282.857 129.035 281.924 128.267 280.911L128.266 280.908ZM176.039 310.413C176.97 312.681 177.973 315.198 179.107 318.108C179.291 318.586 179.475 319.066 179.66 319.543L179.924 320.223L180.491 321.701C180.629 322.056 180.774 322.403 180.92 322.753L180.966 322.862L181.015 322.977C181.158 323.315 181.301 323.653 181.431 323.993L181.433 323.996C181.529 324.285 181.602 324.579 181.649 324.882C181.648 324.953 181.646 325.023 181.642 325.103C181.626 325.16 181.606 325.215 181.583 325.274L181.585 325.269C181.506 325.403 181.425 325.529 181.336 325.652C180.718 326.289 180.039 326.859 179.308 327.357C178.107 328.154 176.861 328.885 175.575 329.538C174.584 330.051 173.593 330.521 172.761 330.916C172.326 331.12 171.889 331.325 171.432 331.532C169.808 332.288 168.127 333.068 166.506 333.905C166.327 333.999 166.145 334.093 165.967 334.188C164.877 334.765 163.789 335.355 162.68 335.959C161.276 336.722 159.825 337.517 158.384 338.262L158.381 338.263C156.132 339.449 153.814 340.497 151.434 341.398C149.239 342.197 146.957 342.733 144.635 342.998C143.959 343.039 143.279 343.013 142.605 342.925C142.325 342.856 142.053 342.77 141.784 342.669C141.58 342.557 141.383 342.432 141.195 342.292C140.974 342.074 140.767 341.842 140.578 341.598C140.14 340.878 139.778 340.116 139.494 339.323C139.125 338.243 138.765 337.162 138.404 336.077L138.051 335.017C137.676 333.891 137.306 332.764 136.943 331.627L136.944 331.63C137.041 331.486 137.116 331.329 137.168 331.166C137.351 330.586 137.564 330.019 137.807 329.464C138.322 328.406 138.951 327.406 139.684 326.487C140.272 325.813 140.925 325.2 141.638 324.661C141.944 324.461 142.249 324.283 142.552 324.126C142.809 323.993 143.08 323.87 143.356 323.756L143.359 323.755C143.849 323.602 144.356 323.495 144.868 323.432C145.345 323.417 145.824 323.438 146.301 323.503C147.29 323.741 148.261 324.046 149.211 324.418C150.048 324.739 150.903 325.017 151.773 325.249C152.845 325.518 153.954 325.624 155.06 325.555C155.631 325.521 156.201 325.447 156.764 325.334C157.372 325.191 157.962 324.991 158.532 324.735C158.627 324.696 158.722 324.65 158.813 324.604C159.165 324.412 159.5 324.197 159.822 323.96C160.222 323.681 160.593 323.36 160.931 323.006C161.62 322.265 162.205 321.43 162.669 320.532C163.277 319.337 163.821 318.111 164.296 316.856L164.319 316.799C164.618 316.054 164.927 315.28 165.264 314.538L165.262 314.535C165.666 313.688 166.153 312.882 166.717 312.129C167.043 311.759 167.404 311.418 167.792 311.115C167.987 310.999 168.192 310.882 168.41 310.77L168.411 310.765C168.966 310.489 169.541 310.241 170.126 310.029L170.382 309.939L170.384 309.942C171.25 309.665 172.1 309.324 172.917 308.926C173.181 308.793 173.435 308.644 173.679 308.481C174.063 308.229 174.421 307.943 174.748 307.624C174.779 307.595 174.805 307.564 174.834 307.535L174.838 307.539L174.845 307.536C175.246 308.492 175.644 309.452 176.039 310.413ZM169.037 294.496C169.213 294.862 169.387 295.226 169.562 295.593C170.74 298.095 171.897 300.653 173.088 303.416L173.085 303.418C172.956 303.593 172.85 303.788 172.774 303.994C172.741 304.089 172.702 304.184 172.664 304.278C172.547 304.505 172.415 304.722 172.264 304.931C172.12 305.083 171.962 305.224 171.797 305.358C171.628 305.462 171.452 305.561 171.275 305.651L171.273 305.65C170.702 305.934 170.111 306.183 169.51 306.396C168.908 306.61 168.281 306.831 167.674 307.068L167.676 307.071C167.379 307.186 167.089 307.32 166.808 307.464C166.35 307.701 165.91 307.972 165.5 308.278C164.453 309.082 163.568 310.08 162.898 311.215C162.226 312.364 161.655 313.567 161.182 314.807C161.082 315.046 160.987 315.287 160.887 315.529L160.812 315.721C160.53 316.424 160.209 317.218 159.864 317.986L159.865 317.989C159.492 318.782 159.037 319.538 158.513 320.238C158.234 320.543 157.931 320.822 157.604 321.074C157.463 321.157 157.32 321.238 157.174 321.314C156.988 321.409 156.794 321.5 156.602 321.581L156.605 321.579C156.072 321.736 155.528 321.847 154.98 321.907C154.375 321.933 153.771 321.899 153.175 321.811C152.149 321.57 151.143 321.258 150.163 320.882C149.388 320.598 148.506 320.283 147.616 320.054C146.548 319.79 145.438 319.71 144.341 319.824C143.273 319.945 142.232 320.235 141.253 320.685C141.108 320.748 140.965 320.816 140.824 320.888C140.086 321.291 139.383 321.762 138.733 322.301C137.888 323.01 137.126 323.811 136.459 324.69C136.1 325.145 135.769 325.619 135.465 326.111C135.406 326.208 135.356 326.308 135.299 326.406L135.292 326.392C135.29 326.394 135.288 326.398 135.287 326.403C134.609 324.205 133.909 321.87 133.144 319.26C132.789 318.046 132.432 316.834 132.086 315.618L132.082 315.61L132.084 315.609C132.151 315.535 132.211 315.455 132.267 315.373C132.52 314.999 132.771 314.625 133.036 314.226C133.981 312.813 134.955 311.353 136.046 310.011L136.048 310.014C136.79 309.134 137.622 308.338 138.533 307.635C138.846 307.43 139.167 307.24 139.498 307.069C139.762 306.932 140.037 306.808 140.303 306.696C140.874 306.522 141.456 306.399 142.047 306.335C142.731 306.313 143.41 306.358 144.084 306.459C144.638 306.572 145.201 306.704 145.743 306.831L145.901 306.868C146.857 307.097 147.852 307.327 148.846 307.473L148.845 307.478C149.716 307.582 150.596 307.588 151.47 307.496C152.376 307.392 153.257 307.132 154.077 306.73C154.135 306.704 154.195 306.676 154.252 306.647C154.511 306.505 154.759 306.349 155 306.18C155.424 305.891 155.823 305.57 156.195 305.217C156.802 304.607 157.344 303.932 157.813 303.212C158.195 302.648 158.55 302.045 158.868 301.512C159.337 300.682 159.858 299.883 160.426 299.118C160.961 298.513 161.558 297.96 162.205 297.476C162.587 297.23 162.965 297.008 163.331 296.817C163.638 296.659 163.955 296.516 164.273 296.387C164.519 296.31 164.76 296.236 165.004 296.163C165.422 296.038 165.797 295.925 166.17 295.791L166.168 295.788C166.586 295.65 166.99 295.487 167.387 295.295L167.451 295.263C167.795 295.071 168.126 294.845 168.43 294.59C168.571 294.478 168.703 294.35 168.826 294.213L168.868 294.161L168.869 294.163L168.878 294.16L169.037 294.496ZM174.446 275.954L174.403 275.977C174.294 276.036 174.189 276.104 174.088 276.178L174.049 276.205C173.976 276.253 173.905 276.304 173.834 276.344C173.774 276.378 173.715 276.408 173.656 276.439L173.653 276.44C173.366 276.585 173.068 276.711 172.764 276.82C172.203 277.012 171.628 277.19 171.074 277.365L170.998 277.39L170.963 277.401C169.94 277.72 168.888 278.053 167.881 278.465C167.622 278.571 167.368 278.688 167.129 278.812C165.927 279.433 164.505 280.517 164.554 282.153L164.549 282.152C164.569 282.588 164.643 283.021 164.775 283.439C164.826 283.605 164.88 283.765 164.939 283.926C165.01 284.116 165.078 284.309 165.132 284.508C165.188 284.705 165.238 284.897 165.294 285.093L165.31 285.152C165.402 285.499 165.499 285.848 165.605 286.187C165.817 286.888 166.073 287.596 166.331 288.296C166.434 288.579 166.537 288.857 166.645 289.14L166.651 289.152L166.648 289.153L166.646 289.15C166.626 289.206 166.608 289.264 166.596 289.322C166.52 289.717 166.465 290.117 166.408 290.505L166.4 290.551L166.394 290.607C166.364 290.8 166.339 290.995 166.31 291.189L166.311 291.19C166.275 291.342 166.227 291.493 166.173 291.639C166.156 291.668 166.136 291.697 166.118 291.723C166.055 291.788 165.986 291.851 165.915 291.918C165.838 291.958 165.763 292.001 165.686 292.041C165.496 292.14 165.31 292.226 165.11 292.307C164.749 292.424 164.383 292.536 164.021 292.643L163.812 292.705C163.114 292.915 162.434 293.18 161.778 293.498C161.69 293.539 161.603 293.585 161.517 293.628C160.289 294.273 159.175 295.111 158.217 296.107C157.357 297.044 156.607 298.078 155.975 299.183L155.708 299.631L155.711 299.63C155.22 300.492 154.679 301.323 154.084 302.118C153.768 302.476 153.416 302.81 153.039 303.108C152.876 303.21 152.71 303.303 152.537 303.392C152.366 303.481 152.209 303.555 152.038 303.628C151.612 303.757 151.173 303.848 150.729 303.9C150.019 303.917 149.309 303.869 148.607 303.753C148.001 303.633 147.382 303.482 146.836 303.352C145.7 303.052 144.543 302.833 143.376 302.696C142.288 302.611 141.198 302.697 140.137 302.948C139.328 303.138 138.547 303.43 137.812 303.82C137.642 303.909 137.476 304.002 137.312 304.097L137.311 304.094C135.543 305.206 133.996 306.638 132.748 308.31C132.123 309.088 131.554 309.891 131.046 310.618C130.955 310.753 130.866 310.885 130.775 311.02L130.771 311.011L130.764 311.019C130.53 310.186 130.296 309.355 130.06 308.519L129.863 307.822L129.844 307.745C129.456 306.364 129.057 304.936 128.737 303.513L128.736 303.518C128.564 302.705 128.348 301.902 128.085 301.117C127.938 300.676 127.76 300.244 127.558 299.825C127.373 299.473 127.155 299.14 126.908 298.831L126.806 298.688C126.589 298.458 126.318 298.283 126.017 298.187C125.571 298.041 125.086 298.075 124.666 298.281L124.622 298.304C123.691 298.848 122.793 299.449 121.929 300.094L121.89 300.12C121.455 300.432 121.027 300.747 120.591 301.071L120.56 301.094C120.014 301.495 119.468 301.899 118.914 302.293H118.918C118.069 302.894 117.183 303.442 116.265 303.929C115.888 304.124 115.507 304.301 115.137 304.45L115.139 304.452C114.782 304.567 114.417 304.65 114.048 304.705C113.862 304.711 113.679 304.707 113.492 304.691C113.395 304.484 113.311 304.272 113.229 304.06L113.124 303.796L113.121 303.797C112.852 303.147 112.543 302.516 112.189 301.906C112.074 301.696 111.952 301.487 111.833 301.277L111.835 301.275C111.224 300.261 110.687 299.201 110.223 298.107C110.139 297.843 110.075 297.57 110.031 297.295C110.031 297.193 110.039 297.095 110.049 296.992L110.046 296.994C110.118 296.727 110.204 296.468 110.311 296.215C110.661 295.548 111.077 294.922 111.555 294.339C113.492 292.236 115.63 290.325 117.938 288.637L118.544 288.161C119.484 287.421 120.388 286.65 121.386 285.789C122.686 284.663 123.897 283.696 125.101 282.837L125.146 282.803C125.622 283.468 126.068 284.034 126.502 284.528C127.195 285.302 127.95 286.015 128.759 286.662C130.184 287.811 131.78 288.725 133.492 289.368C135.189 289.997 136.982 290.332 138.791 290.353C141.687 290.352 144.546 289.682 147.14 288.39L147.267 288.324C148.219 287.809 149.098 287.166 149.883 286.415C151.327 284.992 152.416 283.249 153.064 281.327C153.373 280.399 153.595 279.442 153.725 278.471C153.866 277.48 153.905 276.48 153.832 275.483C153.777 274.482 153.634 273.491 153.407 272.516C153.143 271.459 152.777 270.425 152.312 269.437C152.253 269.31 152.182 269.193 152.1 269.082L152.088 269.072L152.091 269.07L152.088 269.064L152.253 268.98C154.212 267.967 156.198 266.878 158.327 265.652C159.655 264.89 161.159 264.03 162.572 263.072H162.575C163.379 262.503 164.216 261.983 165.082 261.511C165.377 261.359 165.662 261.225 165.946 261.107C166.07 261.07 166.195 261.041 166.325 261.016C166.474 261.327 166.599 261.641 166.709 261.938L166.929 262.585L167.049 262.938C167.238 263.494 167.456 264.038 167.708 264.563C168.348 265.933 169.098 267.393 169.998 269.026C170.344 269.654 170.7 270.276 171.06 270.9C171.232 271.184 171.421 271.46 171.618 271.728L171.771 271.943C172.012 272.282 172.261 272.622 172.513 272.96C172.776 273.314 173.039 273.672 173.295 274.035L173.298 274.033C173.73 274.642 174.116 275.284 174.444 275.955L174.446 275.954Z" fill="#181818"/>
</g>
<path d="M287.188 52.7072C286.81 52.7072 286.432 52.5553 286.131 52.2545L278.19 44.3146C277.585 43.7099 277.585 42.7639 278.19 42.1591C278.796 41.5544 279.742 41.5544 280.346 42.1591L288.287 50.0989C288.892 50.7038 288.892 51.6498 288.287 52.2545C287.945 52.5584 287.568 52.7072 287.188 52.7072Z" fill="#181818"/>
<path d="M294.899 73.8773C294.594 73.8773 294.293 73.8028 294.031 73.5734C293.352 73.0833 293.199 72.1374 293.689 71.455L298.679 64.5356C298.718 64.4612 298.794 64.4208 298.831 64.3465L320.346 42.8342L319.893 36.4823L306.279 28.8464C306.015 28.6945 305.789 28.4681 305.637 28.1673L302.346 21.0959L279.318 44.1214C279.244 44.1958 279.167 44.2362 279.092 44.3105L271.567 49.4157C270.888 49.8685 269.942 49.7195 269.449 49C268.959 48.2805 269.145 47.3748 269.864 46.8817L277.275 41.8541L301.744 17.3923C302.085 17.0511 302.575 16.9023 303.068 16.9768C303.558 17.0511 303.978 17.3923 304.167 17.8452L308.133 26.4639L322.047 34.2517C322.5 34.5155 322.768 34.9714 322.804 35.4613L323.335 43.2864C323.371 43.7393 323.221 44.1549 322.881 44.4588L300.99 66.349L296.074 73.1909C295.81 73.6437 295.355 73.8701 294.902 73.8701L294.899 73.8773Z" fill="#181818"/>
<path d="M321.671 41.8922C321.291 41.8922 320.913 41.7403 320.612 41.4394C320.007 40.8346 320.007 39.8887 320.612 39.2839L334.227 25.6711C334.795 25.1035 335.095 24.3467 335.095 23.5156C335.095 22.6844 334.792 21.9276 334.227 21.3601L322.164 9.29865C321.597 8.73109 320.84 8.43019 320.009 8.43019C319.177 8.43019 318.42 8.73414 317.853 9.29865L305.073 22.077C304.468 22.6818 303.523 22.6818 302.918 22.077C302.313 21.4723 302.313 20.5263 302.918 19.9215L315.698 7.14315C316.832 6.00799 318.343 5.36597 319.972 5.36597C321.597 5.36597 323.11 6.00797 324.246 7.14315L336.305 19.2824C338.651 21.6271 338.651 25.4823 336.305 27.8272L322.691 41.4402C322.428 41.744 322.05 41.8922 321.671 41.8922ZM295.088 73.4999C294.71 73.4999 294.332 73.348 294.031 73.0471C292.706 71.7228 292.442 70.4759 292.29 69.5673C292.138 68.8105 292.064 68.3578 291.381 67.6754C290.702 66.9961 290.247 66.9186 289.489 66.7667C288.58 66.6147 287.334 66.3511 286.01 65.0267C284.684 63.7024 284.421 62.4555 284.269 61.5469C284.117 60.7901 284.042 60.3372 283.36 59.6549C282.681 58.9758 282.225 58.8982 281.469 58.7463C280.559 58.5942 279.312 58.3306 277.988 57.0063C276.663 55.682 276.401 54.4351 276.249 53.5264C276.096 52.7697 276.021 52.3168 275.339 51.6345C274.66 50.9553 274.204 50.8778 273.446 50.7259C272.538 50.5738 271.291 50.3102 269.967 48.9859C269.361 48.3811 269.361 47.4352 269.967 46.8304C270.572 46.2256 271.518 46.2256 272.122 46.8304C272.801 47.5095 273.257 47.5871 274.015 47.739C274.923 47.8911 276.17 48.1547 277.494 49.479C278.819 50.8034 279.083 52.0501 279.235 52.9589C279.387 53.7156 279.461 54.1685 280.144 54.8508C280.823 55.5301 281.278 55.6075 282.036 55.7596C282.945 55.9115 284.191 56.1751 285.515 57.4994C286.841 58.8238 287.104 60.0705 287.256 60.9793C287.408 61.736 287.483 62.1889 288.165 62.8712C288.844 63.5505 289.3 63.628 290.056 63.78C290.966 63.9319 292.213 64.1955 293.537 65.5199C294.862 66.8442 295.124 68.0911 295.276 68.9997C295.429 69.7566 295.504 70.2093 296.186 70.8916C296.791 71.4964 296.791 72.4423 296.186 73.0471C295.845 73.3511 295.467 73.4999 295.088 73.4999Z" fill="#181818"/>
<path d="M318.873 17.8097C318.342 17.8097 317.852 17.5461 317.549 17.053C316.907 15.9178 317.285 14.4818 318.38 13.8398C319.515 13.1978 320.95 13.5761 321.592 14.671C322.009 15.3906 321.783 16.3335 321.062 16.749C320.8 16.9009 320.495 16.9754 320.194 16.9382C320.079 17.2018 319.853 17.4283 319.589 17.5802C319.4 17.7694 319.136 17.8066 318.87 17.8066L318.873 17.8097ZM327.533 33.9903C327.08 33.9903 326.664 33.8012 326.361 33.4227C325.035 31.7603 325.302 29.3381 326.965 28.0168C328.627 26.6925 331.05 26.9593 332.371 28.6217C332.902 29.2636 332.787 30.2096 332.145 30.74C331.503 31.2703 330.556 31.1555 330.026 30.5136C329.762 30.1724 329.232 30.0979 328.891 30.3988C328.55 30.6624 328.475 31.1928 328.776 31.534C329.307 32.176 329.192 33.1219 328.55 33.6523C328.172 33.8787 327.871 33.9935 327.53 33.9935L327.533 33.9903Z" fill="#181818"/>
<path d="M70.9924 120.942C84.9118 107.321 101.013 94.6332 118.534 83.3681M18.9311 219.734C18.3364 237.134 22.7141 254.343 33.1758 270.649C46.4432 291.327 67.2644 303.307 92.4319 308.367M200.522 298.507C216.757 293.577 233.091 287.359 249.058 280.109M336.305 226.667C345.819 218.917 354.619 210.873 362.509 202.641M401.978 104.508C398.874 92.4701 392.083 80.9384 380.97 70.2673C371.435 61.319 360.871 54.1266 349.525 48.5321M260.969 33.4226C240.813 34.8564 220.202 38.9752 199.926 45.2703" stroke="#0C8D7E" stroke-width="2.11986" stroke-linecap="round" stroke-dasharray="7.07 7.07"/>
<mask id="mask1_80424_507" style="mask-type:luminance" maskUnits="userSpaceOnUse" x="1" y="125" width="80" height="80">
<path d="M80.4219 125.396H1.01678V204.794H80.4219V125.396Z" fill="white"/>
</mask>
<g mask="url(#mask1_80424_507)">
<path d="M74.1623 170.591C71.2591 147.382 52.1712 128.45 29.1127 125.547C25.2943 124.784 22.5463 127.38 22.0871 130.432C21.9352 131.806 22.3911 133.18 23.1573 134.402L7.12463 190.748C6.97264 191.206 7.12463 191.817 7.42861 192.121C7.73257 192.425 8.34358 192.58 8.80271 192.425L22.5469 188.456C22.2429 190.136 21.6319 191.814 20.8658 193.189C20.1027 194.714 19.7956 196.395 20.1027 197.922C20.5618 201.127 23.0029 203.723 26.2101 204.335C31.2505 205.405 35.6768 201.587 35.6768 196.699C35.6768 195.63 35.5247 194.562 35.0657 193.491C33.8436 190.593 33.0805 187.997 32.7766 185.401L38.1209 183.875C37.8171 184.789 37.6619 185.708 37.206 186.774C36.9021 187.689 36.9021 188.76 37.054 189.674C37.5131 192.118 39.4982 193.948 41.7872 194.407C46.5205 195.322 50.1867 190.59 48.3536 186.162C47.7426 184.637 47.2834 183.109 46.9796 181.122L65.3046 175.932C66.6788 177.001 68.8158 177.153 69.2749 177.001C72.3302 177.156 74.9253 174.256 74.1623 170.591ZM45.1485 179.293C44.5374 179.445 44.0784 180.056 44.0784 180.818C44.3824 183.414 44.9934 185.703 45.7595 187.689C46.6745 189.978 44.8445 192.422 42.2484 191.963C41.0261 191.811 39.9592 190.74 39.6521 189.519C39.5002 188.908 39.6521 188.448 39.8042 187.992C40.4152 185.855 40.8744 184.175 41.3303 182.497C41.4823 182.038 41.3303 181.582 40.8711 181.122C40.5673 180.818 39.9562 180.663 39.4971 180.818L30.7935 183.262C30.1825 183.414 29.7233 184.026 29.7233 184.637C29.8754 187.845 30.6383 191.203 32.3195 194.866C32.6235 195.476 32.7786 196.239 32.7786 196.851C32.7786 199.906 29.8785 202.502 26.6713 201.736C24.6861 201.276 23.16 199.599 22.8529 197.614C22.701 196.544 22.8529 195.476 23.312 194.559C24.5342 192.115 25.2971 189.519 25.6011 186.619C25.6011 186.159 25.449 185.703 25.1421 185.397C24.8381 185.093 24.2271 184.938 23.9199 185.093L10.483 188.911L25.4492 135.928C25.9084 136.08 26.2122 136.232 26.9753 136.387C45.6045 138.524 60.7224 153.64 62.8593 172.268C62.8593 172.728 63.0113 173.339 63.3184 173.794L45.1485 179.293ZM68.9701 174.715C67.5959 174.867 66.374 174.104 65.9148 172.579C65.9148 172.426 65.9148 172.274 65.7628 172.119C63.6256 152.27 47.4377 136.083 27.434 133.794C27.2819 133.794 27.13 133.794 26.9748 133.642C25.6008 133.183 24.8378 131.961 24.9899 130.587C25.1418 129.213 26.3639 127.839 28.6561 128.143C50.4925 131.043 68.5103 148.907 71.2585 170.897C71.8694 173.337 70.3442 174.56 68.9701 174.715Z" fill="#181818"/>
<path d="M50.7965 160.21C46.8264 160.21 43.619 163.417 43.619 167.386C43.619 171.356 46.8264 174.563 50.7965 174.563C54.7668 174.563 57.974 171.356 57.974 167.386C57.974 163.414 54.9189 160.21 50.7965 160.21ZM50.7965 171.964C48.3524 171.964 46.3674 169.979 46.3674 167.535C46.3674 165.092 48.3524 163.107 50.7965 163.107C53.2407 163.107 55.2259 165.092 55.2259 167.535C55.2259 169.979 53.2407 171.964 50.7965 171.964Z" fill="#181818"/>
<path d="M21.6311 172.729C19.035 172.729 17.0499 174.866 17.0499 177.31C17.0499 179.754 19.187 181.892 21.6311 181.892C24.0753 181.892 26.2124 179.754 26.2124 177.31C26.2124 174.866 24.2273 172.729 21.6311 172.729ZM21.6311 179.141C20.7162 179.141 19.7979 178.377 19.7979 177.307C19.7979 176.238 20.561 175.474 21.6311 175.474C22.5461 175.474 23.4644 176.238 23.4644 177.307C23.4644 178.377 22.7013 179.141 21.6311 179.141Z" fill="#181818"/>
<path d="M27.8938 149.978C24.9937 149.978 22.5495 152.422 22.5495 155.322C22.5495 158.222 24.9937 160.666 27.8938 160.666C30.7941 160.666 33.2381 158.222 33.2381 155.322C33.2381 152.422 30.7941 149.978 27.8938 149.978ZM27.8938 157.766C26.5198 157.766 25.4497 156.697 25.4497 155.322C25.4497 153.948 26.5198 152.878 27.8938 152.878C29.268 152.878 30.338 153.948 30.338 155.322C30.3349 156.697 29.2679 157.766 27.8938 157.766Z" fill="#181818"/>
<path d="M28.6569 147.229C29.4199 147.229 30.0309 146.618 30.0309 145.855C30.0309 144.174 31.4051 142.8 33.0862 142.8C33.8493 142.8 34.4604 142.189 34.4604 141.426C34.4604 140.663 33.8493 140.052 33.0862 140.052C29.879 140.052 27.1309 142.648 27.1309 146.007C27.2829 146.618 27.8938 147.229 28.6569 147.229Z" fill="#181818"/>
<path d="M40.7194 149.518L43.4674 148.144C44.2305 147.84 44.3824 146.922 44.0785 146.311C43.7745 145.548 42.8563 145.396 42.2453 145.7L39.4971 147.074C38.7342 147.378 38.5821 148.296 38.8862 148.907C39.1933 149.673 39.9563 149.977 40.7194 149.518Z" fill="#181818"/>
<path d="M26.2119 165.552L23.4637 166.927C22.7007 167.231 22.5488 168.148 22.8528 168.76C23.1567 169.523 24.0749 169.675 24.6858 169.371L27.434 167.996C28.1971 167.692 28.349 166.775 28.045 166.164C27.7381 165.552 26.8229 165.245 26.2119 165.552Z" fill="#181818"/>
<path d="M35.986 171.05C35.5268 170.439 34.6118 170.439 34.0009 170.898C33.3897 171.356 33.3897 172.271 33.8488 172.883L35.8339 175.327C36.293 175.938 37.2081 175.938 37.8191 175.479C38.4302 175.019 38.4302 174.104 37.9712 173.494L35.986 171.05Z" fill="#181818"/>
<path d="M44.2306 160.972C44.5345 160.21 44.0785 159.446 43.4676 159.139L40.5674 158.068C39.8044 157.764 39.0413 158.221 38.7342 158.832C38.4303 159.595 38.8863 160.357 39.4973 160.665L42.3974 161.735C43.1635 162.039 43.9266 161.735 44.2306 160.972Z" fill="#181818"/>
</g>
<path d="M431.777 182.522C431.685 180.487 431.232 175.545 426.004 175.748C425.904 175.752 425.824 175.758 425.724 175.761C425.42 169.138 424.696 163.623 422.398 158.588C419.836 152.97 416.685 146.662 411.674 142.853C408.123 140.152 403.757 138.531 398.648 138.007C400.993 136.183 402.441 133.25 402.312 129.928C402.1 124.482 397.718 120.221 392.546 120.423C387.176 120.632 382.646 125.427 382.85 130.686C382.978 133.94 384.88 136.808 387.614 138.462C382.603 139.39 378.429 141.312 375.168 144.221C370.462 148.42 366.631 154.131 364.379 160.297C362.81 164.591 363.173 168.618 363.552 172.881C363.656 174.044 363.75 175.261 363.827 176.508C359.876 177.224 356.682 182.032 356.828 185.763C357 190.176 361.321 192.978 365.251 192.826C369.159 192.673 371.138 192.361 373.051 192.06C374.976 191.754 376.796 191.467 380.552 191.319C384.33 191.173 386.172 191.262 388.124 191.358C390.043 191.45 392.028 191.547 395.915 191.395C399.677 191.249 401.513 191.371 403.455 191.505C405.383 191.634 407.37 191.771 411.269 191.619C415.168 191.467 417.141 191.176 419.052 190.897C420.977 190.614 422.802 190.347 426.567 190.199C431.789 189.997 431.863 185.118 431.801 183.109C431.818 183.012 431.828 182.915 431.823 182.814C431.82 182.714 431.806 182.619 431.778 182.523L431.777 182.522ZM385.385 130.587C385.236 126.747 388.694 123.108 392.647 122.954C396.422 122.807 399.625 125.978 399.783 130.026C399.938 134.017 397.05 137.262 393.211 137.411C389.191 137.568 385.534 134.377 385.385 130.587ZM376.859 146.112C380.815 142.581 386.356 140.655 393.326 140.383C400.219 140.115 405.877 141.623 410.145 144.871C414.685 148.322 417.662 154.305 420.095 159.643C420.215 159.904 420.312 160.174 420.421 160.437C418.441 160.429 417.414 159.681 416.152 158.738C414.697 157.646 413.047 156.406 409.939 156.528C406.985 156.643 405.461 157.451 404.117 158.167C402.852 158.836 401.76 159.419 399.39 159.512C397.148 159.598 396.039 158.844 394.756 157.973C393.309 156.99 391.673 155.873 388.593 155.993C385.388 156.119 383.775 157.985 382.48 159.488C381.259 160.904 380.294 162.022 378.183 162.104C376.109 162.185 375.054 161.044 373.725 159.597C372.564 158.337 371.163 156.847 368.917 156.409C370.995 152.492 373.754 148.883 376.859 146.112ZM366.764 161.165C367.053 160.374 367.38 159.592 367.724 158.812C369.577 158.861 370.597 159.941 371.854 161.308C373.27 162.846 375.031 164.757 378.279 164.631C381.488 164.505 383.099 162.635 384.394 161.133C385.616 159.717 386.58 158.598 388.688 158.517C390.933 158.429 392.042 159.184 393.326 160.055C394.772 161.039 396.409 162.154 399.485 162.035C402.436 161.919 403.958 161.111 405.303 160.396C406.569 159.726 407.659 159.144 410.034 159.05C412.247 158.964 413.299 159.752 414.629 160.752C416.087 161.847 417.737 163.084 420.853 162.962C421.014 162.955 421.164 162.915 421.304 162.85C422.504 166.706 422.977 170.979 423.202 175.915C421.002 176.113 419.558 176.411 418.156 176.698C416.25 177.093 414.45 177.463 410.72 177.609C406.976 177.755 405.148 177.573 403.209 177.377C401.267 177.184 399.267 176.981 395.343 177.135C391.381 177.29 389.383 177.786 387.453 178.265C385.565 178.732 383.778 179.178 380.077 179.322C376.523 179.46 374.75 178.732 372.876 177.961C371.147 177.248 369.356 176.525 366.359 176.414C366.283 175.11 366.182 173.852 366.076 172.648C365.71 168.509 365.391 164.93 366.764 161.165ZM426.472 187.669C422.57 187.822 420.598 188.113 418.687 188.391C416.762 188.676 414.94 188.941 411.174 189.089C407.409 189.235 405.572 189.11 403.63 188.978C401.703 188.849 399.714 188.712 395.818 188.865C392.04 189.012 390.2 188.921 388.246 188.828C386.327 188.734 384.344 188.637 380.457 188.789C376.549 188.941 374.57 189.255 372.657 189.556C370.732 189.86 368.912 190.149 365.156 190.295C362.506 190.398 359.475 188.52 359.363 185.666C359.258 182.952 361.934 179.061 364.713 178.952C368.268 178.814 370.041 179.542 371.915 180.313C373.96 181.156 376.071 182.023 380.18 181.863C384.141 181.709 386.14 181.212 388.071 180.732C389.957 180.265 391.744 179.82 395.445 179.675C399.191 179.53 401.021 179.712 402.957 179.907C404.894 180.102 406.899 180.304 410.819 180.15C414.758 179.997 416.748 179.588 418.67 179.19C420.576 178.795 422.377 178.425 426.105 178.279C427.984 178.205 429.105 178.941 429.26 182.915C429.41 186.817 428.397 187.594 426.472 187.669Z" fill="#181818"/>
<mask id="mask2_80424_507" style="mask-type:luminance" maskUnits="userSpaceOnUse" x="105" y="11" width="99" height="99">
<path d="M182.251 11.9096L105.831 33.4773L127.401 109.89L203.82 88.3226L182.251 11.9096Z" fill="white"/>
</mask>
<g mask="url(#mask2_80424_507)">
<path d="M166.768 52.6471C168.213 53.454 167.001 55.6203 165.557 54.8095C164.114 54.0018 165.325 51.8394 166.768 52.6471Z" fill="#181818"/>
<path d="M162.74 57.0839C164.184 57.8916 162.97 60.058 161.527 59.2501C160.085 58.4424 161.297 56.2762 162.74 57.0839Z" fill="#181818"/>
<path d="M164.549 47.3461C165.992 48.1538 164.783 50.3193 163.337 49.5123C161.893 48.7046 163.107 46.5384 164.549 47.3461Z" fill="#181818"/>
<path d="M153.356 67.715C154.799 68.5227 153.589 70.6881 152.146 69.8803C150.702 69.0697 151.913 66.9073 153.356 67.715Z" fill="#181818"/>
<path d="M160.844 39.8947C158.693 40.8143 157.971 43.622 157.058 47.1731C156.324 50.0292 155.493 53.2641 153.791 56.3C153.729 56.4109 153.659 56.5176 153.596 56.6256C154.22 57.072 154.86 57.4809 155.524 57.8574C155.581 57.8895 155.639 57.9149 155.697 57.947C155.782 57.8008 155.874 57.6617 155.959 57.5126C157.816 54.1943 158.727 50.6432 159.463 47.7899C160.146 45.1285 160.793 42.6157 161.821 42.1776C161.858 42.1607 161.892 42.1477 161.928 42.1375C162.571 41.9564 163.563 42.3945 164.302 42.8081C167.404 44.5434 169.493 47.6886 170.18 51.6647C170.751 55.2772 170.25 58.9799 168.731 62.3119C169.505 62.622 170.238 63.0243 170.914 63.5134C172.694 59.6819 173.291 55.4113 172.625 51.2388C171.806 46.5132 169.281 42.7494 165.516 40.6418C163.644 39.5973 162.117 39.3483 160.844 39.8947Z" fill="#181818"/>
<path d="M163.442 63.2866C160.587 62.5516 157.349 61.7219 154.313 60.02C151.274 58.3189 148.875 55.9959 146.756 53.9481C144.122 51.3979 142.042 49.3842 139.723 49.7228C138.359 49.9242 137.18 50.9305 136.132 52.802C134.024 56.5682 133.839 61.0967 135.612 65.5524C137.512 70.1016 140.914 73.863 145.25 76.2097C149.518 78.679 154.504 79.6117 159.372 78.8534C159.984 78.7483 160.589 78.6097 161.183 78.442C164.895 77.4813 168.061 75.0665 169.972 71.743C171.02 69.8712 171.266 68.3423 170.72 67.0718C169.796 64.9187 166.992 64.1987 163.44 63.2868L163.442 63.2866ZM167.806 70.53C166.07 73.6302 162.935 75.7175 158.948 76.4072C154.639 77.069 150.234 76.237 146.461 74.047C142.622 71.9787 139.608 68.6558 137.919 64.637C136.429 60.8873 136.564 57.1175 138.299 54.0144C138.712 53.2757 139.327 52.3835 139.972 52.2015C140.008 52.1913 140.045 52.1843 140.085 52.1792C141.193 52.0179 143.056 53.8222 145.029 55.7307C147.145 57.7794 149.779 60.3296 153.101 62.1863C156.419 64.0438 159.971 64.9556 162.824 65.6908C165.486 66.3737 167.998 67.0212 168.439 68.0472C168.709 68.6833 168.244 69.7492 167.806 70.53Z" fill="#181818"/>
<path d="M147.481 67.7518C148.924 68.5595 147.715 70.725 146.268 69.918C144.825 69.1074 146.038 66.9441 147.481 67.7518Z" fill="#181818"/>
<path d="M157.49 71.3082C158.933 72.1159 157.724 74.2814 156.28 73.4706C154.834 72.6638 156.046 70.5005 157.49 71.3082Z" fill="#181818"/>
<path d="M162.79 69.0863C164.234 69.8971 163.021 72.0603 161.578 71.2526C160.134 70.4449 161.348 68.2786 162.79 69.0863Z" fill="#181818"/>
<path d="M145.464 62.7753C146.907 63.583 145.697 65.7454 144.254 64.9377C142.807 64.1308 144.02 61.9645 145.464 62.7753Z" fill="#181818"/>
<path d="M142.421 57.897C143.864 58.7047 142.65 60.8681 141.207 60.0604C139.764 59.2527 140.977 57.0864 142.421 57.897Z" fill="#181818"/>
<path d="M192.108 78.7085C190.338 60.4714 185.321 42.6992 177.294 26.228L176.664 15.0555L176.661 15.0563C176.641 14.6784 176.451 14.3327 176.145 14.1162C175.838 13.8966 175.447 13.8294 175.086 13.9313C173.796 14.3021 172.718 15.1992 172.115 16.4004C171.676 17.1144 171.412 17.5466 170.582 17.7809C169.754 18.0142 169.302 17.7841 168.554 17.4055L168.557 17.4047C167.417 16.6887 166.027 16.4882 164.731 16.8538C163.435 17.2194 162.359 18.1167 161.761 19.323C161.32 20.0368 161.059 20.4685 160.232 20.7018C159.406 20.9352 158.953 20.7049 158.205 20.3264C157.065 19.6104 155.677 19.4092 154.382 19.7748C153.086 20.1404 152.008 21.0376 151.411 22.2439C150.971 22.9578 150.707 23.3902 149.88 23.6235C149.053 23.8569 148.604 23.6258 147.856 23.2473C146.719 22.5304 145.331 22.3292 144.035 22.6948C142.74 23.0604 141.662 23.9576 141.065 25.1639C140.628 25.877 140.363 26.3093 139.536 26.5428C138.709 26.7761 138.261 26.5451 137.512 26.1664C136.372 25.4504 134.985 25.2492 133.689 25.6148C132.393 25.9804 131.316 26.8776 130.718 28.084C130.281 28.797 130.017 29.2294 129.19 29.4628C128.363 29.6961 127.911 29.4659 127.163 29.0874L127.166 29.0864C126.026 28.3706 124.638 28.1692 123.343 28.5348C122.047 28.9006 120.969 29.7977 120.372 31.004C119.932 31.7178 119.67 32.1495 118.843 32.3828C118.017 32.6161 117.568 32.3851 116.82 32.0066C115.678 31.2974 114.29 31.0961 112.996 31.455C112.635 31.5568 112.338 31.818 112.191 32.1656C112.043 32.5101 112.061 32.9046 112.242 33.2372L117.544 43.0913C119.314 61.3282 124.331 79.1004 132.358 95.5716L132.988 106.744L132.991 106.743C133.011 107.121 133.202 107.467 133.508 107.683C133.815 107.903 134.204 107.97 134.566 107.868C135.857 107.498 136.935 106.601 137.536 105.399C137.976 104.685 138.241 104.253 139.068 104.02C139.895 103.786 140.347 104.016 141.095 104.395C142.235 105.111 143.626 105.312 144.921 104.946C146.217 104.58 147.295 103.683 147.892 102.477C148.332 101.763 148.593 101.331 149.42 101.098C150.247 100.865 150.699 101.095 151.447 101.473C152.587 102.189 153.975 102.391 155.27 102.025C156.565 101.659 157.644 100.762 158.241 99.5559C158.681 98.842 158.947 98.4096 159.773 98.1763C160.6 97.9428 161.048 98.174 161.796 98.5525C162.933 99.2692 164.322 99.4706 165.617 99.1049C166.912 98.7393 167.99 97.8422 168.588 96.6358C169.024 95.9228 169.289 95.4904 170.117 95.257C170.943 95.0237 171.392 95.2547 172.14 95.6332C173.28 96.3492 174.669 96.5506 175.964 96.1848C177.259 95.8192 178.337 94.9221 178.935 93.7158C179.374 93.0018 179.635 92.5703 180.463 92.337C181.29 92.1035 181.741 92.3338 182.49 92.7124L182.487 92.7132C183.626 93.4292 185.014 93.6304 186.31 93.2648C187.605 92.8992 188.684 92.002 189.28 90.7957C189.721 90.0818 189.982 89.6503 190.808 89.4168C191.636 89.1835 192.085 89.4145 192.833 89.7932C193.975 90.5023 195.362 90.7037 196.657 90.3448C197.018 90.2428 197.314 89.9818 197.462 89.6342C197.609 89.2896 197.591 88.895 197.41 88.5626L192.108 78.7085ZM115.694 34.22C116.835 34.9291 118.223 35.1305 119.517 34.7716C120.808 34.4008 121.886 33.5037 122.488 32.3025C122.925 31.5894 123.189 31.157 124.016 30.9236C124.843 30.6903 125.295 30.9206 126.04 31.3C127.181 32.0091 128.569 32.2104 129.863 31.8516C131.154 31.4808 132.232 30.5837 132.834 29.3824C133.274 28.6686 133.536 28.237 134.363 28.0036C135.19 27.7703 135.638 28.0013 136.386 28.3798C137.526 29.0958 138.914 29.2972 140.21 28.9314C141.505 28.5658 142.583 27.6687 143.181 26.4624C143.618 25.7494 143.882 25.3169 144.709 25.0836C145.536 24.8503 145.985 25.0813 146.733 25.4598C147.874 26.169 149.259 26.3712 150.553 26.0124C151.847 25.6408 152.925 24.7435 153.527 23.5424C153.964 22.8294 154.229 22.3969 155.055 22.1636C155.882 21.9303 156.333 22.1604 157.082 22.539L157.08 22.5398C158.223 23.2481 159.609 23.4503 160.905 23.0906C162.197 22.7198 163.274 21.8227 163.876 20.6215C164.313 19.9084 164.578 19.476 165.405 19.2427C166.231 19.0093 166.683 19.2396 167.431 19.6181C168.571 20.3341 169.963 20.5345 171.258 20.1689C172.553 19.8032 173.632 18.9061 174.229 17.6998C174.26 17.6491 174.289 17.6024 174.317 17.5555L174.773 25.6222L119.375 41.257L115.547 34.1453C115.596 34.1702 115.645 34.1951 115.694 34.22ZM193.958 87.5807C192.818 86.8647 191.431 86.6635 190.135 87.0291C188.839 87.3947 187.762 88.2919 187.164 89.4983C186.725 90.2121 186.462 90.6436 185.636 90.8769C184.809 91.1104 184.358 90.8801 183.613 90.5007C182.473 89.7847 181.084 89.5835 179.789 89.9491C178.492 90.3147 177.415 91.212 176.818 92.4183C176.378 93.1321 176.116 93.5636 175.289 93.7971C174.463 94.0304 174.014 93.7994 173.266 93.4207C172.126 92.7048 170.737 92.5035 169.442 92.8691C168.147 93.2347 167.069 94.132 166.471 95.3383C166.035 96.0514 165.769 96.4838 164.943 96.7171C164.116 96.9504 163.667 96.7194 162.919 96.3408C161.782 95.624 160.391 95.4235 159.096 95.7891C157.801 96.1549 156.722 97.052 156.124 98.2583C155.685 98.9721 155.424 99.4038 154.596 99.6371C153.769 99.8705 153.318 99.6402 152.57 99.2617L152.573 99.2609C151.433 98.5449 150.042 98.3445 148.749 98.7093C147.454 99.0749 146.373 99.9729 145.776 101.179C145.339 101.892 145.074 102.325 144.247 102.558C143.42 102.791 142.968 102.561 142.22 102.183C141.08 101.467 139.689 101.266 138.394 101.632C137.098 101.997 136.02 102.895 135.423 104.101C135.392 104.151 135.364 104.198 135.335 104.245L134.879 96.1785L190.277 80.5437L194.105 87.6552C194.056 87.6303 194.007 87.6056 193.958 87.5807ZM189.561 78.1677L134.246 93.779C126.665 78.007 121.876 61.041 120.091 43.6329L175.406 28.0216C182.987 43.7936 187.776 60.7596 189.561 78.1677Z" fill="#181818"/>
</g>
<path d="M1069.41 425.997C1003.75 402.992 969.853 518.518 908.408 578.445" stroke="#0C8D7E" stroke-width="2.11986" stroke-linecap="round" stroke-dasharray="7.07 7.07"/>
<path d="M909.302 208.123C885.777 245.342 954.861 412.079 867.316 442.448" stroke="#0C8D7E" stroke-width="2.11986" stroke-linecap="round" stroke-dasharray="7.07 7.07"/>
</svg>
